<svg width="16" height="17" viewBox="0 0 16 17" fill="none" xmlns="http://www.w3.org/2000/svg">
<g id="Desktop / icon / food">
<path id="Vector" d="M12.0413 15.8337H13.148C13.708 15.8337 14.168 15.4003 14.2346 14.8537L15.3346 3.86699H12.0013V1.16699H10.688V3.86699H7.37464L7.57463 5.42699C8.71463 5.74032 9.7813 6.30699 10.4213 6.93366C11.3813 7.88032 12.0413 8.86032 12.0413 10.4603V15.8337ZM0.667969 15.167V14.5003H10.688V15.167C10.688 15.527 10.388 15.8337 10.0013 15.8337H1.33464C0.967969 15.8337 0.667969 15.527 0.667969 15.167ZM10.688 10.5003C10.688 5.16699 0.667969 5.16699 0.667969 10.5003H10.688ZM0.667969 11.8337H10.668V13.167H0.667969V11.8337Z" fill="#504F4E"/>
</g>
</svg>
