<svg width="16" height="17" viewBox="0 0 16 17" fill="none" xmlns="http://www.w3.org/2000/svg">
<g id="Desktop / icon / account-voice">
<path id="Vector" d="M6.0013 3.83301C6.70855 3.83301 7.38682 4.11396 7.88692 4.61406C8.38702 5.11415 8.66797 5.79243 8.66797 6.49967C8.66797 7.20692 8.38702 7.8852 7.88692 8.38529C7.38682 8.88539 6.70855 9.16634 6.0013 9.16634C5.29406 9.16634 4.61578 8.88539 4.11568 8.38529C3.61559 7.8852 3.33464 7.20692 3.33464 6.49967C3.33464 5.79243 3.61559 5.11415 4.11568 4.61406C4.61578 4.11396 5.29406 3.83301 6.0013 3.83301ZM6.0013 10.4997C7.7813 10.4997 11.3346 11.393 11.3346 13.1663V14.4997H0.667969V13.1663C0.667969 11.393 4.2213 10.4997 6.0013 10.4997ZM11.1746 4.07301C12.5213 5.53967 12.5213 7.57301 11.1746 8.91967L10.0546 7.79301C10.6146 7.00634 10.6146 5.98634 10.0546 5.19967L11.1746 4.07301ZM13.3813 1.83301C16.0013 4.53301 15.9813 8.57301 13.3813 11.1663L12.2946 10.0797C14.1413 7.95967 14.1413 4.93301 12.2946 2.91967L13.3813 1.83301Z" fill="#504F4E"/>
</g>
</svg>
