<svg width="16" height="17" viewBox="0 0 16 17" fill="none" xmlns="http://www.w3.org/2000/svg">
<g id="Desktop / icon / wifi">
<path id="Vector" d="M8.00078 14.5L10.4008 11.3C9.73411 10.8 8.90078 10.5 8.00078 10.5C7.10078 10.5 6.26745 10.8 5.60078 11.3L8.00078 14.5ZM8.00078 2.5C5.30078 2.5 2.80745 3.39333 0.800781 4.9L2.00078 6.5C3.66745 5.24667 5.74745 4.5 8.00078 4.5C10.2541 4.5 12.3341 5.24667 14.0008 6.5L15.2008 4.9C13.1941 3.39333 10.7008 2.5 8.00078 2.5ZM8.00078 6.5C6.20078 6.5 4.54078 7.09333 3.20078 8.1L4.40078 9.7C5.40078 8.94667 6.64745 8.5 8.00078 8.5C9.35411 8.5 10.6008 8.94667 11.6008 9.7L12.8008 8.1C11.4608 7.09333 9.80078 6.5 8.00078 6.5Z" fill="#504F4E"/>
</g>
</svg>
