<svg width="16" height="17" viewBox="0 0 16 17" fill="none" xmlns="http://www.w3.org/2000/svg">
<g id="Desktop / icon / food-fork-drink">
<path id="Vector" d="M1.9987 2.50038C1.82189 2.50038 1.65232 2.57062 1.52729 2.69564C1.40227 2.82067 1.33203 2.99024 1.33203 3.16705V5.83371V6.83371C1.33203 7.96038 2.0187 8.92038 2.9987 9.31371V13.5004C2.9987 13.7656 3.10405 14.0199 3.29159 14.2075C3.47913 14.395 3.73348 14.5004 3.9987 14.5004C4.26391 14.5004 4.51827 14.395 4.7058 14.2075C4.89334 14.0199 4.9987 13.7656 4.9987 13.5004V9.31371C5.9787 8.92038 6.66536 7.96038 6.66536 6.83371V5.83371V3.16705C6.66536 2.99024 6.59513 2.82067 6.4701 2.69564C6.34508 2.57062 6.17551 2.50038 5.9987 2.50038C5.82189 2.50038 5.65232 2.57062 5.52729 2.69564C5.40227 2.82067 5.33203 2.99024 5.33203 3.16705V5.83371C5.33203 5.92212 5.29691 6.0069 5.2344 6.06942C5.17189 6.13193 5.0871 6.16705 4.9987 6.16705C4.91029 6.16705 4.82551 6.13193 4.763 6.06942C4.70048 6.0069 4.66536 5.92212 4.66536 5.83371V3.16705C4.66536 2.99024 4.59513 2.82067 4.4701 2.69564C4.34508 2.57062 4.17551 2.50038 3.9987 2.50038C3.82189 2.50038 3.65232 2.57062 3.52729 2.69564C3.40227 2.82067 3.33203 2.99024 3.33203 3.16705V5.83371C3.33203 5.92212 3.29691 6.0069 3.2344 6.06942C3.17189 6.13193 3.0871 6.16705 2.9987 6.16705C2.91029 6.16705 2.82551 6.13193 2.763 6.06942C2.70048 6.0069 2.66536 5.92212 2.66536 5.83371V3.16705C2.66536 2.99024 2.59513 2.82067 2.4701 2.69564C2.34508 2.57062 2.17551 2.50038 1.9987 2.50038ZM13.252 2.50038C13.1654 2.50038 13.0787 2.56038 12.9987 2.60705L10.6654 4.00038V6.50038H7.9987V7.83371H8.66536L9.33203 14.5004H13.332L13.9987 7.83371H14.6654V6.50038H11.9987V4.72705L13.6654 3.72705C13.9987 3.54038 14.0854 3.16705 13.892 2.83371C13.752 2.59371 13.5054 2.46705 13.252 2.50038Z" fill="#504F4E"/>
</g>
</svg>
