<svg width="625" height="192" viewBox="0 0 625 192" fill="none" xmlns="http://www.w3.org/2000/svg">
<path d="M372.5 126.5C375.538 126.5 378 124.038 378 121C378 117.962 375.538 115.5 372.5 115.5C369.462 115.5 367 117.962 367 121C367 124.038 369.462 126.5 372.5 126.5Z" fill="#272725"/>
<path d="M403.5 126.5C406.538 126.5 409 124.038 409 121C409 117.962 406.538 115.5 403.5 115.5C400.462 115.5 398 117.962 398 121C398 124.038 400.462 126.5 403.5 126.5Z" fill="#272725"/>
<path d="M434.5 126.5C437.538 126.5 440 124.038 440 121C440 117.962 437.538 115.5 434.5 115.5C431.462 115.5 429 117.962 429 121C429 124.038 431.462 126.5 434.5 126.5Z" fill="#272725"/>
<path d="M465.5 126.5C468.538 126.5 471 124.038 471 121C471 117.962 468.538 115.5 465.5 115.5C462.462 115.5 460 117.962 460 121C460 124.038 462.462 126.5 465.5 126.5Z" fill="#272725"/>
<path d="M496.5 126.5C499.538 126.5 502 124.038 502 121C502 117.962 499.538 115.5 496.5 115.5C493.462 115.5 491 117.962 491 121C491 124.038 493.462 126.5 496.5 126.5Z" fill="#272725"/>
<path d="M527.5 126.5C530.538 126.5 533 124.038 533 121C533 117.962 530.538 115.5 527.5 115.5C524.462 115.5 522 117.962 522 121C522 124.038 524.462 126.5 527.5 126.5Z" fill="#272725"/>
<g clip-path="url(#clip0_5074_28136)">
<path d="M581.888 121.001L544 102.665C547.457 95.5752 552.842 89.5975 559.541 85.4134C566.24 81.2292 573.984 79.0069 581.888 79C604.99 79 624.001 97.9593 624.001 121.001C624.001 144.042 604.991 163.001 581.888 163.001C574.87 162.998 567.964 161.247 561.796 157.907C555.628 154.568 550.394 149.744 546.569 143.876L581.888 121.001Z" fill="#FFCD00"/>
</g>
<path d="M9.0625 140.5L3.125 114.062L42.5 61.25L84.75 65.625L85.75 108.438L96.75 110.875L100.188 136.125L84.75 138.812L81.6875 160.562L51.9375 158.375L51.75 142.75L9.0625 140.5ZM39.9375 106.5L54.6875 118.875L61.8125 90.875L39.9375 106.5Z" fill="#272725"/>
<path d="M176.5 170.271C203.159 170.271 224.771 148.659 224.771 122C224.771 95.3406 203.159 73.7288 176.5 73.7288C149.84 73.7288 128.229 95.3406 128.229 122C128.229 148.659 149.84 170.271 176.5 170.271Z" fill="#FF9771"/>
<path d="M204.626 122.739V124.242" stroke="#272725" stroke-width="5.26277" stroke-linecap="round"/>
<path d="M194.92 113.354C196.581 113.354 197.927 112.008 197.927 110.347C197.927 108.686 196.581 107.339 194.92 107.339C193.259 107.339 191.912 108.686 191.912 110.347C191.912 112.008 193.259 113.354 194.92 113.354Z" fill="#272725"/>
<path d="M213.715 112.602C215.376 112.602 216.723 111.256 216.723 109.595C216.723 107.934 215.376 106.588 213.715 106.588C212.054 106.588 210.708 107.934 210.708 109.595C210.708 111.256 212.054 112.602 213.715 112.602Z" fill="#272725"/>
<path d="M174.892 106.588H174.257C173.627 106.588 173.117 107.098 173.117 107.728V128.365C173.117 128.995 173.627 129.505 174.257 129.505H174.892C175.522 129.505 176.033 128.995 176.033 128.365V107.728C176.033 107.098 175.522 106.588 174.892 106.588Z" fill="white"/>
<path d="M181.124 109.927H180.489C179.859 109.927 179.348 110.438 179.348 111.068V125.029C179.348 125.659 179.859 126.17 180.489 126.17H181.124C181.754 126.17 182.264 125.659 182.264 125.029V111.068C182.264 110.438 181.754 109.927 181.124 109.927Z" fill="white"/>
<path d="M261.062 140.5L255.125 114.062L294.5 61.25L336.75 65.625L337.75 108.438L348.75 110.875L352.188 136.125L336.75 138.812L333.688 160.562L303.938 158.375L303.75 142.75L261.062 140.5ZM291.938 106.5L306.688 118.875L313.812 90.875L291.938 106.5Z" fill="#272725"/>
<defs>
<clipPath id="clip0_5074_28136">
<rect width="80" height="84" fill="white" transform="translate(544 79)"/>
</clipPath>
</defs>
</svg>
