<svg width="24" height="24" viewBox="0 0 24 24" fill="none" xmlns="http://www.w3.org/2000/svg">
<g id="Icon / Star">
<mask id="mask0_3647_6737" style="mask-type:alpha" maskUnits="userSpaceOnUse" x="2" y="2" width="20" height="19">
<path id="Vector" d="M12.4009 17.9554C12.1551 17.8259 11.8611 17.8257 11.6151 17.9551L7.26489 20.2423C6.64605 20.5676 5.92277 20.0421 6.04098 19.353L6.87203 14.5084C6.919 14.2346 6.82811 13.9552 6.62902 13.7614L3.10528 10.3314C2.604 9.84345 2.88034 8.99251 3.57266 8.89217L8.43389 8.18764C8.70876 8.14781 8.9464 7.97522 9.06932 7.72616L11.2446 3.31844C11.554 2.69149 12.448 2.6915 12.7574 3.31844L14.9328 7.72616C15.0557 7.97522 15.2933 8.14781 15.5682 8.18764L20.4294 8.89217C21.1217 8.99251 21.3981 9.84345 20.8968 10.3314L17.3731 13.7614C17.174 13.9552 17.0831 14.2346 17.13 14.5084L17.9608 19.3511C18.079 20.0405 17.355 20.566 16.7362 20.2399L12.4009 17.9554Z" fill="black"/>
</mask>
<g mask="url(#mask0_3647_6737)">
<rect id="Color" width="24" height="24" fill="#FFD44A"/>
</g>
</g>
</svg>
