<svg width="24" height="25" viewBox="0 0 24 25" fill="none" xmlns="http://www.w3.org/2000/svg">
<g id="Desktop / icon / thumb-up">
<path id="Vector" d="M22 11.6C22 10.601 21.1818 9.8 20.1818 9.8H14.4364L15.3091 5.687C15.3273 5.597 15.3364 5.498 15.3364 5.399C15.3364 5.03 15.1818 4.688 14.9364 4.445L13.9727 3.5L7.99091 9.422C7.65455 9.755 7.45455 10.205 7.45455 10.7V19.7C7.45455 20.1774 7.6461 20.6352 7.98708 20.9728C8.32805 21.3104 8.79052 21.5 9.27273 21.5H17.4545C18.2091 21.5 18.8545 21.05 19.1273 20.402L21.8727 14.057C21.9545 13.85 22 13.634 22 13.4V11.6ZM2 21.5H5.63636V10.7H2V21.5Z" fill="#272725"/>
</g>
</svg>
