<svg width="24" height="25" viewBox="0 0 24 25" fill="none" xmlns="http://www.w3.org/2000/svg">
<g id="Desktop / icon / share-variant-outline">
<path id="Vector" d="M18 16.58C17.24 16.58 16.56 16.88 16.04 17.35L8.91 13.2C8.96 12.97 9 12.74 9 12.5C9 12.26 8.96 12.03 8.91 11.8L15.96 7.69C16.5 8.19 17.21 8.5 18 8.5C19.66 8.5 21 7.16 21 5.5C21 3.84 19.66 2.5 18 2.5C16.34 2.5 15 3.84 15 5.5C15 5.74 15.04 5.97 15.09 6.2L8.04 10.31C7.5 9.81 6.79 9.5 6 9.5C4.34 9.5 3 10.84 3 12.5C3 14.16 4.34 15.5 6 15.5C6.79 15.5 7.5 15.19 8.04 14.69L15.16 18.84C15.11 19.05 15.08 19.27 15.08 19.5C15.08 21.11 16.39 22.41 18 22.41C19.61 22.41 20.92 21.11 20.92 19.5C20.92 17.89 19.61 16.58 18 16.58ZM18 4.5C18.55 4.5 19 4.95 19 5.5C19 6.05 18.55 6.5 18 6.5C17.45 6.5 17 6.05 17 5.5C17 4.95 17.45 4.5 18 4.5ZM6 13.5C5.45 13.5 5 13.05 5 12.5C5 11.95 5.45 11.5 6 11.5C6.55 11.5 7 11.95 7 12.5C7 13.05 6.55 13.5 6 13.5ZM18 20.5C17.45 20.5 17 20.05 17 19.5C17 18.95 17.45 18.5 18 18.5C18.55 18.5 19 18.95 19 19.5C19 20.05 18.55 20.5 18 20.5Z" fill="#272725"/>
</g>
</svg>
