<svg width="20" height="21" viewBox="0 0 20 21" fill="none" xmlns="http://www.w3.org/2000/svg">
<g id="Desktop / icon / location">
<path id="Vector" d="M10.0013 10.0834C9.44877 10.0834 8.91886 9.86392 8.52816 9.47322C8.13746 9.08252 7.91797 8.55262 7.91797 8.00008C7.91797 7.44755 8.13746 6.91764 8.52816 6.52694C8.91886 6.13624 9.44877 5.91675 10.0013 5.91675C10.5538 5.91675 11.0837 6.13624 11.4744 6.52694C11.8651 6.91764 12.0846 7.44755 12.0846 8.00008C12.0846 8.27367 12.0307 8.54458 11.9261 8.79734C11.8214 9.0501 11.6679 9.27977 11.4744 9.47322C11.281 9.66668 11.0513 9.82013 10.7986 9.92483C10.5458 10.0295 10.2749 10.0834 10.0013 10.0834ZM10.0013 2.16675C8.45421 2.16675 6.97047 2.78133 5.87651 3.87529C4.78255 4.96925 4.16797 6.45299 4.16797 8.00008C4.16797 12.3751 10.0013 18.8334 10.0013 18.8334C10.0013 18.8334 15.8346 12.3751 15.8346 8.00008C15.8346 6.45299 15.2201 4.96925 14.1261 3.87529C13.0321 2.78133 11.5484 2.16675 10.0013 2.16675Z" fill="#504F4E"/>
</g>
</svg>
