<svg width="24" height="25" viewBox="0 0 24 25" fill="none" xmlns="http://www.w3.org/2000/svg">
<g id="Desktop / icon / card-games">
<path id="Vector" d="M14.8962 2.5H16.3962C17.4962 2.5 18.3962 3.4 18.3962 4.5V10.9L14.8962 2.5ZM20.2962 4.1L21.5962 4.7C22.5962 5.1 23.0962 6.3 22.6962 7.3L20.2962 13.2V4.1ZM18.1962 15.8L13.1962 3.8C12.8962 3 12.1962 2.6 11.3962 2.6C11.0962 2.6 10.8962 2.7 10.5962 2.8L3.19615 5.8C2.19615 6.2 1.69615 7.3 2.19615 8.3L7.19615 20.3C7.49615 21.1 8.19615 21.5 8.99615 21.5C9.29615 21.5 9.49615 21.5 9.79615 21.3L17.1962 18.3C17.9962 18 18.3962 17.3 18.3962 16.5C18.2962 16.3 18.2962 16 18.1962 15.8ZM11.5962 15.3L8.39615 12.9L8.79615 8.9L11.9962 11.3L11.5962 15.3Z" fill="#5F5E5B"/>
</g>
</svg>
