<svg width="24" height="25" viewBox="0 0 24 25" fill="none" xmlns="http://www.w3.org/2000/svg">
<g id="Desktop / icon / storefront-outline">
<path id="Vector" d="M5.06177 3.5C4.63177 3.5 4.22177 3.64 3.84177 3.92C3.46177 4.2 3.24177 4.56 3.14177 5L2.11177 9.41C1.86177 10.5 2.06177 11.45 2.72177 12.27L3.00177 12.55V19.5C3.00177 20 3.20177 20.5 3.61177 20.89C4.02177 21.28 4.50177 21.5 5.00177 21.5H19.0018C19.5018 21.5 20.0018 21.3 20.3918 20.89C20.7818 20.48 21.0018 20 21.0018 19.5V12.55L21.2818 12.27C21.9418 11.45 22.1418 10.5 21.8918 9.41L20.8618 5C20.7318 4.56 20.5018 4.2 20.1318 3.92C19.7718 3.64 19.3818 3.5 18.9418 3.5H5.06177ZM18.8918 5.47L19.9718 9.88C20.0618 10.31 19.9718 10.7 19.6918 11.05C19.4418 11.36 19.1318 11.5 18.7518 11.5C18.4418 11.5 18.1718 11.4 17.9518 11.16C17.7318 10.93 17.6118 10.66 17.5818 10.34L16.9718 5.5L18.8918 5.47ZM5.06177 5.5H7.03177L6.42177 10.34C6.30177 11.13 5.91177 11.5 5.25177 11.5C4.84177 11.5 4.53177 11.36 4.31177 11.05C4.03177 10.7 3.94177 10.31 4.03177 9.88L5.06177 5.5ZM9.05177 5.5H11.0018V10.2C11.0018 10.55 10.8918 10.85 10.6418 11.12C10.3918 11.38 10.0818 11.5 9.70177 11.5C9.36177 11.5 9.07177 11.38 8.84177 11.09C8.61177 10.8 8.50177 10.5 8.50177 10.16V10L9.05177 5.5ZM13.0018 5.5H14.9518L15.5018 10C15.5818 10.42 15.5018 10.77 15.2118 11.07C14.9518 11.37 14.6118 11.5 14.2018 11.5C13.8918 11.5 13.6118 11.38 13.3618 11.12C13.1118 10.85 13.0018 10.55 13.0018 10.2V5.5ZM7.45177 12.55C8.08177 13.17 8.86177 13.5 9.80177 13.5C10.6418 13.5 11.3818 13.17 12.0018 12.55C12.6918 13.17 13.4518 13.5 14.3018 13.5C15.1718 13.5 15.9218 13.17 16.5518 12.55C17.1118 13.17 17.8618 13.5 18.8018 13.5H19.0318V19.5H5.00177V13.5H5.25177C6.16177 13.5 6.89177 13.17 7.45177 12.55Z" fill="#5F5E5B"/>
</g>
</svg>
