<svg width="20" height="20" viewBox="0 0 20 20" fill="none" xmlns="http://www.w3.org/2000/svg">
<g id="Icon / Star">
<mask id="mask0_3507_8555" style="mask-type:alpha" maskUnits="userSpaceOnUse" x="2" y="2" width="16" height="15">
<path id="Vector" d="M10.4002 14.9975C10.1543 14.8679 9.86044 14.8678 9.61444 14.9971L6.30687 16.7361C5.68804 17.0615 4.96476 16.536 5.08297 15.8469L5.71483 12.1634C5.76181 11.8896 5.67092 11.6102 5.47182 11.4164L2.79278 8.8086C2.29151 8.32066 2.56784 7.46971 3.26016 7.36937L6.95572 6.83378C7.23058 6.79395 7.46822 6.62136 7.59114 6.3723L9.24511 3.02095C9.55452 2.39401 10.4485 2.39401 10.7579 3.02095L12.4119 6.3723C12.5348 6.62136 12.7725 6.79395 13.0473 6.83378L16.7429 7.36937C17.4352 7.46971 17.7115 8.32066 17.2102 8.8086L14.5312 11.4164C14.3321 11.6102 14.2412 11.8896 14.2882 12.1634L14.9197 15.8449C15.038 16.5344 14.314 17.0599 13.6951 16.7338L10.4002 14.9975Z" fill="black"/>
</mask>
<g mask="url(#mask0_3507_8555)">
<rect id="Color" width="20" height="20" fill="#FEFAF2"/>
</g>
</g>
</svg>
