<svg width="25" height="24" viewBox="0 0 25 24" fill="none" xmlns="http://www.w3.org/2000/svg">
<g id="Desktop / icon / search">
<path id="Vector" d="M10 3C11.7239 3 13.3772 3.68482 14.5962 4.90381C15.8152 6.12279 16.5 7.77609 16.5 9.5C16.5 11.11 15.91 12.59 14.94 13.73L15.21 14H16L21 19L19.5 20.5L14.5 15.5V14.71L14.23 14.44C13.09 15.41 11.61 16 10 16C8.27609 16 6.62279 15.3152 5.40381 14.0962C4.18482 12.8772 3.5 11.2239 3.5 9.5C3.5 7.77609 4.18482 6.12279 5.40381 4.90381C6.62279 3.68482 8.27609 3 10 3ZM10 5C7.5 5 5.5 7 5.5 9.5C5.5 12 7.5 14 10 14C12.5 14 14.5 12 14.5 9.5C14.5 7 12.5 5 10 5Z" fill="#272725"/>
</g>
</svg>
