<svg width="20" height="21" viewBox="0 0 20 21" fill="none" xmlns="http://www.w3.org/2000/svg">
<g id="Desktop / icon / search">
<path id="Vector" d="M7.91667 3C9.35326 3 10.731 3.57068 11.7468 4.5865C12.7627 5.60233 13.3333 6.98008 13.3333 8.41667C13.3333 9.75833 12.8417 10.9917 12.0333 11.9417L12.2583 12.1667H12.9167L17.0833 16.3333L15.8333 17.5833L11.6667 13.4167V12.7583L11.4417 12.5333C10.4917 13.3417 9.25833 13.8333 7.91667 13.8333C6.48008 13.8333 5.10233 13.2627 4.0865 12.2468C3.07068 11.231 2.5 9.85326 2.5 8.41667C2.5 6.98008 3.07068 5.60233 4.0865 4.5865C5.10233 3.57068 6.48008 3 7.91667 3ZM7.91667 4.66667C5.83333 4.66667 4.16667 6.33333 4.16667 8.41667C4.16667 10.5 5.83333 12.1667 7.91667 12.1667C10 12.1667 11.6667 10.5 11.6667 8.41667C11.6667 6.33333 10 4.66667 7.91667 4.66667Z" fill="#272725"/>
</g>
</svg>
