<svg width="20" height="20" viewBox="0 0 20 20" fill="none" xmlns="http://www.w3.org/2000/svg">
<g id="Desktop / icon / location">
<path id="Vector" d="M10.0013 9.58317C9.44877 9.58317 8.91886 9.36368 8.52816 8.97298C8.13746 8.58228 7.91797 8.05237 7.91797 7.49984C7.91797 6.9473 8.13746 6.4174 8.52816 6.0267C8.91886 5.636 9.44877 5.4165 10.0013 5.4165C10.5538 5.4165 11.0837 5.636 11.4744 6.0267C11.8651 6.4174 12.0846 6.9473 12.0846 7.49984C12.0846 7.77342 12.0307 8.04433 11.9261 8.29709C11.8214 8.54986 11.6679 8.77952 11.4744 8.97298C11.281 9.16643 11.0513 9.31989 10.7986 9.42459C10.5458 9.52928 10.2749 9.58317 10.0013 9.58317ZM10.0013 1.6665C8.45421 1.6665 6.97047 2.28109 5.87651 3.37505C4.78255 4.46901 4.16797 5.95274 4.16797 7.49984C4.16797 11.8748 10.0013 18.3332 10.0013 18.3332C10.0013 18.3332 15.8346 11.8748 15.8346 7.49984C15.8346 5.95274 15.2201 4.46901 14.1261 3.37505C13.0321 2.28109 11.5484 1.6665 10.0013 1.6665Z" fill="#504F4E"/>
</g>
</svg>
