<svg width="32" height="32" viewBox="0 0 32 32" fill="none" xmlns="http://www.w3.org/2000/svg">
<g id="Desktop / icon / account">
<path d="M0 16C0 7.16344 7.16344 0 16 0C24.8366 0 32 7.16344 32 16C32 24.8366 24.8366 32 16 32C7.16344 32 0 24.8366 0 16Z" fill="#272725"/>
<path id="Vector" d="M16.0002 5.3335C17.4146 5.3335 18.7712 5.8954 19.7714 6.89559C20.7716 7.89579 21.3335 9.25234 21.3335 10.6668C21.3335 12.0813 20.7716 13.4379 19.7714 14.4381C18.7712 15.4383 17.4146 16.0002 16.0002 16.0002C14.5857 16.0002 13.2291 15.4383 12.2289 14.4381C11.2287 13.4379 10.6668 12.0813 10.6668 10.6668C10.6668 9.25234 11.2287 7.89579 12.2289 6.89559C13.2291 5.8954 14.5857 5.3335 16.0002 5.3335ZM16.0002 18.6668C21.8935 18.6668 26.6668 21.0535 26.6668 24.0002V26.6668H5.3335V24.0002C5.3335 21.0535 10.1068 18.6668 16.0002 18.6668Z" fill="#FEFAF2"/>
</g>
</svg>
