<svg width="24" height="24" viewBox="0 0 24 24" fill="none" xmlns="http://www.w3.org/2000/svg">
<g id="Icon / Star">
<mask id="mask0_5983_9278" style="mask-type:alpha" maskUnits="userSpaceOnUse" x="2" y="2" width="20" height="19">
<path id="Vector" d="M12.3999 17.9555C12.1541 17.8259 11.8602 17.8258 11.6142 17.9551L7.26391 20.2423C6.64508 20.5677 5.9218 20.0422 6.04 19.3531L6.87105 14.5085C6.91802 14.2347 6.82713 13.9553 6.62804 13.7615L3.10431 10.3315C2.60303 9.84351 2.87937 8.99257 3.57168 8.89223L8.43292 8.18771C8.70778 8.14787 8.94542 7.97528 9.06834 7.72622L11.2437 3.3185C11.5531 2.69156 12.4471 2.69156 12.7565 3.3185L14.9318 7.72622C15.0547 7.97528 15.2923 8.14787 15.5672 8.18771L20.4284 8.89223C21.1208 8.99257 21.3971 9.84351 20.8958 10.3315L17.3721 13.7615C17.173 13.9553 17.0821 14.2347 17.1291 14.5085L17.9598 19.3511C18.078 20.0406 17.354 20.5661 16.7352 20.24L12.3999 17.9555Z" fill="black"/>
</mask>
<g mask="url(#mask0_5983_9278)">
<rect id="Color" width="24" height="24" fill="#D1D1D0"/>
</g>
</g>
</svg>
