<svg width="24" height="25" viewBox="0 0 24 25" fill="none" xmlns="http://www.w3.org/2000/svg">
<g id="Desktop / icon / calendar-month">
<path id="Vector" d="M9 10.5V12.5H7V10.5H9ZM13 10.5V12.5H11V10.5H13ZM17 10.5V12.5H15V10.5H17ZM19 3.5C19.5304 3.5 20.0391 3.71071 20.4142 4.08579C20.7893 4.46086 21 4.96957 21 5.5V19.5C21 20.0304 20.7893 20.5391 20.4142 20.9142C20.0391 21.2893 19.5304 21.5 19 21.5H5C3.89 21.5 3 20.6 3 19.5V5.5C3 4.96957 3.21071 4.46086 3.58579 4.08579C3.96086 3.71071 4.46957 3.5 5 3.5H6V1.5H8V3.5H16V1.5H18V3.5H19ZM19 19.5V8.5H5V19.5H19ZM9 14.5V16.5H7V14.5H9ZM13 14.5V16.5H11V14.5H13ZM17 14.5V16.5H15V14.5H17Z" fill="#5F5E5B"/>
</g>
</svg>
