<svg width="20" height="21" viewBox="0 0 20 21" fill="none" xmlns="http://www.w3.org/2000/svg">
<g id="radio button">
<path id="Vector" d="M9.99935 17.1666C8.23124 17.1666 6.53555 16.4642 5.2853 15.214C4.03506 13.9638 3.33268 12.2681 3.33268 10.5C3.33268 8.73185 4.03506 7.03616 5.2853 5.78591C6.53555 4.53567 8.23124 3.83329 9.99935 3.83329C11.7675 3.83329 13.4632 4.53567 14.7134 5.78591C15.9636 7.03616 16.666 8.73185 16.666 10.5C16.666 12.2681 15.9636 13.9638 14.7134 15.214C13.4632 16.4642 11.7675 17.1666 9.99935 17.1666ZM9.99935 2.16663C8.905 2.16663 7.82137 2.38217 6.81032 2.80096C5.79927 3.21975 4.88061 3.83358 4.10679 4.6074C2.54399 6.17021 1.66602 8.28982 1.66602 10.5C1.66602 12.7101 2.54399 14.8297 4.10679 16.3925C4.88061 17.1663 5.79927 17.7802 6.81032 18.199C7.82137 18.6177 8.905 18.8333 9.99935 18.8333C12.2095 18.8333 14.3291 17.9553 15.8919 16.3925C17.4547 14.8297 18.3327 12.7101 18.3327 10.5C18.3327 9.40561 18.1171 8.32198 17.6983 7.31093C17.2796 6.29988 16.6657 5.38122 15.8919 4.6074C15.1181 3.83358 14.1994 3.21975 13.1884 2.80096C12.1773 2.38217 11.0937 2.16663 9.99935 2.16663Z" fill="#272725"/>
<path id="Vector_2" d="M10.0007 6.33337C8.89558 6.33337 7.83577 6.77236 7.05437 7.55376C6.27297 8.33516 5.83398 9.39497 5.83398 10.5C5.83398 11.6051 6.27297 12.6649 7.05437 13.4463C7.83577 14.2277 8.89558 14.6667 10.0007 14.6667C11.1057 14.6667 12.1655 14.2277 12.9469 13.4463C13.7283 12.6649 14.1673 11.6051 14.1673 10.5C14.1673 9.39497 13.7283 8.33516 12.9469 7.55376C12.1655 6.77236 11.1057 6.33337 10.0007 6.33337Z" fill="#464644"/>
</g>
</svg>
