<svg width="214" height="143" viewBox="0 0 214 143" fill="none" xmlns="http://www.w3.org/2000/svg">
<path d="M165.622 20.7387C116.96 -10.7955 51.9749 3.1889 20.5183 51.98C8.06921 71.2848 2.31322 94.164 4.14048 117.079L213.049 98.831C210.005 68.0315 193.573 38.8458 165.622 20.7387Z" fill="#84EDE8"/>
<path d="M80.0538 76.7899C84.8024 76.6141 88.5011 72.3955 88.3149 67.3675C88.1287 62.3395 84.1282 58.406 79.3795 58.5819C74.6308 58.7577 70.9322 62.9763 71.1184 68.0043C71.3046 73.0323 75.3051 76.9657 80.0538 76.7899Z" fill="#FFD44A"/>
<path d="M133.587 72.7815C138.335 72.6057 142.042 68.6136 141.866 63.8649C141.691 59.1162 137.698 55.4092 132.95 55.585C128.201 55.7609 124.494 59.753 124.67 64.5017C124.846 69.2504 128.838 72.9574 133.587 72.7815Z" fill="#FFD44A"/>
<path d="M96.2109 62.0099C97.8869 61.9478 99.1869 60.3124 99.1145 58.3571C99.0421 56.4017 97.6247 54.8669 95.9487 54.929C94.2727 54.9911 92.9728 56.6265 93.0452 58.5818C93.1176 60.5372 94.535 62.072 96.2109 62.0099Z" fill="#272725"/>
<path d="M115.438 61.2984C117.114 61.2363 118.413 59.6009 118.341 57.6455C118.269 55.6902 116.851 54.1554 115.175 54.2175C113.499 54.2795 112.199 55.9149 112.272 57.8703C112.344 59.8256 113.762 61.3604 115.438 61.2984Z" fill="#272725"/>
<path d="M106.964 78.8612C111.433 78.6957 115.222 83.0471 115.056 78.5615C114.89 74.0759 111.132 70.5737 106.663 70.7392C102.193 70.9047 98.705 74.6752 98.8711 79.1609C99.0372 83.6465 102.494 79.0267 106.964 78.8612Z" fill="#272725"/>
<ellipse cx="116.5" cy="134" rx="97.5" ry="9" fill="#D9D9D9"/>
</svg>
