<svg width="172" height="107" viewBox="0 0 172 107" fill="none" xmlns="http://www.w3.org/2000/svg">
<g id="logo" clip-path="url(#clip0_4885_24746)">
<path id="Vector" d="M76.6374 3.95836C43.834 11.7045 17.1602 31.6274 0 57.7384L74.3825 106.13C79.7663 98.0193 88.0798 92.3065 97.5815 90.1882C107.083 88.07 117.036 89.7107 125.355 94.7666L172 19.2481C143.493 1.71888 109.195 -3.78024 76.6374 3.95836Z" fill="#D28CF4"/>
<path id="Vector_2" d="M76.0631 45.1017C77.4658 45.1017 78.6029 43.9646 78.6029 42.562C78.6029 41.1593 77.4658 40.0223 76.0631 40.0223C74.6605 40.0223 73.5234 41.1593 73.5234 42.562C73.5234 43.9646 74.6605 45.1017 76.0631 45.1017Z" fill="#272725"/>
<path id="Vector_3" d="M98.11 39.8884C99.5127 39.8884 100.65 38.7513 100.65 37.3487C100.65 35.946 99.5127 34.809 98.11 34.809C96.7074 34.809 95.5703 35.946 95.5703 37.3487C95.5703 38.7513 96.7074 39.8884 98.11 39.8884Z" fill="#272725"/>
<path id="Vector_4" d="M88.7019 52.3227C91.8294 52.3227 94.3648 49.7873 94.3648 46.6598C94.3648 43.5323 91.8294 40.9969 88.7019 40.9969C85.5744 40.9969 83.0391 43.5323 83.0391 46.6598C83.0391 49.7873 85.5744 52.3227 88.7019 52.3227Z" fill="#A8DCD9"/>
<path id="Vector_5" d="M64.2048 63.6723C69.0382 63.6723 72.9565 59.7541 72.9565 54.9206C72.9565 50.0872 69.0382 46.1689 64.2048 46.1689C59.3714 46.1689 55.4531 50.0872 55.4531 54.9206C55.4531 59.7541 59.3714 63.6723 64.2048 63.6723Z" fill="#FFCD00"/>
<path id="Vector_6" d="M110.299 52.7757C115.132 52.7757 119.05 48.8574 119.05 44.024C119.05 39.1905 115.132 35.2723 110.299 35.2723C105.465 35.2723 101.547 39.1905 101.547 44.024C101.547 48.8574 105.465 52.7757 110.299 52.7757Z" fill="#FFCD00"/>
<path id="Vector_7" d="M81.1953 57.426C81.1953 57.426 83.1687 59.0768 84.871 59.5573C86.9097 60.1305 89.7823 59.4509 89.7823 59.4509" stroke="#272725" stroke-width="2.74563" stroke-linecap="round"/>
</g>
<defs>
<clipPath id="clip0_4885_24746">
<rect width="172" height="105.614" fill="white" transform="translate(0 0.526306)"/>
</clipPath>
</defs>
</svg>
