<svg width="527" height="404" viewBox="0 0 527 404" fill="none" xmlns="http://www.w3.org/2000/svg">
<path d="M268.509 56.6067C175.836 57.0198 92.009 93.8086 29.9175 153.037L199.304 328.564C218.743 310.197 244.552 300.059 271.323 300.274C298.094 300.489 323.751 311.041 342.918 329.719L514.565 156.565C449.029 92.0138 360.529 56.0614 268.509 56.6067Z" fill="#D28CF4"/>
<path d="M241.532 165.416C245.018 166.221 248.498 164.048 249.304 160.561C250.109 157.075 247.936 153.595 244.449 152.789C240.963 151.984 237.483 154.157 236.677 157.644C235.872 161.13 238.045 164.61 241.532 165.416Z" fill="#272725"/>
<path d="M303.635 166.465C307.558 167.371 311.391 165.279 312.196 161.793C313.002 158.306 310.475 154.745 306.553 153.838C302.63 152.932 298.797 155.024 297.992 158.51C297.186 161.997 299.713 165.558 303.635 166.465Z" fill="#272725"/>
<path d="M270.726 193.774C279.007 195.687 287.271 190.526 289.185 182.245C291.098 173.964 285.936 165.7 277.655 163.787C269.375 161.873 261.111 167.035 259.197 175.316C257.284 183.597 262.446 191.861 270.726 193.774Z" fill="#A8DCD9"/>
<path d="M198.3 208.626C211.375 211.647 224.423 203.497 227.445 190.422C230.466 177.347 222.316 164.299 209.241 161.277C196.166 158.256 183.118 166.406 180.096 179.481C177.075 192.556 185.225 205.605 198.3 208.626Z" fill="#FFCD00"/>
<path d="M328.33 207.086C341.404 210.107 354.371 202.31 357.292 189.671C360.212 177.032 351.98 164.337 338.906 161.316C325.831 158.294 312.864 166.091 309.943 178.73C307.023 191.369 315.255 204.064 328.33 207.086Z" fill="#FFCD00"/>
<path d="M259.773 219.556C267.182 221.268 271.571 229.655 273.188 222.656C274.805 215.657 270.11 208.596 262.701 206.884C255.292 205.172 247.974 209.458 246.357 216.456C244.74 223.455 252.364 217.844 259.773 219.556Z" fill="#272725"/>
<path d="M397.297 72.1925C393.691 71.458 391.763 67.955 391.165 61.6711C390.895 58.6832 391.054 55.6721 391.636 52.7293C391.9 50.169 392.672 47.6871 393.908 45.4294C395.144 43.1717 396.818 41.1836 398.833 39.5819C399.594 39.2377 400.394 38.9868 401.215 38.8347C401.752 38.8814 402.281 38.9892 402.793 39.1561C403.582 39.3167 407.224 39.589 413.606 39.9498C415.532 40.0143 417.451 40.2285 419.344 40.5903C428.573 42.5207 436.867 47.5431 442.854 54.8271C445.482 57.6326 447.501 60.9523 448.783 64.5769C450.065 68.2015 450.582 72.0524 450.302 75.8868C448.671 83.4176 444.169 90.0163 437.752 94.282C436.169 95.4268 433.615 97.0193 430.066 99.1721C425.036 102.256 421.25 104.712 418.75 106.61C416.866 108.28 414.653 109.538 412.254 110.303C409.854 111.067 407.321 111.322 404.818 111.049C400.761 110.223 399.295 106.755 400.307 101.21C402.06 93.7782 406.071 87.0713 411.788 82.0103C414.689 79.4484 417.408 76.6882 419.926 73.7497C420.815 72.4413 421.451 70.9786 421.802 69.4368C422.029 68.306 421.963 67.1362 421.612 66.0378C421.261 64.9394 420.635 63.9487 419.795 63.1592C418.521 62.0036 416.956 61.2181 415.269 60.8876C412.451 60.3138 409.638 61.7362 406.852 65.0421C404.066 68.348 402.493 70.0229 401.87 70.7763C401.168 71.4731 400.318 72.0021 399.383 72.3239C398.685 72.3648 397.984 72.3207 397.297 72.1925ZM400.43 143.255C392.316 141.602 387.58 138.056 386.122 132.535C385.723 130.893 385.69 129.184 386.027 127.528C386.48 125.327 387.494 123.281 388.97 121.587C390.446 119.893 392.334 118.609 394.452 117.858C398.012 116.426 401.925 116.117 405.665 116.973C408.635 117.306 411.45 118.467 413.791 120.324C416.132 122.181 417.903 124.659 418.902 127.474C419.693 129.671 419.879 132.04 419.442 134.333C419.023 136.665 417.873 138.803 416.158 140.437C414.443 142.072 412.252 143.118 409.903 143.424C406.767 143.965 403.553 143.85 400.464 143.086L400.43 143.255Z" fill="#464644"/>
<ellipse cx="266.599" cy="390.352" rx="152.599" ry="13.3524" fill="#D9D9D9"/>
</svg>
