<svg width="331" height="331" viewBox="0 0 331 331" fill="none" xmlns="http://www.w3.org/2000/svg">
<path d="M165.505 323.146C196.67 323.146 227.135 313.905 253.048 296.591C278.961 279.276 299.157 254.667 311.083 225.874C323.01 197.081 326.13 165.398 320.05 134.832C313.97 104.266 298.963 76.1892 276.926 54.1522C254.889 32.1152 226.812 17.1078 196.246 11.0278C165.68 4.9478 133.997 8.06827 105.204 19.9946C76.4114 31.921 51.8019 52.1175 34.4875 78.0303C17.1731 103.943 7.93164 134.408 7.93164 165.573C7.93164 207.364 24.533 247.444 54.0837 276.994C83.6344 306.545 123.714 323.146 165.505 323.146Z" fill="#FE5B50" stroke="#FE5B50" stroke-width="15.21" stroke-linecap="round"/>
<path d="M165.496 165.582C177.637 165.582 187.474 158.405 187.474 149.552C187.474 140.698 177.637 133.53 165.496 133.53C153.354 133.53 143.526 140.708 143.526 149.552C143.526 158.396 153.363 165.582 165.496 165.582Z" fill="#FF8356"/>
<path d="M230.137 179.965C234.737 179.959 239.232 178.59 243.054 176.031C246.875 173.471 249.853 169.836 251.609 165.585C253.366 161.334 253.823 156.658 252.922 152.147C252.021 147.636 249.804 143.494 246.549 140.243C243.295 136.993 239.15 134.78 234.638 133.884C230.126 132.989 225.45 133.451 221.201 135.213C216.952 136.974 213.321 139.956 210.766 143.781C208.211 147.606 206.847 152.102 206.847 156.702C206.847 159.759 207.45 162.786 208.621 165.61C209.791 168.435 211.507 171 213.67 173.161C215.833 175.321 218.401 177.034 221.226 178.202C224.052 179.369 227.08 179.968 230.137 179.965Z" fill="#FFCD00"/>
<path d="M102.439 186.878C107.235 186.878 111.922 185.456 115.91 182.791C119.897 180.127 123.005 176.341 124.84 171.91C126.675 167.48 127.155 162.605 126.219 157.901C125.284 153.198 122.975 148.878 119.584 145.487C116.193 142.096 111.873 139.787 107.169 138.851C102.466 137.916 97.5909 138.396 93.1605 140.231C88.7301 142.066 84.9433 145.174 82.2791 149.161C79.6149 153.148 78.1929 157.836 78.1929 162.631C78.1929 165.816 78.82 168.968 80.0385 171.91C81.257 174.852 83.043 177.525 85.2944 179.776C87.5459 182.028 90.2188 183.814 93.1605 185.032C96.1022 186.251 99.255 186.878 102.439 186.878Z" fill="#FFCD00"/>
<path d="M189.341 186.687C189.341 178.781 140.311 179.464 141.696 188.8C143.08 198.136 154.985 211.434 167.199 210.131C179.413 208.829 189.332 194.593 189.341 186.687Z" fill="#272725" stroke="#272725" stroke-width="1.76" stroke-linecap="round"/>
<path d="M136.387 132.842C141.572 132.842 145.774 128.64 145.774 123.456C145.774 118.271 141.572 114.069 136.387 114.069C131.203 114.069 127 118.271 127 123.456C127 128.64 131.203 132.842 136.387 132.842Z" fill="#272725"/>
<path d="M191.531 132.842C196.715 132.842 200.918 128.64 200.918 123.456C200.918 118.271 196.715 114.069 191.531 114.069C186.346 114.069 182.144 118.271 182.144 123.456C182.144 128.64 186.346 132.842 191.531 132.842Z" fill="#272725"/>
</svg>
