<svg width="362" height="362" viewBox="0 0 362 362" fill="none" xmlns="http://www.w3.org/2000/svg">
<path d="M181 354C276.545 354 354 276.545 354 181C354 85.4548 276.545 8 181 8C85.4547 8 8 85.4548 8 181C8 276.545 85.4547 354 181 354Z" fill="#FE5B50" stroke="#FE5B50" stroke-width="15.2136" stroke-linecap="round"/>
<path d="M180.996 181.011C194.32 181.011 205.121 173.134 205.121 163.418C205.121 153.701 194.32 145.824 180.996 145.824C167.673 145.824 156.872 153.701 156.872 163.418C156.872 173.134 167.673 181.011 180.996 181.011Z" fill="#FF8356"/>
<path d="M148.478 146.128C153.363 146.128 157.324 142.167 157.324 137.282C157.324 132.397 153.363 128.437 148.478 128.437C143.593 128.437 139.632 132.397 139.632 137.282C139.632 142.167 143.593 146.128 148.478 146.128Z" fill="#272725"/>
<path d="M210.37 146.128C215.255 146.128 219.215 142.167 219.215 137.282C219.215 132.397 215.255 128.437 210.37 128.437C205.484 128.437 201.524 132.397 201.524 137.282C201.524 142.167 205.484 146.128 210.37 146.128Z" fill="#272725"/>
<path d="M251.959 196.8C266.063 196.8 277.496 185.367 277.496 171.263C277.496 157.159 266.063 145.726 251.959 145.726C237.856 145.726 226.422 157.159 226.422 171.263C226.422 185.367 237.856 196.8 251.959 196.8Z" fill="#FFCD00"/>
<path d="M111.763 204.407C126.467 204.407 138.387 192.487 138.387 177.783C138.387 163.079 126.467 151.159 111.763 151.159C97.059 151.159 85.1392 163.079 85.1392 177.783C85.1392 192.487 97.059 204.407 111.763 204.407Z" fill="#FFCD00"/>
<path d="M180.77 206.678V218.632" stroke="#272725" stroke-width="24.9937" stroke-linecap="round"/>
</svg>
