<svg width="565" height="295" viewBox="0 0 565 295" fill="none" xmlns="http://www.w3.org/2000/svg">
<path d="M444.995 51.1785C317.017 -38.4409 140.514 -7.31536 50.8834 120.721C15.4119 171.38 -2.38107 232.314 0.256043 294.101L565 265.84C559.869 182.737 518.505 102.639 444.995 51.1785Z" fill="#84EDE8"/>
<path d="M208.44 192.47C221.733 192.47 232.509 181.694 232.509 168.401C232.509 155.108 221.733 144.332 208.44 144.332C195.147 144.332 184.371 155.108 184.371 168.401C184.371 181.694 195.147 192.47 208.44 192.47Z" fill="#FFD44A"/>
<path d="M353.442 188.948C366.411 188.948 376.924 178.435 376.924 165.466C376.924 152.497 366.411 141.984 353.442 141.984C340.473 141.984 329.96 152.497 329.96 165.466C329.96 178.435 340.473 188.948 353.442 188.948Z" fill="#FFD44A"/>
<path d="M254.113 154.664C258.911 154.664 262.801 150.774 262.801 145.976C262.801 141.178 258.911 137.288 254.113 137.288C249.314 137.288 245.424 141.178 245.424 145.976C245.424 150.774 249.314 154.664 254.113 154.664Z" fill="#272725"/>
<path d="M305.159 154.664C309.957 154.664 313.847 150.774 313.847 145.976C313.847 141.178 309.957 137.288 305.159 137.288C300.36 137.288 296.47 141.178 296.47 145.976C296.47 150.774 300.36 154.664 305.159 154.664Z" fill="#272725"/>
<path d="M280.647 198.341C304.64 198.341 324.089 189.93 324.089 179.555C324.089 169.18 304.64 160.77 280.647 160.77C256.655 160.77 237.206 169.18 237.206 179.555C237.206 189.93 256.655 198.341 280.647 198.341Z" fill="#FF8356"/>
<path d="M251.341 179.555H310.046" stroke="#272725" stroke-width="7" stroke-linecap="round"/>
</svg>
