<svg width="501" height="459" viewBox="0 0 501 459" fill="none" xmlns="http://www.w3.org/2000/svg">
<path d="M213.247 197.294C233.706 195.839 253.997 201.857 270.352 214.23C286.706 226.604 298.012 244.491 302.168 264.569C304.676 276.931 304.356 289.701 301.23 301.922C298.105 314.143 292.255 325.5 284.119 335.142L437.443 458.996C461.943 429.124 480 394.512 490.483 357.332C500.965 320.151 503.645 281.207 498.355 242.942C477.519 91.4938 337.693 -16.3072 185.847 2.03276C112.684 10.8038 45.9194 48.0209 0 105.63L153.228 229.401C160.438 220.16 169.503 212.529 179.84 207C190.176 201.47 201.556 198.164 213.247 197.294Z" fill="#B8E38D"/>
<path d="M149 75C153.971 75 158 70.9706 158 66C158 61.0294 153.971 57 149 57C144.029 57 140 61.0294 140 66C140 70.9706 144.029 75 149 75Z" fill="#272725"/>
<path d="M186 75C190.971 75 195 70.9706 195 66C195 61.0294 190.971 57 186 57C181.029 57 177 61.0294 177 66C177 70.9706 181.029 75 186 75Z" fill="#272725"/>
<path d="M200.767 141.44C199.23 134.219 155.08 144.535 158.153 152.788C161.226 161.042 174.579 170.836 185.361 167.232C196.144 163.628 202.303 148.662 200.767 141.44Z" fill="#272725" stroke="#272725" stroke-width="1.76" stroke-linecap="round"/>
<path d="M153.5 128C168.136 128 180 119.27 180 108.5C180 97.7304 168.136 89 153.5 89C138.864 89 127 97.7304 127 108.5C127 119.27 138.864 128 153.5 128Z" fill="#FF8356"/>
</svg>
