<svg width="63" height="25" viewBox="0 0 63 25" fill="none" xmlns="http://www.w3.org/2000/svg">
<g id="Desktop / logo / Chinese">
<path id="Vector" d="M27.7725 1.82463H24.3252L24.3164 1.83341L24.1936 10.1404L18.8515 5.31586L20.062 8.96498L16.869 9.0527L16.8954 5.29832L20.9392 5.25446L17.6234 0.912354L9.02693 5.40358L12.6497 5.39481L12.7199 9.15797L8.31641 9.26323L8.34272 10.4036L12.7462 10.272L12.7989 12.5264L12.8252 13.3597L9.88658 18.4387H12.9304L13.062 24.0615L16.7901 23.9913L16.8252 18.4387H19.9568L16.869 13.0878V12.5001V10.1667L20.4217 10.0702L21.7638 14.1317L24.1761 11.2808L24.1147 15.6229L20.334 24.1404L26.2725 18.4738L31.5971 24.1755L34.6059 20.4124L27.0094 16.3422L27.7725 1.82463Z" fill="#FF8356"/>
<path id="Vector_2" d="M60.8594 4.88596L60.798 3.70175L54.8418 3.86842L56.7366 0.929824L52.4383 0L51.8594 8.42982L54.0085 5.11403L60.8594 4.88596Z" fill="#FF8356"/>
<path id="Vector_3" d="M51.5263 15.035L54.0439 14.9736L54.1579 18.7368L52.7281 20.4561L57.807 20.1315L57.7281 14.9122L60.7895 14.8245L60.7632 13.614L57.7281 13.6929L57.7193 13.2455V11.5526L60.7895 9.34203L58.1403 7.21045L52.9386 7.32448V8.42098L57.2456 8.30694L56.2632 10.9648H53.9123V13.7894L51.5 13.842L51.5263 15.0613V15.035Z" fill="#FF8356"/>
<path id="Vector_4" d="M41.6591 7.54374V7.55251L43.2293 7.51742L42.9925 15.7455L42.6504 20.6578L45.5276 20.5613L46.5012 10.9648L47.2381 10.9122L46.8872 19.342L46.1854 20.4736L50.317 20.3683L50.4398 9.75426L46.6328 9.91216L46.8697 7.41216L50.3346 7.33321L50.2732 6.17531L48.0188 6.23672L48.0012 1.56128L44.2907 1.65777L44.4135 6.30689L41.6328 6.38584L41.6591 7.54374Z" fill="#FF8356"/>
<path id="Vector_5" d="M43.3405 21.6667L40.1124 19.8772L40.6562 9.88599L34.1562 10.2105V10.6842L34.2615 11.8421L36.2703 11.7369L36.5773 19.6404L34.937 24.1579L38.7352 21.4386L42.6913 23.9649L62.8668 23.9474L62.9984 21.1491L43.3405 21.6667Z" fill="#FF8356"/>
<path id="Vector_6" d="M6.84211 13.2281V12.807L6.88596 8.48246L9.24561 8.35088V7.21053L6.88596 7.31579L6.9386 1.3772L3.15789 1.50878L3.21053 7.5L0.587719 7.62281V8.86842L3.23684 8.71053L3.28947 13.9211V14.1754L0 15.0614L3.31579 16.9737V17.3246L3.36842 21.9912L0.982456 23.9912L6.76316 23.8246L6.82456 16.7719L9.24561 12.579L6.84211 13.2281Z" fill="#FF8356"/>
<path id="Vector_7" d="M35.1672 4.66068L29.0977 6.09546L29.5497 8.00767L35.6192 6.57289L35.1672 4.66068Z" fill="#247CBC"/>
<path id="Vector_8" d="M34.0246 9.14793L32.5898 3.07837L30.6776 3.5304L32.1124 9.59996L34.0246 9.14793Z" fill="#247CBC"/>
<path id="Vector_9" d="M39.5481 7.83958L38.1133 1.77002L36.2011 2.22205L37.6359 8.29161L39.5481 7.83958Z" fill="#247CBC"/>
</g>
</svg>
