<svg width="24" height="24" viewBox="0 0 24 24" fill="none" xmlns="http://www.w3.org/2000/svg">
<g id="Desktop / icon / food-fork-drink">
<path id="Vector" d="M3 3.00002C2.73478 3.00002 2.48043 3.10538 2.29289 3.29291C2.10536 3.48045 2 3.7348 2 4.00002V8.00002V9.50002C2 11.19 3.03 12.63 4.5 13.22V19.5C4.5 19.8978 4.65804 20.2794 4.93934 20.5607C5.22064 20.842 5.60218 21 6 21C6.39782 21 6.77936 20.842 7.06066 20.5607C7.34196 20.2794 7.5 19.8978 7.5 19.5V13.22C8.97 12.63 10 11.19 10 9.50002V8.00002V4.00002C10 3.7348 9.89464 3.48045 9.70711 3.29291C9.51957 3.10538 9.26522 3.00002 9 3.00002C8.73478 3.00002 8.48043 3.10538 8.29289 3.29291C8.10536 3.48045 8 3.7348 8 4.00002V8.00002C8 8.13263 7.94732 8.25981 7.85355 8.35357C7.75979 8.44734 7.63261 8.50002 7.5 8.50002C7.36739 8.50002 7.24021 8.44734 7.14645 8.35357C7.05268 8.25981 7 8.13263 7 8.00002V4.00002C7 3.7348 6.89464 3.48045 6.70711 3.29291C6.51957 3.10538 6.26522 3.00002 6 3.00002C5.73478 3.00002 5.48043 3.10538 5.29289 3.29291C5.10536 3.48045 5 3.7348 5 4.00002V8.00002C5 8.13263 4.94732 8.25981 4.85355 8.35357C4.75979 8.44734 4.63261 8.50002 4.5 8.50002C4.36739 8.50002 4.24021 8.44734 4.14645 8.35357C4.05268 8.25981 4 8.13263 4 8.00002V4.00002C4 3.7348 3.89464 3.48045 3.70711 3.29291C3.51957 3.10538 3.26522 3.00002 3 3.00002ZM19.88 3.00002C19.75 3.00002 19.62 3.09002 19.5 3.16002L16 5.25002V9.00002H12V11H13L14 21H20L21 11H22V9.00002H18V6.34002L20.5 4.84002C21 4.56002 21.13 4.00002 20.84 3.50002C20.63 3.14002 20.26 2.95002 19.88 3.00002Z" fill="#504F4E"/>
</g>
</svg>
