<svg width="24" height="24" viewBox="0 0 24 24" fill="none" xmlns="http://www.w3.org/2000/svg">
<g id="Desktop / icon / wifi">
<path id="Vector" d="M11.9992 21L15.5992 16.2C14.5992 15.45 13.3492 15 11.9992 15C10.6492 15 9.39922 15.45 8.39922 16.2L11.9992 21ZM11.9992 3C7.94922 3 4.20922 4.34 1.19922 6.6L2.99922 9C5.49922 7.12 8.61922 6 11.9992 6C15.3792 6 18.4992 7.12 20.9992 9L22.7992 6.6C19.7892 4.34 16.0492 3 11.9992 3ZM11.9992 9C9.29922 9 6.80922 9.89 4.79922 11.4L6.59922 13.8C8.09922 12.67 9.96922 12 11.9992 12C14.0292 12 15.8992 12.67 17.3992 13.8L19.1992 11.4C17.1892 9.89 14.6992 9 11.9992 9Z" fill="#504F4E"/>
</g>
</svg>
