<svg width="227" height="154" viewBox="0 0 227 154" fill="none" xmlns="http://www.w3.org/2000/svg">
<g id="Desktop / &#230;&#136;&#144;&#229;&#138;&#159;&#233;&#150;&#139;&#229;&#156;&#152;" clip-path="url(#clip0_5584_88192)">
<path id="Vector" d="M156.601 3.03103L120.543 98.5566L121.883 99.0625L157.941 3.53689L156.601 3.03103Z" fill="#554644"/>
<path id="Vector_2" d="M156.055 2.23779L139.416 46.324L208.695 43.2797L156.055 2.23779Z" fill="#00B42D"/>
<path id="Vector_3" d="M158.784 25.3139L153.102 27.8818L158.784 40.0436L181.214 29.9125L178.604 24.3379L161.626 32.188L158.784 25.3139Z" fill="#F8FFBF"/>
<path id="Vector_4" d="M79.4827 128.832C106.913 128.832 129.149 106.595 129.149 79.1654C129.149 51.7354 106.913 29.499 79.4827 29.499C52.0528 29.499 29.8164 51.7354 29.8164 79.1654C29.8164 106.595 52.0528 128.832 79.4827 128.832Z" fill="#7DCF8A"/>
<path id="Vector_5" d="M94.5625 73.6421C99.6603 73.6421 103.793 70.6284 103.793 66.9109C103.793 63.1933 99.6603 60.1797 94.5625 60.1797C89.4646 60.1797 85.332 63.1933 85.332 66.9109C85.332 70.6284 89.4646 73.6421 94.5625 73.6421Z" fill="#FF8356"/>
<path id="Vector_6" d="M85.331 58.0205C87.1243 58.0205 88.5781 56.5667 88.5781 54.7734C88.5781 52.9801 87.1243 51.5264 85.331 51.5264C83.5377 51.5264 82.084 52.9801 82.084 54.7734C82.084 56.5667 83.5377 58.0205 85.331 58.0205Z" fill="#272725"/>
<path id="Vector_7" d="M102.009 57.1421C103.802 57.1421 105.256 55.6883 105.256 53.895C105.256 52.1017 103.802 50.6479 102.009 50.6479C100.215 50.6479 98.7617 52.1017 98.7617 53.895C98.7617 55.6883 100.215 57.1421 102.009 57.1421Z" fill="#272725"/>
<path id="Vector_8" d="M115.717 70.9281C116.919 70.9278 118.093 70.5713 119.092 69.9036C120.091 69.2359 120.87 68.287 121.329 67.1769C121.789 66.0667 121.909 64.8452 121.674 63.6668C121.44 62.4884 120.861 61.4059 120.012 60.5564C119.162 59.7068 118.079 59.1283 116.901 58.894C115.722 58.6597 114.501 58.7801 113.391 59.2399C112.281 59.6998 111.332 60.4785 110.664 61.4775C109.997 62.4766 109.641 63.6512 109.641 64.8527C109.641 65.6506 109.798 66.4407 110.103 67.1779C110.409 67.9151 110.856 68.5849 111.42 69.149C111.985 69.7132 112.655 70.1607 113.392 70.4659C114.129 70.7712 114.919 70.9282 115.717 70.9281Z" fill="#FFCD00"/>
<path id="Vector_9" d="M73.1471 72.594C74.4 72.594 75.6247 72.2225 76.6664 71.5264C77.7081 70.8304 78.52 69.841 78.9995 68.6835C79.4789 67.526 79.6044 66.2524 79.36 65.0236C79.1155 63.7948 78.5122 62.6661 77.6263 61.7802C76.7404 60.8943 75.6117 60.2909 74.3829 60.0465C73.1541 59.8021 71.8804 59.9276 70.7229 60.407C69.5654 60.8865 68.5761 61.6984 67.8801 62.7401C67.184 63.7818 66.8125 65.0065 66.8125 66.2594C66.8125 67.9394 67.4799 69.5507 68.6679 70.7386C69.8558 71.9266 71.4671 72.594 73.1471 72.594Z" fill="#FFCD00"/>
<path id="Vector_10" d="M101.156 81.9615C101.735 78.9194 82.8056 75.6114 82.6549 79.3027C82.5043 82.994 86.1247 88.9863 90.926 89.3729C95.7273 89.7596 100.577 85.0036 101.156 81.9615Z" fill="#272725" stroke="#272725" stroke-width="0.194978" stroke-linecap="round"/>
<path id="Vector_11" d="M79.4834 153.193C99.3425 153.193 115.441 151.526 115.441 149.469C115.441 147.412 99.3425 145.744 79.4834 145.744C59.6243 145.744 43.5254 147.412 43.5254 149.469C43.5254 151.526 59.6243 153.193 79.4834 153.193Z" fill="#D8D8D8"/>
<path id="Vector_12" d="M8.22266 34.4535C9.66284 29.383 13.2378 26.9502 13.2378 26.9502L17.6902 29.9269C17.6902 29.9269 14.1119 32.3586 12.6739 37.4292L8.22266 34.4535Z" fill="url(#paint0_linear_5584_88192)"/>
<path id="Vector_13" d="M0 99.5455C3.12409 95.4952 7.22307 94.6001 7.22307 94.6001L10.1566 98.8852C10.1566 98.8852 6.05763 99.7848 2.93465 103.832L0 99.5455Z" fill="url(#paint1_linear_5584_88192)"/>
<path id="Vector_14" d="M29.0452 125.423C27.8011 122.218 28.7073 119.546 28.7073 119.546L32.1948 119.346C32.1948 119.346 31.2874 122.018 32.5327 125.217L29.0452 125.423Z" fill="url(#paint2_linear_5584_88192)"/>
<path id="Vector_15" d="M71.81 144.651C69.7539 142.416 69.6387 139.928 69.6387 139.928L72.4404 138.64C72.4404 138.64 72.5512 141.129 74.6117 143.362L71.81 144.651Z" fill="url(#paint3_linear_5584_88192)"/>
<path id="Vector_16" d="M113.838 136.335C115.278 131.264 118.853 128.832 118.853 128.832L123.305 131.808C123.305 131.808 119.727 134.245 118.289 139.311L113.838 136.335Z" fill="url(#paint4_linear_5584_88192)"/>
<path id="Vector_17" d="M199.104 10.7891C202.229 6.74331 206.327 5.84375 206.327 5.84375L209.261 10.1288C209.261 10.1288 205.162 11.0284 202.038 15.0753L199.104 10.7891Z" fill="url(#paint5_linear_5584_88192)"/>
<path id="Vector_18" d="M223.262 49.3627C222.017 46.1578 222.93 43.4857 222.93 43.4857L226.416 43.2852C226.416 43.2852 225.51 45.9572 226.749 49.1567L223.262 49.3627Z" fill="url(#paint6_linear_5584_88192)"/>
<path id="Vector_19" d="M199.854 76.4838C198.636 72.5155 199.965 69.3804 199.965 69.3804L204.175 69.4479C204.175 69.4479 202.845 72.5842 204.064 76.5514L199.854 76.4838Z" fill="url(#paint7_linear_5584_88192)"/>
<path id="Vector_20" d="M159.811 77.0267C161.251 73.6234 163.955 72.2441 163.955 72.2441L166.792 74.7035C166.792 74.7035 164.091 76.0828 162.648 79.4849L159.811 77.0267Z" fill="url(#paint8_linear_5584_88192)"/>
<path id="Vector_21" d="M126.704 23.2768C123.282 22.0172 121.793 19.4215 121.793 19.4215L124.077 16.5068C124.077 16.5068 125.566 19.1025 128.988 20.3621L126.704 23.2768Z" fill="url(#paint9_linear_5584_88192)"/>
<path id="Vector_22" d="M131.957 5.76073C127.66 6.26036 124.693 4.30947 124.693 4.30947L125.554 0C125.554 0 128.521 1.95089 132.819 1.45126L131.957 5.76073Z" fill="url(#paint10_linear_5584_88192)"/>
</g>
<defs>
<linearGradient id="paint0_linear_5584_88192" x1="5.79079" y1="29.948" x2="4.95149" y2="40.4392" gradientUnits="userSpaceOnUse">
<stop stop-color="#B4DF86"/>
<stop offset="1" stop-color="#84C743"/>
</linearGradient>
<linearGradient id="paint1_linear_5584_88192" x1="-2.34812" y1="97.6473" x2="-3.11084" y2="107.181" gradientUnits="userSpaceOnUse">
<stop stop-color="#FBE422"/>
<stop offset="1" stop-color="#C8D92B"/>
</linearGradient>
<linearGradient id="paint2_linear_5584_88192" x1="22.9956" y1="122.575" x2="22.4915" y2="128.877" gradientUnits="userSpaceOnUse">
<stop stop-color="#F8B54A"/>
<stop offset="1" stop-color="#F8A629"/>
</linearGradient>
<linearGradient id="paint3_linear_5584_88192" x1="64.6493" y1="142.158" x2="64.166" y2="148.199" gradientUnits="userSpaceOnUse">
<stop stop-color="#BE1E68"/>
<stop offset="1" stop-color="#B5188D"/>
</linearGradient>
<linearGradient id="paint4_linear_5584_88192" x1="111.445" y1="132.472" x2="110.606" y2="142.963" gradientUnits="userSpaceOnUse">
<stop stop-color="#B4DF86"/>
<stop offset="1" stop-color="#84C743"/>
</linearGradient>
<linearGradient id="paint5_linear_5584_88192" x1="197.659" y1="9.19392" x2="196.897" y2="18.7279" gradientUnits="userSpaceOnUse">
<stop stop-color="#FBE422"/>
<stop offset="1" stop-color="#C8D92B"/>
</linearGradient>
<linearGradient id="paint6_linear_5584_88192" x1="218.063" y1="46.844" x2="217.559" y2="53.1465" gradientUnits="userSpaceOnUse">
<stop stop-color="#F8B54A"/>
<stop offset="1" stop-color="#F8A629"/>
</linearGradient>
<linearGradient id="paint7_linear_5584_88192" x1="199.234" y1="73.6292" x2="202.69" y2="81.1186" gradientUnits="userSpaceOnUse">
<stop stop-color="#F44274"/>
<stop offset="1" stop-color="#E51F9A"/>
</linearGradient>
<linearGradient id="paint8_linear_5584_88192" x1="160.891" y1="77.5028" x2="163.42" y2="82.983" gradientUnits="userSpaceOnUse">
<stop stop-color="#B5188D"/>
<stop offset="1" stop-color="#4E69AE"/>
</linearGradient>
<linearGradient id="paint9_linear_5584_88192" x1="122.69" y1="20.8117" x2="125.733" y2="27.4048" gradientUnits="userSpaceOnUse">
<stop stop-color="#F44274"/>
<stop offset="1" stop-color="#E51F9A"/>
</linearGradient>
<linearGradient id="paint10_linear_5584_88192" x1="125.936" y1="3.45764" x2="129.262" y2="10.6637" gradientUnits="userSpaceOnUse">
<stop stop-color="#6DD0E7"/>
<stop offset="1" stop-color="#01A7DB"/>
</linearGradient>
<clipPath id="clip0_5584_88192">
<rect width="226.75" height="153.193" fill="white"/>
</clipPath>
</defs>
</svg>
