<svg width="374" height="192" viewBox="0 0 374 192" fill="none" xmlns="http://www.w3.org/2000/svg">
<g clip-path="url(#clip0_5529_27971)">
<path d="M345.071 191.077C344.586 191.079 344.113 190.92 343.726 190.627C343.339 190.333 343.06 189.921 342.93 189.453L331.708 150.47C331.619 150.177 331.601 149.866 331.656 149.565C331.71 149.263 331.836 148.979 332.022 148.735C332.207 148.483 332.449 148.279 332.728 148.137C333.007 147.996 333.315 147.923 333.627 147.923C333.961 147.928 334.29 148.01 334.587 148.163L371.004 167.968C371.394 168.182 371.71 168.506 371.914 168.901C372.118 169.295 372.2 169.742 372.149 170.183C372.094 170.615 371.913 171.021 371.627 171.35C371.341 171.679 370.963 171.915 370.543 172.029L355.777 176.089C355.389 176.189 355.025 176.366 354.708 176.61C354.39 176.855 354.126 177.161 353.931 177.511L346.991 189.914C346.797 190.257 346.515 190.543 346.175 190.741C345.834 190.938 345.447 191.042 345.053 191.04L345.071 191.077Z" fill="#383226"/>
<path d="M333.617 148.846C333.797 148.847 333.974 148.891 334.134 148.975L370.551 168.78C370.777 168.902 370.963 169.089 371.082 169.316C371.202 169.544 371.252 169.802 371.224 170.058C371.196 170.313 371.093 170.555 370.927 170.752C370.761 170.948 370.54 171.091 370.292 171.161L355.526 175.24C355.03 175.377 354.566 175.61 354.16 175.927C353.755 176.244 353.416 176.638 353.164 177.086L346.187 189.453C346.078 189.656 345.916 189.826 345.717 189.943C345.518 190.06 345.291 190.121 345.061 190.117C344.78 190.121 344.505 190.033 344.278 189.866C344.052 189.7 343.886 189.464 343.806 189.194L332.583 150.212C332.537 150.052 332.529 149.884 332.56 149.72C332.59 149.557 332.658 149.403 332.759 149.27C332.859 149.138 332.989 149.03 333.138 148.957C333.287 148.883 333.451 148.845 333.617 148.846ZM333.617 147C333.163 147.002 332.716 147.108 332.31 147.31C331.904 147.511 331.549 147.803 331.273 148.163C331.006 148.52 330.826 148.935 330.746 149.373C330.666 149.812 330.689 150.263 330.811 150.692L342.034 189.73C342.22 190.388 342.617 190.966 343.164 191.376C343.711 191.786 344.377 192.006 345.061 192C345.619 192.007 346.169 191.861 346.65 191.578C347.132 191.295 347.527 190.885 347.792 190.394L354.751 177.991C354.884 177.751 355.063 177.541 355.279 177.373C355.494 177.205 355.742 177.082 356.006 177.012L370.772 172.952C371.379 172.788 371.923 172.446 372.333 171.969C372.744 171.493 373.001 170.904 373.073 170.279C373.144 169.655 373.027 169.023 372.735 168.466C372.443 167.909 371.991 167.453 371.437 167.156L335.001 147.351C334.574 147.125 334.1 147.005 333.617 147Z" fill="#383226"/>
<path d="M340.334 189.268C339.739 189.271 339.159 189.08 338.683 188.724C338.207 188.367 337.86 187.865 337.695 187.293L327.709 153.017C327.557 152.529 327.555 152.007 327.704 151.518C327.853 151.029 328.145 150.596 328.544 150.275C328.942 149.955 329.427 149.761 329.937 149.72C330.446 149.679 330.956 149.793 331.401 150.046L363.48 167.304C363.991 167.552 364.412 167.952 364.686 168.449C364.959 168.946 365.073 169.516 365.01 170.08C364.947 170.644 364.712 171.175 364.335 171.6C363.959 172.025 363.46 172.323 362.908 172.453L349.988 176.145C349.754 176.212 349.535 176.325 349.345 176.477C349.155 176.629 348.997 176.817 348.88 177.031L342.789 187.958C342.556 188.389 342.209 188.748 341.786 188.995C341.363 189.242 340.88 189.369 340.39 189.361L340.334 189.268Z" fill="#FFCF81"/>
<path d="M330.168 151.338C330.33 151.337 330.49 151.381 330.629 151.467L362.727 168.799C362.928 168.904 363.092 169.068 363.198 169.269C363.304 169.47 363.347 169.698 363.321 169.924C363.295 170.149 363.202 170.362 363.053 170.533C362.904 170.705 362.707 170.827 362.487 170.884L349.567 174.576C349.13 174.699 348.723 174.907 348.368 175.189C348.013 175.471 347.718 175.821 347.499 176.219L341.408 187.146C341.313 187.327 341.169 187.477 340.993 187.582C340.817 187.686 340.616 187.739 340.412 187.736C340.164 187.737 339.923 187.656 339.726 187.506C339.529 187.355 339.388 187.145 339.323 186.906L329.263 152.537C329.22 152.396 329.21 152.247 329.235 152.101C329.26 151.956 329.319 151.818 329.407 151.699C329.495 151.581 329.61 151.485 329.742 151.418C329.874 151.352 330.02 151.318 330.168 151.319M330.168 148.108C329.519 148.112 328.881 148.267 328.301 148.558C327.722 148.849 327.217 149.27 326.827 149.787C326.434 150.307 326.169 150.912 326.054 151.554C325.939 152.195 325.976 152.854 326.162 153.479L336.148 187.736C336.384 188.568 336.862 189.31 337.521 189.87C338.18 190.429 338.991 190.779 339.85 190.876C340.709 190.973 341.577 190.812 342.344 190.414C343.112 190.016 343.743 189.399 344.159 188.641L350.25 177.714C350.278 177.674 350.316 177.642 350.36 177.621L363.281 173.93C364.116 173.693 364.863 173.213 365.424 172.55C365.986 171.888 366.338 171.073 366.435 170.21C366.532 169.347 366.37 168.474 365.969 167.703C365.568 166.933 364.947 166.299 364.185 165.882L332.161 148.624C331.55 148.288 330.865 148.11 330.168 148.108Z" fill="#383226"/>
</g>
<path d="M9.80331 172.849C8.8269 172.846 7.86507 172.612 6.99744 172.164C6.12982 171.716 5.38135 171.068 4.81405 170.274C4.24675 169.479 3.87692 168.561 3.73517 167.595C3.59343 166.63 3.68383 165.644 3.99893 164.72L5.88474 159.236L5.17452 158.697C4.50009 158.211 3.93412 157.59 3.51252 156.873C3.09092 156.157 2.82288 155.36 2.72543 154.535L2.06416 149.344C1.95615 148.546 2.00885 147.734 2.21914 146.956C2.42942 146.178 2.79306 145.45 3.28871 144.815L3.6071 144.398L1.15801 126.158C1.04775 125.363 1.09937 124.555 1.30981 123.78C1.52025 123.006 1.88516 122.283 2.38256 121.653C2.86211 120.994 3.46895 120.438 4.16725 120.017C4.86554 119.597 5.64108 119.32 6.44803 119.205L17.4445 117.785L16.9057 113.598C16.801 112.803 16.8554 111.996 17.0656 111.223C17.2758 110.449 17.6377 109.725 18.1302 109.093C18.6127 108.437 19.2204 107.883 19.9181 107.462C20.6159 107.042 21.39 106.764 22.1957 106.645L33.5105 105.2C33.7712 105.176 34.0336 105.176 34.2943 105.2C35.7697 105.196 37.1968 105.726 38.3108 106.693L38.7271 107.061L53.5931 105.127H54.3768C55.8637 105.131 57.2985 105.675 58.4152 106.656C59.532 107.638 60.2551 108.99 60.4506 110.464L61.1363 115.826C61.3458 117.397 60.9327 118.987 59.9852 120.257L59.6914 120.674L61.7486 136.637L62.1894 136.955C62.8604 137.451 63.4236 138.077 63.8446 138.797C64.2656 139.517 64.5358 140.315 64.6385 141.142L65.2998 146.333C65.5031 147.884 65.0995 149.454 64.1732 150.715L63.6834 151.425L67.0876 156.322C67.6801 157.189 68.0426 158.191 68.1412 159.236C68.2397 160.281 68.071 161.334 67.6509 162.296C67.2153 163.266 66.5345 164.105 65.6756 164.732C64.8168 165.359 63.8094 165.751 62.7527 165.871L51.144 167.364C50.8833 167.388 50.621 167.388 50.3603 167.364C49.1967 167.372 48.0561 167.04 47.0785 166.409L46.2213 165.871L45.5111 166.63C44.5381 167.673 43.2289 168.34 41.813 168.515L30.9145 169.935H30.1063C29.0117 169.931 27.9379 169.635 26.996 169.078L26.1878 168.588L25.502 169.274C24.5359 170.238 23.2794 170.857 21.9263 171.037L10.3421 172.53L9.80331 172.849Z" fill="white"/>
<path d="M54.3816 106.449C55.5813 106.439 56.7427 106.87 57.6455 107.66C58.5484 108.45 59.1299 109.543 59.2798 110.733L59.9656 116.095C60.1279 117.343 59.8034 118.606 59.0594 119.621L58.4716 120.429V121.408L60.4064 136.368V137.421L61.2881 138.033C61.8381 138.427 62.3005 138.93 62.6462 139.512C62.9918 140.093 63.2132 140.74 63.2963 141.411L63.9576 146.602C64.1205 147.839 63.8052 149.091 63.0759 150.103L62.0473 151.499L63.0514 152.919L65.9658 157.179C66.4373 157.87 66.724 158.67 66.7985 159.503C66.873 160.335 66.733 161.174 66.3916 161.937C66.0503 162.7 65.5191 163.364 64.8487 163.864C64.1782 164.364 63.3909 164.684 62.5616 164.793L50.9529 166.311H50.3406C49.4117 166.32 48.5006 166.056 47.7201 165.552L45.9813 164.451L44.6097 165.944C43.8333 166.79 42.7844 167.336 41.6464 167.487L30.7234 168.882H30.0866C29.2241 168.873 28.3793 168.637 27.6375 168.197L25.9966 167.217L24.6496 168.588C23.8697 169.354 22.866 169.852 21.7842 170.008L10.1755 171.502H9.53871C8.81522 171.497 8.10177 171.332 7.44964 171.019C6.79752 170.706 6.22288 170.252 5.76709 169.69C5.23448 169.045 4.87608 168.274 4.72603 167.451C4.57597 166.628 4.63928 165.781 4.90993 164.989L6.52634 160.362L7.1141 158.648L5.64466 157.595C5.10476 157.204 4.65031 156.707 4.3092 156.135C3.96809 155.562 3.74748 154.926 3.66087 154.265L2.99964 149.075C2.9166 148.431 2.9626 147.776 3.13499 147.15C3.30738 146.524 3.60269 145.938 4.00374 145.427L4.61601 144.619L4.49359 143.615L2.19143 125.889C2.0369 124.6 2.38801 123.301 3.17105 122.265C3.56505 121.756 4.05553 121.33 4.61444 121.011C5.17335 120.691 5.78974 120.485 6.42835 120.404L16.2247 119.131L18.6738 118.813L18.3554 116.365L17.9881 113.402C17.9278 112.751 17.9986 112.094 18.1963 111.471C18.394 110.847 18.7146 110.27 19.1392 109.772C19.5638 109.275 20.0838 108.867 20.6685 108.574C21.2531 108.281 21.8907 108.108 22.5434 108.065L33.8582 106.596H34.495C35.674 106.596 36.8131 107.022 37.7033 107.795L38.536 108.505L39.6381 108.358L53.9408 106.522H54.5776M54.5776 104.074H53.6224L39.3197 105.91C37.9605 104.736 36.2179 104.1 34.4215 104.123C34.1036 104.098 33.7843 104.098 33.4664 104.123L22.1761 105.592C20.2437 105.842 18.4899 106.849 17.3003 108.392C16.1108 109.934 15.5829 111.886 15.8329 113.818L16.2003 116.781L6.40388 118.054C4.47155 118.304 2.71773 119.311 1.52818 120.854C0.338635 122.397 -0.189214 124.349 0.0607304 126.28L2.36285 144.007C1.76498 144.773 1.32508 145.65 1.06864 146.587C0.812201 147.524 0.744307 148.503 0.868899 149.467L1.53016 154.633C1.67119 155.606 2.00614 156.54 2.51517 157.381C3.0242 158.223 3.69698 158.953 4.49359 159.529L2.90165 164.181C2.49517 165.362 2.39655 166.627 2.6151 167.857C2.83365 169.086 3.36218 170.24 4.15071 171.208C4.83702 172.054 5.70287 172.737 6.68557 173.207C7.66827 173.677 8.74321 173.922 9.83259 173.926C10.1505 173.95 10.4698 173.95 10.7877 173.926L22.3965 172.432C24.0229 172.22 25.5316 171.471 26.6824 170.302C27.8064 170.978 29.0936 171.333 30.405 171.331H31.3602L42.1362 169.935C43.8427 169.721 45.4201 168.915 46.5935 167.658C47.7743 168.4 49.1419 168.791 50.5365 168.784H51.4672L63.0759 167.291C64.3247 167.128 65.5106 166.647 66.5198 165.894C67.529 165.141 68.3277 164.141 68.8391 162.991C69.3506 161.84 69.5577 160.577 69.4405 159.324C69.3233 158.07 68.8859 156.868 68.17 155.832L65.2556 151.572C66.4009 150.026 66.8934 148.091 66.6271 146.186L65.9414 140.995C65.8134 139.993 65.4798 139.027 64.9615 138.159C64.4431 137.291 63.7512 136.54 62.929 135.952L61.9616 128.472L60.9942 120.992C62.1294 119.468 62.6297 117.564 62.3902 115.679L61.7289 110.415C61.5013 108.632 60.6278 106.995 59.2738 105.813C57.9198 104.631 56.1792 103.986 54.3816 104L54.5776 104.074Z" fill="#EA8965"/>
<path d="M21.3948 165.21L9.81059 166.703L13.974 154.461L25.5338 152.968L21.3948 165.21ZM39.6895 149.76L41.3549 162.639L30.4564 164.059L28.7176 151.083L8.78197 153.653L8.09623 148.634L28.0563 146.186L27.689 143.395L9.90853 145.696L7.3125 125.57L24.4562 123.367L23.1337 113.108L34.4485 111.664L34.7669 114.112L54.531 111.664L55.2168 117.026L35.4526 119.474L35.771 121.922L53.5024 119.621L56.0985 139.722L38.6609 141.975L39.0283 144.79L58.7925 142.219L59.4537 147.41L39.6895 149.76ZM43.4366 125.938L18.8722 129.047L19.1661 131.496L43.6571 128.337L43.4366 125.938ZM44.3673 133.283L19.8764 136.441L20.1947 138.89L44.6857 135.731L44.3673 133.283ZM50.686 161.439L43.3387 150.789L54.9964 149.295L62.3437 159.946L50.686 161.439Z" fill="#EA8965"/>
<path d="M104.96 143.178C103.998 143.181 103.049 142.955 102.192 142.517L101.653 142.346L101.09 142.615C100.233 143.053 99.2847 143.279 98.3227 143.276H87.4488C86.3831 143.277 85.3355 143 84.4098 142.472C83.484 141.945 82.7122 141.184 82.1704 140.267C81.6287 139.349 81.3359 138.307 81.3209 137.241C81.306 136.176 81.5694 135.125 82.0852 134.193L86.3222 126.578V125.012L85.7099 124.669C84.7728 124.134 83.9938 123.36 83.4519 122.427C82.91 121.494 82.6244 120.435 82.6241 119.356V113.798C82.6167 112.865 82.8263 111.943 83.2363 111.105L84.2649 109.024L83.7017 108.412C82.6594 107.286 82.0819 105.808 82.0852 104.274V98.618C82.0803 97.7757 82.2521 96.9418 82.5896 96.17C82.927 95.3983 83.4227 94.7059 84.0445 94.1375L84.6323 93.5989L82.3057 87.4289C81.9655 86.5049 81.8542 85.5122 81.9814 84.5358C82.1087 83.5594 82.4706 82.6283 83.0362 81.8222C83.6018 81.0161 84.3544 80.3589 85.2295 79.907C86.1045 79.455 87.0761 79.2217 88.061 79.2269H98.6901C99.7177 79.2314 100.728 79.4922 101.629 79.9859L102.217 80.3042L102.805 79.9859C103.706 79.4922 104.716 79.2314 105.744 79.2269H116.152C117.225 79.2332 118.278 79.5112 119.214 80.0349L119.826 80.4021L120.438 80.0349C121.374 79.5112 122.427 79.2332 123.499 79.2269H133.296C134.234 79.2077 135.165 79.4054 136.014 79.8046C136.864 80.2038 137.61 80.7937 138.194 81.5284C138.443 81.8297 138.656 82.1582 138.831 82.5077L139.174 83.1688H140.447C141.251 83.1688 142.047 83.3271 142.79 83.6347C143.533 83.9423 144.208 84.3932 144.777 84.9616C145.345 85.5299 145.796 86.2047 146.104 86.9473C146.412 87.69 146.57 88.4859 146.57 89.2897V94.872C146.578 96.043 146.247 97.1912 145.615 98.1773L145.321 98.6425V99.1567C145.448 99.6528 145.514 100.163 145.517 100.675V105.571C145.518 106.281 145.394 106.986 145.149 107.653L144.929 108.265L145.321 108.803C146.139 109.861 146.579 111.163 146.57 112.5V118.156C146.573 119.279 146.266 120.38 145.682 121.339C145.099 122.298 144.262 123.078 143.264 123.591L141.01 124.742L143.313 125.795C144.472 126.297 145.441 127.154 146.08 128.243C146.616 129.166 146.898 130.213 146.898 131.279C146.898 132.346 146.616 133.393 146.08 134.315L142.921 139.971C142.385 140.914 141.608 141.699 140.67 142.245C139.733 142.791 138.667 143.08 137.582 143.081L104.96 143.178Z" fill="white"/>
<path d="M133.339 80.4511C134.077 80.4478 134.806 80.6113 135.472 80.9293C136.138 81.2473 136.723 81.7115 137.184 82.2874C137.378 82.5331 137.55 82.7952 137.699 83.0708L138.385 84.393H140.393C141.692 84.393 142.938 84.9089 143.856 85.8272C144.775 86.7455 145.291 87.991 145.291 89.2897V94.872C145.289 95.8069 145.026 96.7227 144.532 97.5162L143.944 98.4222L144.213 99.4505C144.31 99.8513 144.36 100.262 144.36 100.675V105.571C144.36 106.139 144.26 106.703 144.066 107.236L143.626 108.485L144.434 109.538C145.075 110.392 145.419 111.432 145.413 112.5V118.156C145.411 119.051 145.163 119.928 144.697 120.692C144.23 121.456 143.563 122.078 142.768 122.49L138.287 124.938L142.891 127.019C143.816 127.443 144.587 128.145 145.095 129.027C145.525 129.771 145.751 130.616 145.751 131.475C145.751 132.335 145.525 133.179 145.095 133.924L141.911 139.555C141.48 140.302 140.858 140.922 140.11 141.352C139.362 141.782 138.513 142.007 137.65 142.003H104.954C104.19 142.006 103.435 141.83 102.75 141.489L101.624 140.926L100.522 141.489C99.8371 141.83 99.0821 142.006 98.3173 142.003H87.4434C86.5799 142.011 85.7296 141.79 84.9788 141.364C84.2281 140.937 83.6035 140.32 83.1684 139.574C82.7332 138.828 82.5031 137.981 82.5011 137.118C82.4992 136.254 82.7257 135.406 83.1575 134.658L87.2229 127.313L87.5413 126.75V124.204L86.2923 123.518C85.5448 123.087 84.9246 122.465 84.4945 121.717C84.0645 120.969 83.8398 120.121 83.8432 119.258V113.798C83.8402 113.052 84.0077 112.315 84.333 111.643L84.9943 110.297L85.7045 108.803L84.5779 107.579C83.7557 106.675 83.3015 105.496 83.3044 104.274V98.618C83.3066 97.9466 83.4468 97.2828 83.7165 96.6678C83.9861 96.0529 84.3794 95.5 84.8718 95.0434L86.0474 93.9416L85.5086 92.4236L83.5493 87.0127C83.2801 86.2736 83.193 85.4805 83.2953 84.7006C83.3976 83.9207 83.6864 83.1769 84.1371 82.5322C84.5899 81.8881 85.1914 81.3626 85.8906 81.0003C86.5898 80.638 87.3661 80.4496 88.1536 80.4511H98.7827C99.6397 80.4269 100.487 80.6386 101.232 81.0632L102.407 81.6997L103.583 81.0632C104.328 80.6386 105.175 80.4269 106.032 80.4511H116.441C117.301 80.4526 118.146 80.6806 118.89 81.1121L120.114 81.8222L121.339 81.1121C122.083 80.6806 122.928 80.4526 123.788 80.4511H133.584M133.584 78.0027H123.788C122.499 78.0013 121.232 78.339 120.114 78.982C118.997 78.339 117.73 78.0013 116.441 78.0027H106.032C104.799 78.0041 103.586 78.3156 102.505 78.9086C101.427 78.3096 100.212 77.9976 98.9786 78.0027H88.3495C87.1342 77.9698 85.9298 78.2389 84.8441 78.7858C83.7584 79.3328 82.8254 80.1405 82.1288 81.1366C81.4547 82.1023 81.0227 83.2158 80.8693 84.3834C80.7159 85.5509 80.8455 86.7382 81.2472 87.8452L83.2064 93.2561C82.4499 93.9323 81.8418 94.7578 81.4203 95.6807C80.9988 96.6035 80.773 97.6036 80.7573 98.618V104.274C80.7748 106.089 81.4641 107.833 82.6921 109.171L82.0309 110.517C81.5429 111.524 81.2916 112.63 81.2961 113.749V119.209C81.2978 120.501 81.6406 121.771 82.2899 122.888C82.9393 124.006 83.8721 124.933 84.9943 125.575V126.113L80.9288 133.458C80.3059 134.576 79.9858 135.837 80.0005 137.117C80.0151 138.397 80.3639 139.65 81.0122 140.753C81.6605 141.857 82.586 142.772 83.6968 143.407C84.8077 144.043 86.0654 144.378 87.3454 144.378H98.2194C99.3759 144.383 100.517 144.114 101.55 143.595C102.576 144.111 103.708 144.379 104.856 144.378H137.601C138.903 144.376 140.181 144.028 141.304 143.37C142.427 142.711 143.355 141.767 143.993 140.632L147.177 135.001C147.679 134.112 147.99 133.129 148.09 132.113C148.191 131.097 148.078 130.072 147.76 129.102C147.442 128.132 146.926 127.239 146.243 126.48C145.561 125.721 144.728 125.112 143.797 124.693C144.991 124.075 145.993 123.14 146.692 121.992C147.392 120.844 147.763 119.525 147.765 118.181V112.549C147.763 110.949 147.238 109.393 146.271 108.118C146.556 107.333 146.705 106.505 146.711 105.669V100.724C146.712 100.105 146.638 99.4883 146.491 98.8873C147.246 97.7025 147.646 96.3259 147.642 94.921V89.2897C147.642 87.3417 146.868 85.4734 145.49 84.0959C144.112 82.7184 142.243 81.9446 140.295 81.9446H139.756C139.535 81.5252 139.281 81.1241 138.997 80.7449C138.305 79.885 137.429 79.1919 136.432 78.7172C135.436 78.2424 134.345 77.9982 133.241 78.0027H133.584Z" fill="#EA8965"/>
<path d="M137.693 137.058H104.949L100.295 133.605L98.3114 137.058H87.4375L92.3357 128.072V119.258H88.6375V113.798L93.2663 104.274H88.0987V98.618H102.793V106.257L99.3401 113.602H102.793V128.513L103.259 128.929L104.851 123.126V95.8269H103.087V90.2201H106.981L105.855 85.3233H116.263L117.39 90.2201H121.676V93.1581L123.611 85.3478H133.407L132.525 89.2897H140.46V94.872H131.178L130.125 99.0342H120.329L120.99 95.8269H113.643V101.63H121.162V129.419H114.353L112.884 125.599L111.659 129.419H103.944L106.638 131.426H140.754L137.693 137.058ZM92.2622 96.6838L88.1477 85.3478H98.7768L103.014 96.6838H92.2622ZM115.896 107.089H113.765V123.665H115.896V107.089ZM136.468 118.205V129.419H124.223L121.774 123.836H126.672V118.205H122.484V112.549H126.672V110.37L129.244 106.33H122.435V100.724H139.358V105.62L136.37 110.786V112.549H140.411V118.205H136.468Z" fill="#EA8965"/>
<path d="M218.757 177.881C218.521 177.905 218.283 177.905 218.047 177.881L209.279 176.852C208.644 176.779 208.024 176.606 207.442 176.338L207.075 176.191H206.708C206.308 176.228 205.907 176.228 205.508 176.191H204.797L195.981 175.138C195.707 175.113 195.437 175.064 195.172 174.992H194.829H194.046L185.523 173.963C184.354 173.832 183.247 173.364 182.339 172.617L181.727 172.102L180.992 172.445C180.155 172.863 179.233 173.081 178.298 173.082H177.588L167.375 171.882C166.2 171.748 165.089 171.277 164.177 170.525C163.264 169.773 162.589 168.774 162.232 167.646L160.42 161.868C160.115 160.895 160.059 159.861 160.256 158.861C160.452 157.86 160.896 156.925 161.546 156.139C161.69 155.95 161.855 155.778 162.036 155.625L162.673 154.988L162.281 154.18C161.736 153.117 161.523 151.914 161.669 150.728L162.428 144.264C162.545 143.299 162.887 142.375 163.428 141.567C163.968 140.759 164.691 140.09 165.538 139.613L166.102 139.319L166.91 132.292L166.42 131.876C165.648 131.223 165.049 130.39 164.677 129.45C164.305 128.51 164.172 127.493 164.289 126.489L164.926 120.956C165.045 119.951 165.412 118.99 165.993 118.161C166.574 117.333 167.352 116.661 168.257 116.206L168.845 115.888L169.114 113.635C169.288 112.146 170.002 110.773 171.122 109.776C172.241 108.778 173.688 108.226 175.188 108.224H175.898L185.082 109.302C186.034 109.421 186.946 109.759 187.745 110.29C188.544 110.821 189.208 111.53 189.686 112.362L189.98 112.901L191.719 113.121L192.135 112.656C192.708 112.039 193.401 111.547 194.172 111.21C194.943 110.873 195.776 110.698 196.617 110.697H197.328L206.855 111.823C207.377 111.882 207.888 112.014 208.373 112.215H208.691H209.01C209.295 112.19 209.582 112.19 209.867 112.215H210.577L218.88 113.195C220.32 113.357 221.654 114.028 222.642 115.088C223.63 116.148 224.207 117.525 224.268 118.973V119.781L225.027 120.074C226.113 120.494 227.063 121.206 227.77 122.131C228.265 122.803 228.618 123.568 228.807 124.38C228.997 125.193 229.019 126.035 228.872 126.856L225.664 145.048C225.539 145.835 225.258 146.589 224.838 147.266C224.417 147.943 223.865 148.529 223.214 148.99L222.774 149.479L224.978 171.099C225.059 171.998 224.939 172.905 224.625 173.752C224.312 174.599 223.813 175.365 223.166 175.995C222.6 176.596 221.916 177.073 221.158 177.397C220.399 177.722 219.582 177.886 218.757 177.881Z" fill="white"/>
<path d="M175.183 109.449H175.771L184.93 110.526C185.692 110.618 186.421 110.887 187.059 111.313C187.697 111.738 188.226 112.307 188.604 112.974L189.216 114.051L190.465 114.198H190.955L192.18 114.345L193.037 113.439C193.494 112.947 194.047 112.554 194.662 112.284C195.277 112.015 195.941 111.875 196.613 111.872H197.176L206.703 112.999C207.121 113.047 207.532 113.146 207.927 113.292L208.54 113.537H209.176H209.862H210.523L218.801 114.517C219.959 114.65 221.032 115.191 221.827 116.044C222.621 116.896 223.086 118.004 223.136 119.169V120.76L224.63 121.348C225.684 121.76 226.562 122.525 227.115 123.511C227.669 124.497 227.864 125.645 227.667 126.759L224.459 144.974C224.234 146.239 223.522 147.364 222.475 148.108L221.299 148.941L221.446 150.361L223.577 171.27C223.646 171.953 223.57 172.643 223.355 173.295C223.14 173.946 222.79 174.546 222.328 175.054C221.866 175.562 221.302 175.967 220.674 176.243C220.045 176.519 219.365 176.66 218.679 176.656H218.116L209.348 175.628C208.84 175.565 208.344 175.424 207.878 175.212L207.168 174.869L206.384 175.041C206.067 175.065 205.747 175.065 205.429 175.041H204.841L196.025 174.012L195.388 173.89H194.996H194.114L185.592 172.886C184.689 172.754 183.84 172.372 183.143 171.784L181.918 170.78L180.473 171.466C179.807 171.808 179.067 171.985 178.318 171.98H177.755L167.517 170.78C166.58 170.667 165.695 170.286 164.97 169.682C164.244 169.079 163.708 168.278 163.427 167.377L161.542 161.501C161.295 160.719 161.249 159.888 161.407 159.084C161.566 158.28 161.923 157.528 162.448 156.898L162.815 156.506L164.138 155.258L163.329 153.642C162.888 152.791 162.717 151.826 162.84 150.875L163.599 144.411C163.684 143.642 163.95 142.903 164.375 142.256C164.801 141.609 165.374 141.072 166.048 140.69L167.125 140.078L167.272 138.829L167.958 133.1L168.105 131.802L167.101 130.945C166.486 130.422 166.009 129.755 165.715 129.003C165.42 128.251 165.315 127.438 165.411 126.636L166.048 121.078C166.161 120.257 166.481 119.478 166.978 118.814C167.475 118.151 168.133 117.624 168.889 117.283L170.064 116.696L170.211 115.398L170.407 113.758C170.552 112.563 171.131 111.464 172.034 110.669C172.938 109.874 174.102 109.44 175.305 109.449M175.305 107C173.497 106.988 171.747 107.643 170.391 108.84C169.035 110.037 168.169 111.692 167.958 113.488L167.787 115.104C166.701 115.651 165.768 116.458 165.072 117.454C164.375 118.449 163.936 119.602 163.795 120.809L163.133 126.342C162.994 127.548 163.156 128.77 163.605 129.898C164.054 131.026 164.775 132.025 165.705 132.806L165.019 138.56C164.003 139.125 163.136 139.924 162.488 140.89C161.841 141.857 161.433 142.963 161.297 144.118L160.537 150.606C160.366 152.025 160.613 153.463 161.248 154.743C161.041 154.93 160.853 155.135 160.684 155.356C159.904 156.299 159.372 157.423 159.137 158.625C158.902 159.826 158.971 161.067 159.337 162.236L161.125 168.014C161.551 169.368 162.361 170.57 163.457 171.474C164.552 172.378 165.886 172.945 167.297 173.106L177.51 174.306H178.367C179.496 174.307 180.611 174.047 181.624 173.547C182.709 174.458 184.038 175.028 185.445 175.187L193.968 176.191H194.849C195.17 176.29 195.497 176.363 195.829 176.412L204.646 177.44C204.931 177.464 205.218 177.464 205.503 177.44C205.975 177.489 206.451 177.489 206.923 177.44C207.621 177.758 208.365 177.964 209.127 178.052L217.895 179.08H218.752C220.676 179.079 222.523 178.323 223.895 176.975C224.679 176.204 225.279 175.267 225.652 174.233C226.025 173.199 226.161 172.094 226.051 171.001L223.944 150.092C225.525 148.972 226.598 147.273 226.932 145.366L230.116 127.199C230.288 126.215 230.258 125.205 230.026 124.232C229.795 123.26 229.367 122.345 228.769 121.544C227.923 120.429 226.776 119.58 225.463 119.095C225.383 117.359 224.689 115.707 223.505 114.434C222.321 113.161 220.724 112.348 218.997 112.142L210.695 111.162H209.838C209.495 111.137 209.151 111.137 208.809 111.162C208.218 110.933 207.601 110.777 206.972 110.697L197.445 109.595C197.16 109.571 196.873 109.571 196.588 109.595C195.573 109.611 194.573 109.837 193.65 110.258C192.727 110.68 191.901 111.288 191.225 112.044H190.71C190.141 111.04 189.343 110.185 188.382 109.546C187.42 108.908 186.322 108.506 185.175 108.371L176.016 107.294C175.73 107.27 175.444 107.27 175.158 107.294L175.305 107Z" fill="#EA8965"/>
<path d="M180.849 145.293L178.4 167.01L168.187 165.81L166.375 160.032L169.877 160.448L171.126 149.871L167.844 151.463L168.628 144.974L171.885 143.408L173.747 127.591L170.465 127.199L171.126 121.666L174.384 122.033L175.29 114.345L184.449 115.423L183.592 123.11L185.919 123.404L185.257 128.938L182.931 128.668L181.755 138.707L184.327 137.458L183.543 144.069L180.849 145.293ZM184.817 162.431L181.143 161.991L185.209 137.85L188.784 138.266L184.817 162.431ZM202.597 125.877L199.854 125.559L199.193 131.264L202.695 131.68L202.034 137.238L198.532 136.821L194.76 169.066L186.237 168.063L190.009 136.013L184.694 135.401L185.355 129.795L190.67 130.407L191.331 124.702L186.605 124.139L187.217 118.899L195.397 119.854L196.621 116.965L206.148 118.091L202.597 125.877ZM209.944 170.707L209.234 162.627L205.634 170.193L196.817 169.164L199.266 164.268L197.16 164.023L199.021 139.539L202.303 139.931L201.005 160.595L206.295 149.675L209.969 118.459L218.271 119.438L214.671 149.969L216.655 150.19L218.859 171.809L209.944 170.707ZM202.891 142.134L204.581 123.772L207.838 124.139L206.099 142.526L202.891 142.134ZM219.692 144.118L216.018 143.677L219.177 125.485L222.9 125.926L219.692 144.118Z" fill="#EA8965"/>
<path d="M255.188 162.028C253.712 162.019 252.289 161.479 251.179 160.508C250.068 159.538 249.344 158.2 249.138 156.739L242.183 106.033C242.072 105.236 242.12 104.424 242.324 103.645C242.528 102.866 242.884 102.135 243.37 101.494C243.857 100.853 244.466 100.314 245.161 99.9078C245.857 99.5019 246.626 99.2372 247.424 99.1289L297.091 92.3224H297.924C299.402 92.3307 300.828 92.8691 301.943 93.8396C303.058 94.8101 303.787 96.1484 303.998 97.6109L310.929 148.317C311.152 149.924 310.728 151.554 309.75 152.848C308.772 154.143 307.32 154.996 305.712 155.221L256.02 162.028H255.188Z" fill="white"/>
<path d="M297.914 93.4732C299.106 93.4623 300.261 93.8865 301.163 94.6663C302.065 95.446 302.651 96.5278 302.812 97.7089L309.645 148.39C309.819 149.676 309.476 150.978 308.691 152.011C307.906 153.044 306.743 153.723 305.457 153.899L255.765 160.706H255.079C253.887 160.716 252.732 160.292 251.83 159.512C250.928 158.733 250.342 157.651 250.181 156.47L243.373 105.715C243.198 104.428 243.541 103.125 244.328 102.091C245.113 101.06 246.276 100.382 247.56 100.206L297.253 93.4732C297.472 93.4489 297.694 93.4489 297.914 93.4732ZM297.914 91.0248H296.91L247.242 97.8803C245.331 98.1709 243.612 99.2025 242.457 100.751C241.302 102.3 240.804 104.242 241.07 106.156L248.026 156.862C248.27 158.631 249.151 160.251 250.503 161.418C251.855 162.585 253.587 163.22 255.373 163.203C255.707 163.227 256.043 163.227 256.377 163.203L306.045 156.396C307.948 156.078 309.649 155.023 310.781 153.461C311.913 151.899 312.384 149.954 312.094 148.047L305.139 97.3416C304.895 95.5723 304.014 93.9525 302.662 92.7853C301.309 91.6182 299.578 90.9836 297.791 91.0003L297.914 91.0248Z" fill="#EA8965"/>
<path d="M255.182 155.858L248.227 105.152L297.919 98.3699L304.874 149.076L255.182 155.858ZM288.955 104.785L278.473 106.229L278.718 107.968L287.975 106.694L288.539 110.955L279.281 112.228L279.501 113.672L288.392 112.448L290.057 125.302L288.955 125.449L292.139 131.839L289.469 132.206L289.592 133.137L291.575 132.868L292.114 136.76L290.131 137.03L291.184 144.669L279.771 146.236L278.816 145.281L270.709 146.407L265.811 141.314L275.999 139.919L277.91 142.024L280.995 141.608L280.53 138.327L264.072 140.604L263.533 136.687L280.016 134.434L279.795 132.868L285.796 132.035L285.306 131.105L263.264 134.777L262.725 130.933L271.664 129.464L271.444 127.848L262.823 129.024L261.06 116.145L269.681 114.97L269.485 113.525L260.448 114.75L260.08 110.612L269.093 109.388L268.848 107.649L258.611 109.045L264.146 149.516L294.49 145.354L288.955 104.785ZM270.464 118.496L267.77 118.863L268.015 120.405L270.709 120.038L270.464 118.496ZM271.028 122.682L268.358 123.05L268.579 124.739L271.272 124.372L271.028 122.682ZM282.734 116.806L280.065 117.173L280.285 118.814L282.979 118.447L282.734 116.806ZM283.322 120.993L280.653 121.36L280.873 123.05L283.542 122.682L283.322 120.993ZM282.93 126.33L281.363 126.551L281.534 127.873L283.567 127.481L282.93 126.33Z" fill="#EA8965"/>
<path d="M112.828 21.4782H69.1719C65.7633 21.4782 63 24.1809 63 27.5149V32.4851C63 35.819 65.7633 38.5217 69.1719 38.5217H112.828C116.237 38.5217 119 35.819 119 32.4851V27.5149C119 24.1809 116.237 21.4782 112.828 21.4782Z" fill="#EA8965" stroke="white" stroke-width="2.43478"/>
<path d="M69.082 32.4348V27.5652H112.908V32.4348H69.082Z" fill="white"/>
<path d="M145.418 57.9999C144.273 58.0022 143.149 57.6875 142.172 57.0907C141.189 57.6912 140.058 58.006 138.906 57.9999H133.263C132.407 57.9867 131.562 57.7962 130.783 57.4406C130.004 57.0849 129.307 56.5718 128.736 55.9335C128.153 55.3147 127.704 54.5826 127.416 53.7828C127.128 52.9829 127.007 52.1324 127.062 51.2841L128.385 31.7979C127.489 30.6934 127 29.3145 127 27.8924V23.3876C127.005 21.9726 127.493 20.6017 128.385 19.5027C128.261 19.0236 128.198 18.5306 128.199 18.0356V13.4068C128.191 11.8647 128.759 10.375 129.791 9.22872C130.823 8.08243 132.245 7.36183 133.78 7.20763C134.017 5.74429 134.771 4.41436 135.905 3.45901C137.039 2.50366 138.478 1.98614 139.961 2.00028H148.642C149.502 2.01067 150.35 2.19975 151.133 2.55549C151.916 2.91123 152.617 3.42586 153.19 4.06669C154.078 3.58653 155.074 3.3378 156.084 3.34345H176.527C178.172 3.34345 179.749 3.99658 180.912 5.15916C182.075 6.32174 182.728 7.89853 182.728 9.54267V30.7647C182.708 32.2994 182.119 33.772 181.075 34.8975C181.975 35.388 182.736 36.099 183.286 36.9639C183.842 37.8591 184.16 38.8809 184.21 39.933C184.261 40.9851 184.042 42.0328 183.576 42.9771L183.121 43.907C183.673 44.8082 183.986 45.8357 184.03 46.8917C184.073 47.9478 183.846 48.9975 183.369 49.9409L181.095 54.549C180.583 55.5853 179.79 56.4577 178.808 57.0675C177.825 57.6773 176.691 58.0003 175.535 57.9999H145.418Z" fill="#EA8965" stroke="white" stroke-width="2.43478"/>
<path d="M175.586 51.913H145.363L139.118 47.9251L138.806 51.913H133.124L134.518 31.1424H140.263L139.472 42.5662L141.408 43.8125V27.9852H133.082V23.3534H139.868V17.9738H134.268V13.3212H139.868V8.08694H148.61V13.3212H153.855V17.9738H148.548V23.3534H154.959V27.9852H150.005V34.2164H154.75V38.9106H150.005V47.385H177.876L175.586 51.913ZM175.836 45.0795H156.041V9.3955H176.627V30.7685H164.492V40.4476H178.126L175.836 45.0795ZM168.03 14.0689H164.492V26.0328H168.03V14.0689Z" fill="white"/>
<path d="M233.569 57.9999C232.053 57.9965 230.591 57.4335 229.464 56.4187C228.337 57.4335 226.875 57.9965 225.359 57.9999H216.164C214.761 58.0012 213.4 57.523 212.306 56.6446C211.206 57.5275 209.836 58.0059 208.426 57.9999H198.39C197.351 58.0023 196.329 57.7416 195.418 57.2422C194.507 56.7428 193.737 56.0209 193.179 55.1437C192.622 54.2665 192.296 53.2625 192.231 52.2251C192.166 51.1878 192.364 50.1508 192.807 49.2108L196.789 40.7502C195.232 40.2757 193.926 39.2035 193.157 37.7681C192.387 36.3327 192.217 34.6509 192.684 33.0905L195.886 22.638C194.871 22.1217 194.02 21.334 193.425 20.3625C192.831 19.3909 192.518 18.2736 192.52 17.1346V12.2677C192.52 10.6338 193.169 9.06681 194.323 7.91147C195.478 6.75614 197.044 6.10707 198.677 6.10707H210.274C210.697 4.90873 211.481 3.87077 212.517 3.13548C213.553 2.40019 214.791 2.00357 216.062 2H225.236C226.503 2.00779 227.736 2.40637 228.768 3.14137C229.801 3.87637 230.581 4.91202 231.003 6.10707H242.415C244.048 6.10707 245.614 6.75614 246.769 7.91147C247.923 9.06681 248.572 10.6338 248.572 12.2677V17.1346C248.574 18.2297 248.284 19.3055 247.732 20.2512C247.18 21.1968 246.386 21.9782 245.432 22.5148L248.736 33.0289C249.029 33.9527 249.1 34.9325 248.943 35.8888C248.786 36.845 248.406 37.7508 247.833 38.5324C247.045 39.5875 245.947 40.37 244.693 40.7708L248.798 49.1081C249.262 50.046 249.479 51.0865 249.429 52.1316C249.38 53.1767 249.065 54.192 248.514 55.0816C247.964 55.9713 247.196 56.706 246.284 57.2166C245.371 57.7272 244.343 57.9968 243.297 57.9999H233.569Z" fill="#EA8965" stroke="white" stroke-width="2.43478"/>
<path d="M208.354 51.913H198.301L205.352 36.8922H215.426L208.354 51.913ZM235.203 34.9142L233.826 30.443L232.346 34.9142H225.294V51.913H216.104V34.9142H209.752L208.272 30.5048L206.935 34.9142H198.589L203.481 18.8838H211.808L210.43 23.6022H213.596L216.104 31.0817V17.0912H198.691V12.2079H216.104V8.08694H225.294V12.2079H242.501V17.0912H225.294V31.5144L229.241 18.8632H237.465L235.882 23.4374H239.294L242.892 34.9142H235.203ZM233.538 51.913L226.075 36.8922H235.882L243.344 51.913H233.538Z" fill="white"/>
<defs>
<clipPath id="clip0_5529_27971">
<rect width="47.0857" height="45" fill="white" transform="translate(326 147)"/>
</clipPath>
</defs>
</svg>
