<svg width="376" height="626" viewBox="0 0 376 626" fill="none" xmlns="http://www.w3.org/2000/svg">
<ellipse cx="188" cy="296.5" rx="452" ry="329.5" fill="#FFE6BD"/>
<path d="M52.9539 185L-44 223.172L-23.9539 274.088L73 235.916L52.9539 185Z" fill="#4BC58C"/>
<path d="M37.6892 225.798C40.5703 225.798 42.9058 224.095 42.9058 221.994C42.9058 219.893 40.5703 218.189 37.6892 218.189C34.8082 218.189 32.4727 219.893 32.4727 221.994C32.4727 224.095 34.8082 225.798 37.6892 225.798Z" fill="#FF8356"/>
<path d="M23.4226 223.596C26.083 223.596 28.2397 221.439 28.2397 218.779C28.2397 216.119 26.083 213.962 23.4226 213.962C20.7622 213.962 18.6055 216.119 18.6055 218.779C18.6055 221.439 20.7622 223.596 23.4226 223.596Z" fill="#FFD44A"/>
<path d="M52.4496 222.891C55.0451 222.891 57.1492 220.787 57.1492 218.192C57.1492 215.596 55.0451 213.492 52.4496 213.492C49.8541 213.492 47.75 215.596 47.75 218.192C47.75 220.787 49.8541 222.891 52.4496 222.891Z" fill="#FFD44A"/>
<path d="M32.5709 216.03C33.5312 216.03 34.3098 215.252 34.3098 214.292C34.3098 213.331 33.5312 212.553 32.5709 212.553C31.6105 212.553 30.832 213.331 30.832 214.292C30.832 215.252 31.6105 216.03 32.5709 216.03Z" fill="#272725"/>
<path d="M42.7896 216.03C43.75 216.03 44.5285 215.252 44.5285 214.292C44.5285 213.331 43.75 212.553 42.7896 212.553C41.8293 212.553 41.0508 213.331 41.0508 214.292C41.0508 215.252 41.8293 216.03 42.7896 216.03Z" fill="#272725"/>
<path d="M31.4927 226.135C31.4927 226.135 31.213 227.265 30.7055 227.749C30.1979 228.233 29.1875 228.454 29.1875 228.454" stroke="#272725" stroke-width="1.40989" stroke-linecap="round"/>
<path d="M31.0156 227.945C31.0156 227.945 32.2657 228.756 33.1704 228.993C34.0751 229.231 35.5625 229.132 35.5625 229.132" stroke="#272725" stroke-width="1.40989" stroke-linecap="round"/>
<path d="M63 187.384C63 182.201 67.2013 178 72.3838 178V178C77.5664 178 81.7676 182.201 81.7676 187.384V187.384C81.7676 192.566 77.5664 196.768 72.3838 196.768V196.768C67.2013 196.768 63 192.566 63 187.384V187.384Z" fill="white"/>
<path d="M71.7356 188.297H70.0138V190.132H68.9988V188.297H67.2861V187.386H68.9988V185.555H70.0138V187.386H71.7356V188.297ZM76.861 189.964V190.884H73.1727V189.964H74.4777V186.366C74.4777 186.288 74.4792 186.208 74.4822 186.126C74.4852 186.045 74.4898 185.961 74.4958 185.877L73.6349 186.593C73.5745 186.638 73.5156 186.667 73.4582 186.679C73.4008 186.691 73.3464 186.693 73.2951 186.683C73.2437 186.671 73.1984 186.653 73.1591 186.629C73.1199 186.602 73.0896 186.575 73.0685 186.548L72.6743 186.017L74.6952 184.305H75.7237V189.964H76.861Z" fill="#272725"/>
<path d="M312 182.384C312 177.201 316.201 173 321.384 173V173C326.566 173 330.768 177.201 330.768 182.384V182.384C330.768 187.566 326.566 191.768 321.384 191.768V191.768C316.201 191.768 312 187.566 312 182.384V182.384Z" fill="white"/>
<path d="M320.736 183.297H319.014V185.132H317.999V183.297H316.286V182.386H317.999V180.555H319.014V182.386H320.736V183.297ZM325.861 184.964V185.884H322.173V184.964H323.478V181.366C323.478 181.288 323.479 181.208 323.482 181.126C323.485 181.045 323.49 180.961 323.496 180.877L322.635 181.593C322.574 181.638 322.516 181.667 322.458 181.679C322.401 181.691 322.346 181.693 322.295 181.683C322.244 181.671 322.198 181.653 322.159 181.629C322.12 181.602 322.09 181.575 322.068 181.548L321.674 181.017L323.695 179.305H324.724V184.964H325.861Z" fill="#272725"/>
<path d="M291 98.3838C291 93.2013 295.201 89 300.384 89V89C305.566 89 309.768 93.2013 309.768 98.3838V98.3838C309.768 103.566 305.566 107.768 300.384 107.768V107.768C295.201 107.768 291 103.566 291 98.3838V98.3838Z" fill="white"/>
<path d="M299.736 99.2965H298.014V101.132H296.999V99.2965H295.286V98.3858H296.999V96.5552H298.014V98.3858H299.736V99.2965ZM304.861 100.964V101.884H301.173V100.964H302.478V97.3663C302.478 97.2877 302.479 97.2077 302.482 97.1261C302.485 97.0446 302.49 96.9615 302.496 96.8769L301.635 97.5928C301.574 97.6381 301.516 97.6668 301.458 97.6789C301.401 97.691 301.346 97.6925 301.295 97.6834C301.244 97.6714 301.198 97.6532 301.159 97.6291C301.12 97.6019 301.09 97.5747 301.068 97.5475L300.674 97.0174L302.695 95.3046H303.724V100.964H304.861Z" fill="#272725"/>
<g clip-path="url(#clip0_5632_29429)">
<path d="M66.9993 156.436L-13.8867 152.496L29.9687 84.417L66.9993 156.436Z" fill="#FFACC5" stroke="#FFACC5" stroke-width="2.378" stroke-linecap="round"/>
<path d="M31.3167 129.825C33.5757 129.825 35.4069 128.489 35.4069 126.842C35.4069 125.195 33.5757 123.859 31.3167 123.859C29.0578 123.859 27.2266 125.195 27.2266 126.842C27.2266 128.489 29.0578 129.825 31.3167 129.825Z" fill="#FF8356"/>
<path d="M27.3015 123.271C28.0547 123.271 28.6654 122.66 28.6654 121.907C28.6654 121.154 28.0547 120.543 27.3015 120.543C26.5482 120.543 25.9375 121.154 25.9375 121.907C25.9375 122.66 26.5482 123.271 27.3015 123.271Z" fill="#272725"/>
<path d="M34.3015 122.902C35.0547 122.902 35.6654 122.291 35.6654 121.538C35.6654 120.784 35.0547 120.174 34.3015 120.174C33.5482 120.174 32.9375 120.784 32.9375 121.538C32.9375 122.291 33.5482 122.902 34.3015 122.902Z" fill="#272725"/>
<path d="M35.4069 130.861C35.4069 131.946 34.976 132.986 34.2089 133.754C33.4419 134.521 32.4015 134.951 31.3167 134.951C30.2319 134.951 29.1916 134.521 28.4245 133.754C27.6575 132.986 27.2266 131.946 27.2266 130.861" stroke="#272725" stroke-width="1.35886" stroke-linecap="round"/>
<path d="M30.2162 78.0566L16.2539 99.8935H41.0701L30.2162 78.0566Z" fill="#FFD44A"/>
<mask id="mask0_5632_29429" style="mask-type:luminance" maskUnits="userSpaceOnUse" x="16" y="78" width="26" height="22">
<path d="M30.2045 78.0557L16.2422 99.8925H41.0583L30.2045 78.0557Z" fill="white"/>
</mask>
<g mask="url(#mask0_5632_29429)">
<path d="M13.1672 86.8979L11.0391 89.4404L32.1815 107.137L34.3096 104.595L13.1672 86.8979Z" fill="#FF5FAB"/>
<path d="M19.5149 84.2924L17.3867 86.835L38.5292 104.532L40.6573 101.989L19.5149 84.2924Z" fill="#FF5FAB"/>
<path d="M23.7922 78.8589L21.6641 81.4014L42.8065 99.098L44.9346 96.5555L23.7922 78.8589Z" fill="#FF5FAB"/>
</g>
<path d="M30.1537 79.8465C31.7682 79.8465 33.077 78.5377 33.077 76.9232C33.077 75.3088 31.7682 74 30.1537 74C28.5393 74 27.2305 75.3088 27.2305 76.9232C27.2305 78.5377 28.5393 79.8465 30.1537 79.8465Z" fill="#FF9C6A"/>
<path d="M34.4414 156.036L35.7663 156.123" stroke="#B26138" stroke-width="0.339715" stroke-miterlimit="10"/>
<path d="M20.4095 148.693L2.91797 147.841L2.42694 157.917L19.9185 158.769L20.4095 148.693Z" fill="white"/>
<path d="M5.42935 155.917C5.37065 155.918 5.31254 155.906 5.25878 155.882C5.20503 155.858 5.15682 155.824 5.11728 155.78C5.07774 155.737 5.04774 155.686 5.02923 155.63C5.01071 155.574 5.00409 155.515 5.0098 155.457L5.2493 150.567C5.24845 150.508 5.26013 150.45 5.28355 150.396C5.30697 150.342 5.3416 150.294 5.38514 150.254C5.42868 150.215 5.48013 150.185 5.53607 150.167C5.59201 150.149 5.65117 150.143 5.70961 150.149L8.07742 150.263L10.4554 150.38C10.5138 150.38 10.5715 150.392 10.625 150.416C10.6785 150.439 10.7266 150.473 10.7663 150.516C10.8052 150.56 10.8347 150.611 10.8531 150.667C10.8715 150.723 10.8784 150.782 10.8733 150.84L10.6338 155.731C10.6335 155.789 10.6213 155.847 10.5979 155.9C10.5746 155.953 10.5405 156.002 10.4979 156.041C10.4538 156.08 10.4022 156.109 10.3465 156.127C10.2907 156.145 10.2318 156.152 10.1735 156.147L5.42935 155.917ZM5.89815 155.33L9.71994 155.517C9.7418 155.521 9.76429 155.519 9.78566 155.513C9.80703 155.507 9.8267 155.496 9.84314 155.481C9.85958 155.466 9.87234 155.448 9.88043 155.427C9.88853 155.406 9.89173 155.384 9.8898 155.362L10.0953 151.134C10.0993 151.112 10.0982 151.09 10.0921 151.068C10.086 151.047 10.0751 151.027 10.0601 151.011C10.0451 150.995 10.0266 150.982 10.0059 150.974C9.98519 150.966 9.9629 150.962 9.94076 150.964L8.02646 150.871L6.11897 150.776C6.09721 150.771 6.07474 150.772 6.05335 150.778C6.03196 150.784 6.01224 150.795 5.99575 150.81C5.97927 150.825 5.96646 150.843 5.95837 150.864C5.95027 150.884 5.9471 150.907 5.94911 150.929L5.74188 155.16C5.73745 155.182 5.73829 155.205 5.74436 155.226C5.75042 155.248 5.76152 155.268 5.77676 155.285C5.792 155.301 5.81094 155.314 5.83204 155.322C5.85314 155.33 5.87579 155.332 5.89815 155.33ZM8.05364 155.353C7.89567 155.353 7.79885 155.289 7.76318 155.184C7.69864 155.014 7.78187 154.939 8.01118 154.959C8.03326 154.959 8.06553 154.959 8.1063 154.959H8.14706C8.20481 154.959 8.23539 154.934 8.23878 154.883L8.25068 154.64C8.25505 154.618 8.25422 154.596 8.24824 154.574C8.24227 154.552 8.23132 154.533 8.21628 154.516C8.20124 154.5 8.18253 154.487 8.16166 154.479C8.14079 154.471 8.11833 154.468 8.09611 154.47L7.07696 154.419C7.19876 154.548 7.31223 154.685 7.41668 154.829C7.42867 154.85 7.43595 154.873 7.438 154.898C7.44005 154.922 7.43683 154.947 7.42856 154.97C7.41964 154.994 7.40561 155.016 7.38743 155.034C7.36925 155.052 7.34736 155.066 7.32325 155.075H7.30117C7.21227 155.127 7.10625 155.143 7.00609 155.118C6.90593 155.093 6.8197 155.029 6.76612 154.941C6.60532 154.706 6.66591 154.531 6.94787 154.414H6.96146L6.14275 154.373C6.11442 154.372 6.08665 154.365 6.06103 154.353C6.03542 154.341 6.01245 154.323 5.99344 154.302C5.97444 154.281 5.95976 154.257 5.95026 154.23C5.94076 154.203 5.93662 154.175 5.93807 154.147C5.93952 154.118 5.94653 154.091 5.95871 154.065C5.97089 154.039 5.988 154.016 6.00906 153.997C6.03011 153.978 6.05471 153.964 6.08143 153.954C6.10816 153.945 6.1365 153.941 6.16483 153.942L7.11773 153.988L8.28805 154.046V154.03C8.28805 153.978 8.33391 153.933 8.41714 153.901C8.48443 153.874 8.55683 153.861 8.62946 153.864C8.70174 153.869 8.77225 153.888 8.83668 153.922C8.91142 153.962 8.94709 154.008 8.94539 154.063V154.076L9.14922 154.086C9.25623 154.086 9.28171 154.054 9.22226 153.974C9.1747 153.923 9.14073 153.882 9.11865 153.855C8.40525 153.846 7.45235 153.829 6.25995 153.804C6.14784 153.804 6.09009 153.728 6.09009 153.592C6.08422 153.533 6.09731 153.473 6.12746 153.422C6.14672 153.403 6.17036 153.388 6.19638 153.38C6.2224 153.372 6.25003 153.37 6.27693 153.375L7.58144 153.439L7.59333 153.215L6.70667 153.172C6.648 153.172 6.59009 153.159 6.53639 153.136C6.48269 153.112 6.43431 153.078 6.39413 153.035C6.3555 152.991 6.32623 152.94 6.30812 152.884C6.29001 152.829 6.28344 152.77 6.28882 152.712L6.3126 152.211C6.31336 152.152 6.32593 152.095 6.34957 152.041C6.37321 151.987 6.40743 151.939 6.45019 151.899C6.53614 151.824 6.64782 151.787 6.76103 151.795L7.64768 151.837V151.715C7.64953 151.704 7.64885 151.693 7.64568 151.682C7.64252 151.672 7.63695 151.662 7.62941 151.654C7.62187 151.645 7.61256 151.639 7.60218 151.635C7.59181 151.631 7.58064 151.629 7.56955 151.63L6.35167 151.571C6.29446 151.568 6.24075 151.542 6.20237 151.5C6.16398 151.457 6.14406 151.401 6.14699 151.344C6.14992 151.287 6.17546 151.233 6.21798 151.195C6.26051 151.156 6.31654 151.136 6.37375 151.139L7.67146 151.202V151.189C7.67363 151.153 7.68494 151.119 7.70428 151.089C7.72363 151.059 7.75036 151.035 7.78187 151.019C7.85135 150.983 7.92917 150.966 8.00737 150.97C8.08557 150.973 8.16133 150.998 8.2269 151.041C8.25683 151.06 8.2812 151.087 8.29759 151.118C8.31398 151.15 8.32182 151.185 8.32032 151.221V151.234L9.62482 151.299C9.67926 151.306 9.72917 151.333 9.76454 151.375C9.79991 151.416 9.81813 151.47 9.81556 151.525C9.81298 151.58 9.78979 151.632 9.75064 151.67C9.71148 151.708 9.65926 151.731 9.60444 151.732L8.4613 151.676C8.43939 151.672 8.41675 151.673 8.39522 151.678C8.37369 151.684 8.35386 151.695 8.33734 151.71C8.32081 151.725 8.30805 151.744 8.30008 151.765C8.2921 151.786 8.28915 151.808 8.29144 151.831V151.871L9.19848 151.916C9.25712 151.915 9.31516 151.927 9.36884 151.951C9.42251 151.974 9.47062 152.009 9.51003 152.053C9.54944 152.096 9.57928 152.147 9.59759 152.203C9.61591 152.259 9.62229 152.318 9.61633 152.376L9.58575 152.999C9.58651 153.042 9.57844 153.084 9.56208 153.124C9.54571 153.163 9.52139 153.199 9.49064 153.229C9.42413 153.283 9.33864 153.31 9.25283 153.302H9.23245C9.34502 153.392 9.44907 153.493 9.54329 153.602C9.57347 153.634 9.59605 153.672 9.6093 153.713C9.62255 153.755 9.62612 153.799 9.61973 153.842C9.61135 153.887 9.59336 153.93 9.56698 153.967C9.54061 154.005 9.50645 154.036 9.46685 154.059L9.39721 154.103L9.57896 154.112C9.60887 154.111 9.63863 154.116 9.66638 154.128C9.69413 154.139 9.71927 154.156 9.74022 154.177C9.76118 154.198 9.7775 154.224 9.78816 154.252C9.79882 154.28 9.8036 154.309 9.8022 154.339C9.80079 154.369 9.79323 154.399 9.77999 154.425C9.76675 154.452 9.74811 154.476 9.72524 154.495C9.70237 154.515 9.67577 154.529 9.64709 154.538C9.61841 154.546 9.58828 154.549 9.55858 154.545L9.07109 154.521C9.04923 154.517 9.02673 154.518 9.00536 154.524C8.984 154.53 8.96433 154.541 8.94789 154.556C8.93145 154.571 8.91869 154.59 8.91059 154.611C8.9025 154.631 8.8993 154.654 8.90123 154.676L8.88764 154.946C8.89126 155.041 8.8702 155.136 8.82649 155.221C8.77848 155.282 8.70839 155.323 8.63115 155.333C8.44074 155.368 8.24658 155.378 8.05364 155.362V155.353ZM6.89861 152.328L7.6222 152.364L7.6324 152.167L7.2672 152.15L7.06337 152.14C7.04194 152.134 7.01954 152.134 6.99808 152.14C6.97662 152.145 6.95672 152.155 6.94006 152.17C6.9234 152.184 6.91047 152.202 6.90237 152.223C6.89427 152.243 6.89123 152.266 6.89352 152.288L6.89861 152.328ZM6.94787 152.846L7.59672 152.877L7.60692 152.682L7.24172 152.663L6.98524 152.651C6.97149 152.648 6.9573 152.649 6.94379 152.653C6.93029 152.656 6.91785 152.663 6.90745 152.673C6.89706 152.682 6.88901 152.694 6.88393 152.707C6.87886 152.72 6.87691 152.734 6.87823 152.748V152.768C6.87672 152.778 6.87742 152.788 6.88026 152.798C6.8831 152.807 6.88802 152.816 6.89468 152.824C6.90133 152.831 6.90954 152.837 6.91874 152.841C6.92793 152.845 6.93788 152.847 6.94787 152.846ZM8.27106 152.395L8.62266 152.412L8.97427 152.43V152.308C8.97615 152.298 8.97567 152.287 8.97286 152.278C8.97005 152.268 8.96499 152.259 8.95807 152.251C8.95116 152.243 8.94258 152.238 8.93301 152.234C8.92344 152.23 8.91314 152.229 8.90293 152.23L8.27446 152.199L8.27106 152.395ZM8.24728 152.904L8.59888 152.921L8.84857 152.933C8.86232 152.936 8.87652 152.935 8.89002 152.931C8.90352 152.928 8.91597 152.921 8.92636 152.911C8.93675 152.902 8.9448 152.89 8.94988 152.877C8.95495 152.864 8.9569 152.85 8.95558 152.836V152.817C8.95786 152.807 8.95765 152.797 8.95499 152.787C8.95232 152.777 8.94727 152.768 8.94027 152.76C8.93327 152.752 8.92452 152.746 8.91476 152.743C8.90501 152.739 8.89454 152.738 8.88424 152.739L8.25577 152.709L8.24728 152.904ZM8.2201 153.46L8.75345 153.485L8.70249 153.441C8.68891 153.427 8.68891 153.415 8.70249 153.407L8.91821 153.276L8.5785 153.259L8.23878 153.242L8.2201 153.46Z" fill="#FF8A7F"/>
<path d="M11.9548 156.35C11.8499 156.345 11.7513 156.298 11.6807 156.22C11.6102 156.142 11.5734 156.04 11.5786 155.935C11.5838 155.83 11.6305 155.731 11.7083 155.661C11.7862 155.59 11.8889 155.553 11.9939 155.559L14.1511 155.664L14.2139 154.359L12.6852 154.285C12.6341 154.282 12.5841 154.269 12.5379 154.247C12.4917 154.226 12.4502 154.195 12.4159 154.157C12.3816 154.119 12.3551 154.075 12.3379 154.026C12.3207 153.978 12.3132 153.927 12.3158 153.876C12.3184 153.825 12.331 153.775 12.3529 153.729C12.3748 153.682 12.4056 153.641 12.4435 153.607C12.5201 153.537 12.6211 153.501 12.7243 153.507L14.253 153.581L14.3091 152.411L12.4406 152.319C12.3891 152.317 12.3386 152.304 12.292 152.282C12.2453 152.26 12.2035 152.229 12.1689 152.191C12.1343 152.152 12.1075 152.108 12.0902 152.059C12.0728 152.01 12.0652 151.959 12.0678 151.907C12.0704 151.856 12.0831 151.805 12.1051 151.759C12.1272 151.712 12.1583 151.67 12.1965 151.636C12.2348 151.601 12.2795 151.574 12.3281 151.557C12.3766 151.54 12.4282 151.532 12.4797 151.535L14.766 151.647C14.5752 151.447 14.3739 151.257 14.163 151.078C13.9229 150.874 13.9433 150.684 14.2241 150.509C14.2963 150.455 14.3845 150.428 14.4742 150.431C14.564 150.434 14.6501 150.467 14.7184 150.526C14.9777 150.72 15.2255 150.928 15.4607 151.151C15.4951 151.185 15.5207 151.227 15.5355 151.274C15.5502 151.32 15.5537 151.369 15.5456 151.417C15.5349 151.469 15.5127 151.518 15.4807 151.561C15.4487 151.603 15.4076 151.638 15.3605 151.662L15.3469 151.676L17.0777 151.759C17.1293 151.761 17.1798 151.774 17.2265 151.796C17.2731 151.818 17.315 151.849 17.3497 151.887C17.3844 151.925 17.4113 151.97 17.4287 152.018C17.4462 152.067 17.4539 152.118 17.4514 152.17C17.449 152.221 17.4364 152.272 17.4144 152.319C17.3924 152.365 17.3615 152.407 17.3233 152.442C17.2851 152.477 17.2405 152.503 17.1919 152.521C17.1434 152.538 17.0919 152.546 17.0404 152.544L15.1872 152.454L15.1295 153.624L16.6582 153.699C16.7614 153.704 16.8583 153.749 16.9278 153.826C16.9972 153.902 17.0334 154.003 17.0285 154.106C17.0235 154.209 16.9778 154.306 16.9013 154.376C16.8249 154.445 16.724 154.481 16.6208 154.477L15.0921 154.402L15.0276 155.706L17.2136 155.813C17.2675 155.807 17.3222 155.813 17.3731 155.832C17.4239 155.851 17.4695 155.882 17.5059 155.923C17.5423 155.963 17.5686 156.011 17.5824 156.064C17.5963 156.116 17.5974 156.171 17.5856 156.224C17.5913 156.278 17.5842 156.333 17.5651 156.384C17.5459 156.435 17.5152 156.481 17.4753 156.517C17.4354 156.554 17.3874 156.581 17.3352 156.597C17.283 156.612 17.228 156.615 17.1746 156.605L14.5638 156.477L11.9548 156.35Z" fill="#FF8A7F"/>
</g>
<path d="M358.528 241.921C363.183 241.59 367.799 242.959 371.52 245.775C375.24 248.592 377.812 252.663 378.757 257.232C379.328 260.046 379.255 262.953 378.544 265.735C377.832 268.517 376.501 271.102 374.65 273.297L409.54 301.491C415.113 294.691 419.222 286.814 421.607 278.352C423.992 269.89 424.603 261.026 423.401 252.317C418.665 217.831 386.847 193.292 352.29 197.462C335.642 199.459 320.449 207.932 310 221.047L344.871 249.24C346.51 247.134 348.572 245.395 350.924 244.134C353.277 242.873 355.867 242.119 358.528 241.921Z" fill="#B8E38D"/>
<path d="M349.82 215.633C350.819 215.633 351.628 214.823 351.628 213.825C351.628 212.826 350.819 212.017 349.82 212.017C348.821 212.017 348.012 212.826 348.012 213.825C348.012 214.823 348.821 215.633 349.82 215.633Z" fill="#272725"/>
<path d="M357.398 215.633C358.397 215.633 359.206 214.823 359.206 213.825C359.206 212.826 358.397 212.017 357.398 212.017C356.399 212.017 355.59 212.826 355.59 213.825C355.59 214.823 356.399 215.633 357.398 215.633Z" fill="#272725"/>
<path d="M360.428 229.375C360.114 227.913 351.078 230.001 351.707 231.671C352.336 233.341 355.069 235.322 357.275 234.59C359.482 233.858 360.743 230.836 360.428 229.375Z" fill="#272725" stroke="#272725" stroke-width="0.477122" stroke-linecap="round"/>
<path d="M350.751 226.526C353.749 226.526 356.179 224.755 356.179 222.57C356.179 220.386 353.749 218.615 350.751 218.615C347.754 218.615 345.324 220.386 345.324 222.57C345.324 224.755 347.754 226.526 350.751 226.526Z" fill="#FF8356"/>
<path d="M352 150C368.569 150 382 136.569 382 120C382 103.431 368.569 90 352 90C335.431 90 322 103.431 322 120C322 136.569 335.431 150 352 150Z" fill="#FE5B50" stroke="#FE5B50" stroke-width="2.63819" stroke-linecap="round"/>
<path d="M351.996 120.002C354.306 120.002 356.179 118.636 356.179 116.951C356.179 115.266 354.306 113.9 351.996 113.9C349.685 113.9 347.812 115.266 347.812 116.951C347.812 118.636 349.685 120.002 351.996 120.002Z" fill="#FF8356"/>
<path d="M346.354 113.953C347.201 113.953 347.888 113.266 347.888 112.419C347.888 111.572 347.201 110.885 346.354 110.885C345.507 110.885 344.82 111.572 344.82 112.419C344.82 113.266 345.507 113.953 346.354 113.953Z" fill="#272725"/>
<path d="M357.089 113.953C357.936 113.953 358.623 113.266 358.623 112.419C358.623 111.572 357.936 110.885 357.089 110.885C356.241 110.885 355.555 111.572 355.555 112.419C355.555 113.266 356.241 113.953 357.089 113.953Z" fill="#272725"/>
<path d="M364.307 122.74C366.753 122.74 368.736 120.757 368.736 118.311C368.736 115.865 366.753 113.883 364.307 113.883C361.862 113.883 359.879 115.865 359.879 118.311C359.879 120.757 361.862 122.74 364.307 122.74Z" fill="#FFCD00"/>
<path d="M339.996 124.059C342.546 124.059 344.613 121.992 344.613 119.442C344.613 116.892 342.546 114.825 339.996 114.825C337.446 114.825 335.379 116.892 335.379 119.442C335.379 121.992 337.446 124.059 339.996 124.059Z" fill="#FFCD00"/>
<path d="M351.961 124.453V126.526" stroke="#272725" stroke-width="4.33417" stroke-linecap="round"/>
<defs>
<clipPath id="clip0_5632_29429">
<rect width="85" height="84.7673" fill="white" transform="translate(-16 74)"/>
</clipPath>
</defs>
</svg>
