<svg width="1946" height="3279" viewBox="0 0 1946 3279" fill="none" xmlns="http://www.w3.org/2000/svg">
<g clip-path="url(#clip0_5484_25224)">
<rect width="1946" height="3279" fill="#5F584A"/>
<path d="M1508.77 1585.5L1185.38 1497.35L1424.59 1264.24L1508.77 1585.5Z" fill="#534E42" stroke="#534E42" stroke-width="4.44826" stroke-linecap="round"/>
<path d="M1508.77 3351.5L1185.38 3263.35L1424.59 3030.24L1508.77 3351.5Z" fill="#534E42" stroke="#534E42" stroke-width="4.44826" stroke-linecap="round"/>
<path d="M354.363 430L112 554.395L236.395 796.758L478.758 672.363L354.363 430Z" fill="#534E42"/>
<path d="M354.363 2196L112 2320.4L236.395 2562.76L478.758 2438.36L354.363 2196Z" fill="#534E42"/>
<path d="M1720.06 655L1493 705.826L1543.83 932.889L1770.89 882.063L1720.06 655Z" fill="#534E42"/>
<path d="M1720.06 2421L1493 2471.83L1543.83 2698.89L1770.89 2648.06L1720.06 2421Z" fill="#534E42"/>
<path d="M329.243 978.499C164.798 991.922 42.2959 1136.21 55.7386 1300.7C61.0508 1365.79 87.6607 1427.32 131.453 1475.77L571.495 1072.09C511.306 1008 423.69 970.775 329.243 978.499Z" fill="#534E42"/>
<path d="M329.243 2744.5C164.798 2757.92 42.2959 2902.21 55.7386 3066.7C61.0508 3131.79 87.6607 3193.32 131.453 3241.77L571.495 2838.09C511.306 2774 423.69 2736.78 329.243 2744.5Z" fill="#534E42"/>
<path d="M1571.23 -64.3876C1567.49 -67.1595 1562.19 -66.3804 1559.55 -62.5512C1519.85 -5.14835 1504.76 66.3788 1517.58 137.485C1530.92 211.45 1573.36 278.901 1635.57 324.998C1697.78 371.096 1774.67 392.064 1849.31 383.291C1921.07 374.857 1985.11 339.6 2028.47 284.907C2031.36 281.259 2030.56 275.969 2026.82 273.197L1867.41 155.075C1863.67 152.303 1858.42 153.133 1855.21 156.501C1844.06 168.189 1828.94 175.69 1812.23 177.654C1792.63 179.959 1772.43 174.451 1756.09 162.344C1739.75 150.236 1728.61 132.52 1725.1 113.093C1722.12 96.5351 1724.89 79.8901 1732.83 65.8206C1735.12 61.7653 1734.38 56.506 1730.64 53.7341L1571.23 -64.3876Z" fill="#534E42"/>
<path d="M1571.23 1701.61C1567.49 1698.84 1562.19 1699.62 1559.55 1703.45C1519.85 1760.85 1504.76 1832.38 1517.58 1903.48C1530.92 1977.45 1573.36 2044.9 1635.57 2091C1697.78 2137.1 1774.67 2158.06 1849.31 2149.29C1921.07 2140.86 1985.11 2105.6 2028.47 2050.91C2031.36 2047.26 2030.56 2041.97 2026.82 2039.2L1867.41 1921.08C1863.67 1918.3 1858.42 1919.13 1855.21 1922.5C1844.06 1934.19 1828.94 1941.69 1812.23 1943.65C1792.63 1945.96 1772.43 1940.45 1756.09 1928.34C1739.75 1916.24 1728.61 1898.52 1725.1 1879.09C1722.12 1862.54 1724.89 1845.89 1732.83 1831.82C1735.12 1827.77 1734.38 1822.51 1730.64 1819.73L1571.23 1701.61Z" fill="#534E42"/>
<path d="M1798 1376C1872.56 1376 1933 1315.56 1933 1241C1933 1166.44 1872.56 1106 1798 1106C1723.44 1106 1663 1166.44 1663 1241C1663 1315.56 1723.44 1376 1798 1376Z" fill="#534E42" stroke="#534E42" stroke-width="4.74874" stroke-linecap="round"/>
<path d="M1798 3142C1872.56 3142 1933 3081.56 1933 3007C1933 2932.44 1872.56 2872 1798 2872C1723.44 2872 1663 2932.44 1663 3007C1663 3081.56 1723.44 3142 1798 3142Z" fill="#534E42" stroke="#534E42" stroke-width="4.74874" stroke-linecap="round"/>
<path d="M90.9999 258C185.441 258 262 181.441 262 87C262 -7.44068 185.441 -84 90.9999 -84C-3.44075 -84 -80 -7.44068 -80 87C-80 181.441 -3.44075 258 90.9999 258Z" fill="#534E42" stroke="#534E42" stroke-width="4.74874" stroke-linecap="round"/>
<path d="M90.9999 2024C185.441 2024 262 1947.44 262 1853C262 1758.56 185.441 1682 90.9999 1682C-3.44075 1682 -80 1758.56 -80 1853C-80 1947.44 -3.44075 2024 90.9999 2024Z" fill="#534E42" stroke="#534E42" stroke-width="4.74874" stroke-linecap="round"/>
</g>
<defs>
<clipPath id="clip0_5484_25224">
<rect width="1946" height="3279" fill="white"/>
</clipPath>
</defs>
</svg>
