<svg width="1920" height="509" viewBox="0 0 1920 509" fill="none" xmlns="http://www.w3.org/2000/svg">
<ellipse cx="911.5" cy="134" rx="1176.5" ry="375" fill="#FFE6BD"/>
<path d="M339.849 249L165 317.839L201.151 409.662L376 340.823L339.849 249Z" fill="#4BC58C"/>
<path d="M312.33 322.577C317.525 322.577 321.737 319.505 321.737 315.716C321.737 311.927 317.525 308.855 312.33 308.855C307.134 308.855 302.922 311.927 302.922 315.716C302.922 319.505 307.134 322.577 312.33 322.577Z" fill="#FF8356"/>
<path d="M286.601 318.606C291.399 318.606 295.289 314.716 295.289 309.919C295.289 305.121 291.399 301.231 286.601 301.231C281.803 301.231 277.914 305.121 277.914 309.919C277.914 314.716 281.803 318.606 286.601 318.606Z" fill="#FFD44A"/>
<path d="M338.936 317.335C343.617 317.335 347.412 313.54 347.412 308.859C347.412 304.178 343.617 300.384 338.936 300.384C334.255 300.384 330.461 304.178 330.461 308.859C330.461 313.54 334.255 317.335 338.936 317.335Z" fill="#FFD44A"/>
<path d="M303.089 304.96C304.821 304.96 306.225 303.557 306.225 301.825C306.225 300.093 304.821 298.689 303.089 298.689C301.357 298.689 299.953 300.093 299.953 301.825C299.953 303.557 301.357 304.96 303.089 304.96Z" fill="#272725"/>
<path d="M321.511 304.96C323.243 304.96 324.647 303.557 324.647 301.825C324.647 300.093 323.243 298.689 321.511 298.689C319.779 298.689 318.375 300.093 318.375 301.825C318.375 303.557 319.779 304.96 321.511 304.96Z" fill="#272725"/>
<path d="M301.142 323.182C301.142 323.182 300.637 325.221 299.722 326.094C298.807 326.967 296.984 327.365 296.984 327.365" stroke="#272725" stroke-width="2.54261" stroke-linecap="round"/>
<path d="M300.281 326.45C300.281 326.45 302.536 327.912 304.167 328.34C305.799 328.768 308.481 328.59 308.481 328.59" stroke="#272725" stroke-width="2.54261" stroke-linecap="round"/>
<path d="M1583.99 315.596C1592.24 315.01 1600.42 317.437 1607.01 322.427C1613.6 327.417 1618.16 334.63 1619.83 342.727C1620.84 347.713 1620.71 352.864 1619.45 357.793C1618.19 362.723 1615.84 367.303 1612.56 371.193L1674.38 421.15C1684.25 409.102 1691.53 395.144 1695.76 380.15C1699.99 365.156 1701.07 349.45 1698.94 334.018C1690.55 272.912 1634.17 229.43 1572.94 236.818C1543.43 240.357 1516.51 255.37 1498 278.609L1559.79 328.566C1562.69 324.834 1566.35 321.752 1570.51 319.518C1574.68 317.284 1579.27 315.948 1583.99 315.596Z" fill="#B8E38D"/>
<path d="M1568.56 269.016C1570.33 269.016 1571.76 267.582 1571.76 265.812C1571.76 264.043 1570.33 262.608 1568.56 262.608C1566.79 262.608 1565.35 264.043 1565.35 265.812C1565.35 267.582 1566.79 269.016 1568.56 269.016Z" fill="#272725"/>
<path d="M1581.98 269.016C1583.75 269.016 1585.19 267.582 1585.19 265.812C1585.19 264.043 1583.75 262.608 1581.98 262.608C1580.21 262.608 1578.78 264.043 1578.78 265.812C1578.78 267.582 1580.21 269.016 1581.98 269.016Z" fill="#272725"/>
<path d="M1587.35 293.365C1586.8 290.776 1570.78 294.475 1571.9 297.434C1573.01 300.393 1577.86 303.904 1581.77 302.608C1585.68 301.311 1587.91 295.955 1587.35 293.365Z" fill="#272725" stroke="#272725" stroke-width="0.845427" stroke-linecap="round"/>
<path d="M1570.2 288.317C1575.51 288.317 1579.82 285.179 1579.82 281.309C1579.82 277.438 1575.51 274.3 1570.2 274.3C1564.89 274.3 1560.59 277.438 1560.59 281.309C1560.59 285.179 1564.89 288.317 1570.2 288.317Z" fill="#FF8356"/>
<path d="M1379 240C1408.82 240 1433 215.823 1433 186C1433 156.177 1408.82 132 1379 132C1349.18 132 1325 156.177 1325 186C1325 215.823 1349.18 240 1379 240Z" fill="#FE5B50" stroke="#FE5B50" stroke-width="4.74874" stroke-linecap="round"/>
<path d="M1379 186.003C1383.16 186.003 1386.53 183.545 1386.53 180.512C1386.53 177.479 1383.16 175.02 1379 175.02C1374.84 175.02 1371.47 177.479 1371.47 180.512C1371.47 183.545 1374.84 186.003 1379 186.003Z" fill="#FF8356"/>
<path d="M1368.85 175.115C1370.37 175.115 1371.61 173.879 1371.61 172.354C1371.61 170.829 1370.37 169.593 1368.85 169.593C1367.32 169.593 1366.09 170.829 1366.09 172.354C1366.09 173.879 1367.32 175.115 1368.85 175.115Z" fill="#272725"/>
<path d="M1388.17 175.115C1389.69 175.115 1390.93 173.879 1390.93 172.354C1390.93 170.829 1389.69 169.593 1388.17 169.593C1386.64 169.593 1385.41 170.829 1385.41 172.354C1385.41 173.879 1386.64 175.115 1388.17 175.115Z" fill="#272725"/>
<path d="M1401.15 190.932C1405.55 190.932 1409.12 187.363 1409.12 182.961C1409.12 178.559 1405.55 174.99 1401.15 174.99C1396.75 174.99 1393.18 178.559 1393.18 182.961C1393.18 187.363 1396.75 190.932 1401.15 190.932Z" fill="#FFCD00"/>
<path d="M1357.39 193.306C1361.98 193.306 1365.7 189.586 1365.7 184.996C1365.7 180.406 1361.98 176.686 1357.39 176.686C1352.8 176.686 1349.08 180.406 1349.08 184.996C1349.08 189.586 1352.8 193.306 1357.39 193.306Z" fill="#FFCD00"/>
<path d="M1378.93 194.015V197.746" stroke="#272725" stroke-width="7.80151" stroke-linecap="round"/>
<g clip-path="url(#clip0_5529_27974)">
<path d="M1149.07 313.077C1148.59 313.079 1148.11 312.92 1147.73 312.627C1147.34 312.333 1147.06 311.921 1146.93 311.453L1135.71 272.47C1135.62 272.177 1135.6 271.866 1135.66 271.565C1135.71 271.263 1135.84 270.979 1136.02 270.735C1136.21 270.483 1136.45 270.279 1136.73 270.137C1137.01 269.996 1137.31 269.923 1137.63 269.923C1137.96 269.928 1138.29 270.01 1138.59 270.163L1175 289.968C1175.39 290.182 1175.71 290.506 1175.91 290.901C1176.12 291.295 1176.2 291.742 1176.15 292.183C1176.09 292.615 1175.91 293.021 1175.63 293.35C1175.34 293.679 1174.96 293.915 1174.54 294.029L1159.78 298.089C1159.39 298.189 1159.03 298.366 1158.71 298.61C1158.39 298.855 1158.13 299.161 1157.93 299.511L1150.99 311.914C1150.8 312.257 1150.52 312.543 1150.17 312.741C1149.83 312.938 1149.45 313.042 1149.05 313.04L1149.07 313.077Z" fill="#383226"/>
<path d="M1137.62 270.846C1137.8 270.847 1137.97 270.891 1138.13 270.975L1174.55 290.78C1174.78 290.902 1174.96 291.089 1175.08 291.316C1175.2 291.544 1175.25 291.802 1175.22 292.058C1175.2 292.313 1175.09 292.555 1174.93 292.752C1174.76 292.948 1174.54 293.091 1174.29 293.161L1159.53 297.24C1159.03 297.377 1158.57 297.61 1158.16 297.927C1157.75 298.244 1157.42 298.638 1157.16 299.086L1150.19 311.453C1150.08 311.656 1149.92 311.826 1149.72 311.943C1149.52 312.06 1149.29 312.121 1149.06 312.117C1148.78 312.121 1148.5 312.033 1148.28 311.866C1148.05 311.7 1147.89 311.464 1147.81 311.194L1136.58 272.212C1136.54 272.052 1136.53 271.884 1136.56 271.72C1136.59 271.557 1136.66 271.403 1136.76 271.27C1136.86 271.138 1136.99 271.03 1137.14 270.957C1137.29 270.883 1137.45 270.845 1137.62 270.846ZM1137.62 269C1137.16 269.002 1136.72 269.108 1136.31 269.31C1135.9 269.511 1135.55 269.803 1135.27 270.163C1135.01 270.52 1134.83 270.935 1134.75 271.373C1134.67 271.812 1134.69 272.263 1134.81 272.692L1146.03 311.73C1146.22 312.388 1146.62 312.966 1147.16 313.376C1147.71 313.786 1148.38 314.006 1149.06 314C1149.62 314.007 1150.17 313.861 1150.65 313.578C1151.13 313.295 1151.53 312.885 1151.79 312.394L1158.75 299.991C1158.88 299.751 1159.06 299.541 1159.28 299.373C1159.49 299.205 1159.74 299.082 1160.01 299.012L1174.77 294.952C1175.38 294.788 1175.92 294.446 1176.33 293.969C1176.74 293.493 1177 292.904 1177.07 292.279C1177.14 291.655 1177.03 291.023 1176.74 290.466C1176.44 289.909 1175.99 289.453 1175.44 289.156L1139 269.351C1138.57 269.125 1138.1 269.005 1137.62 269Z" fill="#383226"/>
<path d="M1144.33 311.268C1143.74 311.271 1143.16 311.08 1142.68 310.724C1142.21 310.367 1141.86 309.865 1141.69 309.293L1131.71 275.017C1131.56 274.529 1131.56 274.007 1131.7 273.518C1131.85 273.029 1132.15 272.596 1132.54 272.275C1132.94 271.955 1133.43 271.761 1133.94 271.72C1134.45 271.679 1134.96 271.793 1135.4 272.046L1167.48 289.304C1167.99 289.552 1168.41 289.952 1168.69 290.449C1168.96 290.946 1169.07 291.516 1169.01 292.08C1168.95 292.644 1168.71 293.175 1168.34 293.6C1167.96 294.025 1167.46 294.323 1166.91 294.453L1153.99 298.145C1153.75 298.212 1153.54 298.325 1153.35 298.477C1153.16 298.629 1153 298.817 1152.88 299.031L1146.79 309.958C1146.56 310.389 1146.21 310.748 1145.79 310.995C1145.36 311.242 1144.88 311.369 1144.39 311.361L1144.33 311.268Z" fill="#FFCF81"/>
<path d="M1134.17 273.338C1134.33 273.337 1134.49 273.381 1134.63 273.467L1166.73 290.799C1166.93 290.904 1167.09 291.068 1167.2 291.269C1167.3 291.47 1167.35 291.698 1167.32 291.924C1167.3 292.149 1167.2 292.362 1167.05 292.533C1166.9 292.705 1166.71 292.827 1166.49 292.884L1153.57 296.576C1153.13 296.699 1152.72 296.907 1152.37 297.189C1152.01 297.471 1151.72 297.821 1151.5 298.219L1145.41 309.146C1145.31 309.327 1145.17 309.477 1144.99 309.582C1144.82 309.686 1144.62 309.739 1144.41 309.736C1144.16 309.737 1143.92 309.656 1143.73 309.506C1143.53 309.355 1143.39 309.145 1143.32 308.906L1133.26 274.537C1133.22 274.396 1133.21 274.247 1133.24 274.101C1133.26 273.956 1133.32 273.818 1133.41 273.699C1133.5 273.581 1133.61 273.485 1133.74 273.418C1133.87 273.352 1134.02 273.318 1134.17 273.319M1134.17 270.108C1133.52 270.112 1132.88 270.267 1132.3 270.558C1131.72 270.849 1131.22 271.27 1130.83 271.787C1130.43 272.307 1130.17 272.912 1130.05 273.554C1129.94 274.195 1129.98 274.854 1130.16 275.479L1140.15 309.736C1140.38 310.568 1140.86 311.31 1141.52 311.87C1142.18 312.429 1142.99 312.779 1143.85 312.876C1144.71 312.973 1145.58 312.812 1146.34 312.414C1147.11 312.016 1147.74 311.399 1148.16 310.641L1154.25 299.714C1154.28 299.674 1154.32 299.642 1154.36 299.621L1167.28 295.93C1168.12 295.693 1168.86 295.213 1169.42 294.55C1169.99 293.888 1170.34 293.073 1170.43 292.21C1170.53 291.347 1170.37 290.474 1169.97 289.703C1169.57 288.933 1168.95 288.299 1168.19 287.882L1136.16 270.624C1135.55 270.288 1134.86 270.11 1134.17 270.108Z" fill="#383226"/>
</g>
<path d="M377 287.5C377 279.492 383.492 273 391.5 273C399.508 273 406 279.492 406 287.5C406 295.508 399.508 302 391.5 302C383.492 302 377 295.508 377 287.5Z" fill="white"/>
<path d="M390.497 289.003H387.837V291.838H386.269V289.003H383.623V287.596H386.269V284.768H387.837V287.596H390.497V289.003ZM398.415 291.579V293H392.717V291.579H394.733V286.021C394.733 285.9 394.735 285.776 394.74 285.65C394.745 285.524 394.752 285.396 394.761 285.265L393.431 286.371C393.338 286.441 393.247 286.485 393.158 286.504C393.069 286.523 392.985 286.525 392.906 286.511C392.827 286.492 392.757 286.464 392.696 286.427C392.635 286.385 392.589 286.343 392.556 286.301L391.947 285.482L395.069 282.836H396.658V291.579H398.415Z" fill="#272725"/>
<path d="M1455 153.5C1455 145.492 1461.49 139 1469.5 139C1477.51 139 1484 145.492 1484 153.5C1484 161.508 1477.51 168 1469.5 168C1461.49 168 1455 161.508 1455 153.5Z" fill="white"/>
<path d="M1468.5 155.003H1465.84V157.838H1464.27V155.003H1461.62V153.596H1464.27V150.768H1465.84V153.596H1468.5V155.003ZM1476.42 157.579V159H1470.72V157.579H1472.73V152.021C1472.73 151.9 1472.74 151.776 1472.74 151.65C1472.74 151.524 1472.75 151.396 1472.76 151.265L1471.43 152.371C1471.34 152.441 1471.25 152.485 1471.16 152.504C1471.07 152.523 1470.99 152.525 1470.91 152.511C1470.83 152.492 1470.76 152.464 1470.7 152.427C1470.64 152.385 1470.59 152.343 1470.56 152.301L1469.95 151.482L1473.07 148.836H1474.66V157.579H1476.42Z" fill="#272725"/>
<path d="M1470 322.5C1470 314.492 1476.49 308 1484.5 308C1492.51 308 1499 314.492 1499 322.5C1499 330.508 1492.51 337 1484.5 337C1476.49 337 1470 330.508 1470 322.5Z" fill="white"/>
<path d="M1483.5 324.003H1480.84V326.838H1479.27V324.003H1476.62V322.596H1479.27V319.768H1480.84V322.596H1483.5V324.003ZM1491.42 326.579V328H1485.72V326.579H1487.73V321.021C1487.73 320.9 1487.74 320.776 1487.74 320.65C1487.74 320.524 1487.75 320.396 1487.76 320.265L1486.43 321.371C1486.34 321.441 1486.25 321.485 1486.16 321.504C1486.07 321.523 1485.99 321.525 1485.91 321.511C1485.83 321.492 1485.76 321.464 1485.7 321.427C1485.64 321.385 1485.59 321.343 1485.56 321.301L1484.95 320.482L1488.07 317.836H1489.66V326.579H1491.42Z" fill="#272725"/>
<g clip-path="url(#clip1_5529_27974)">
<path d="M599.644 255.574L446.016 248.089L529.311 118.786L599.644 255.574Z" fill="#FFACC5" stroke="#FFACC5" stroke-width="4.51658" stroke-linecap="round"/>
<path d="M531.866 205.03C536.157 205.03 539.635 202.494 539.635 199.365C539.635 196.236 536.157 193.7 531.866 193.7C527.576 193.7 524.098 196.236 524.098 199.365C524.098 202.494 527.576 205.03 531.866 205.03Z" fill="#FF8356"/>
<path d="M524.235 192.58C525.666 192.58 526.826 191.421 526.826 189.99C526.826 188.559 525.666 187.399 524.235 187.399C522.804 187.399 521.645 188.559 521.645 189.99C521.645 191.421 522.804 192.58 524.235 192.58Z" fill="#272725"/>
<path d="M537.54 191.88C538.971 191.88 540.13 190.72 540.13 189.29C540.13 187.859 538.971 186.699 537.54 186.699C536.109 186.699 534.949 187.859 534.949 189.29C534.949 190.72 536.109 191.88 537.54 191.88Z" fill="#272725"/>
<path d="M539.635 206.998C539.635 209.058 538.816 211.034 537.359 212.491C535.902 213.948 533.927 214.766 531.866 214.766C529.806 214.766 527.83 213.948 526.373 212.491C524.916 211.034 524.098 209.058 524.098 206.998" stroke="#272725" stroke-width="2.5809" stroke-linecap="round"/>
<path d="M529.784 106.704L503.266 148.179H550.399L529.784 106.704Z" fill="#FFD44A"/>
<mask id="mask0_5529_27974" style="mask-type:luminance" maskUnits="userSpaceOnUse" x="503" y="106" width="48" height="43">
<path d="M529.777 106.704L503.258 148.179H550.392L529.777 106.704Z" fill="white"/>
</mask>
<g mask="url(#mask0_5529_27974)">
<path d="M497.417 123.499L493.375 128.328L533.531 161.939L537.573 157.11L497.417 123.499Z" fill="#FF5FAB"/>
<path d="M509.472 118.55L505.43 123.379L545.586 156.99L549.628 152.161L509.472 118.55Z" fill="#FF5FAB"/>
<path d="M517.597 108.229L513.555 113.058L553.711 146.669L557.753 141.84L517.597 108.229Z" fill="#FF5FAB"/>
</g>
<path d="M529.673 110.104C532.74 110.104 535.225 107.619 535.225 104.552C535.225 101.486 532.74 99 529.673 99C526.607 99 524.121 101.486 524.121 104.552C524.121 107.619 526.607 110.104 529.673 110.104Z" fill="#FF9C6A"/>
<path d="M537.801 254.812L540.317 254.977" stroke="#B26138" stroke-width="0.645226" stroke-miterlimit="10"/>
<path d="M511.152 240.865L477.93 239.246L476.997 258.384L510.219 260.003L511.152 240.865Z" fill="white"/>
<path d="M482.699 254.587C482.588 254.587 482.477 254.564 482.375 254.519C482.273 254.475 482.181 254.409 482.106 254.327C482.031 254.244 481.974 254.147 481.939 254.041C481.904 253.935 481.891 253.823 481.902 253.712L482.357 244.424C482.355 244.313 482.378 244.202 482.422 244.099C482.467 243.997 482.532 243.905 482.615 243.83C482.698 243.755 482.796 243.698 482.902 243.664C483.008 243.63 483.12 243.618 483.231 243.631L487.729 243.847L492.245 244.069C492.356 244.07 492.466 244.093 492.567 244.137C492.669 244.181 492.76 244.246 492.836 244.328C492.909 244.411 492.966 244.509 493.001 244.615C493.035 244.721 493.048 244.833 493.039 244.944L492.584 254.232C492.583 254.343 492.56 254.452 492.516 254.554C492.471 254.655 492.407 254.746 492.326 254.822C492.242 254.895 492.144 254.951 492.038 254.985C491.932 255.02 491.821 255.032 491.71 255.022L482.699 254.587ZM483.589 253.47L490.848 253.825C490.89 253.833 490.933 253.831 490.973 253.819C491.014 253.808 491.051 253.787 491.082 253.758C491.113 253.73 491.138 253.695 491.153 253.655C491.168 253.616 491.175 253.574 491.171 253.532L491.561 245.502C491.569 245.46 491.567 245.418 491.555 245.377C491.544 245.336 491.523 245.299 491.494 245.268C491.466 245.237 491.431 245.212 491.391 245.197C491.352 245.182 491.31 245.176 491.268 245.179L487.632 245.002L484.009 244.821C483.968 244.813 483.925 244.814 483.884 244.826C483.844 244.837 483.806 244.857 483.775 244.885C483.744 244.914 483.719 244.949 483.704 244.988C483.688 245.027 483.682 245.069 483.686 245.111L483.293 253.148C483.284 253.19 483.286 253.233 483.297 253.274C483.309 253.315 483.33 253.353 483.359 253.385C483.388 253.416 483.424 253.44 483.464 253.455C483.504 253.47 483.547 253.475 483.589 253.47ZM487.683 253.516C487.383 253.516 487.2 253.393 487.132 253.193C487.009 252.87 487.167 252.728 487.603 252.767C487.645 252.767 487.706 252.767 487.783 252.767H487.861C487.971 252.767 488.029 252.719 488.035 252.622L488.058 252.161C488.066 252.119 488.064 252.076 488.053 252.035C488.042 251.994 488.021 251.957 487.992 251.925C487.964 251.894 487.928 251.869 487.889 251.854C487.849 251.839 487.806 251.834 487.764 251.838L485.828 251.741C486.06 251.986 486.275 252.246 486.474 252.519C486.496 252.559 486.51 252.604 486.514 252.65C486.518 252.696 486.512 252.743 486.496 252.786C486.479 252.832 486.453 252.874 486.418 252.908C486.384 252.943 486.342 252.969 486.296 252.986H486.254C486.085 253.086 485.884 253.115 485.694 253.068C485.504 253.02 485.34 252.899 485.238 252.732C484.933 252.286 485.048 251.953 485.583 251.731H485.609L484.054 251.654C484 251.651 483.947 251.638 483.899 251.615C483.85 251.592 483.807 251.559 483.77 251.519C483.734 251.479 483.706 251.433 483.688 251.382C483.67 251.331 483.663 251.277 483.665 251.223C483.668 251.17 483.681 251.117 483.705 251.068C483.728 251.02 483.76 250.976 483.8 250.94C483.84 250.904 483.887 250.876 483.938 250.858C483.988 250.84 484.042 250.832 484.096 250.835L485.906 250.922L488.129 251.031V251.002C488.129 250.902 488.216 250.818 488.374 250.757C488.502 250.705 488.639 250.681 488.777 250.686C488.914 250.696 489.048 250.733 489.171 250.796C489.313 250.873 489.38 250.96 489.377 251.064V251.089L489.764 251.109C489.968 251.109 490.016 251.048 489.903 250.896C489.813 250.799 489.748 250.722 489.706 250.67C488.351 250.653 486.541 250.621 484.277 250.573C484.064 250.573 483.954 250.428 483.954 250.17C483.943 250.058 483.968 249.945 484.025 249.847C484.062 249.811 484.106 249.783 484.156 249.768C484.205 249.752 484.258 249.748 484.309 249.757L486.787 249.88L486.809 249.454L485.125 249.373C485.014 249.372 484.904 249.348 484.802 249.303C484.7 249.258 484.608 249.193 484.532 249.112C484.458 249.029 484.403 248.931 484.368 248.826C484.334 248.721 484.321 248.609 484.331 248.499L484.377 247.547C484.378 247.436 484.402 247.326 484.447 247.224C484.492 247.122 484.557 247.03 484.638 246.954C484.801 246.813 485.013 246.742 485.228 246.757L486.912 246.837V246.605C486.916 246.584 486.915 246.563 486.909 246.543C486.903 246.522 486.892 246.504 486.878 246.488C486.863 246.473 486.846 246.461 486.826 246.453C486.806 246.445 486.785 246.442 486.764 246.444L484.451 246.331C484.342 246.325 484.24 246.277 484.167 246.196C484.094 246.115 484.057 246.009 484.062 245.9C484.068 245.792 484.116 245.69 484.197 245.617C484.278 245.544 484.384 245.506 484.493 245.512L486.958 245.631V245.605C486.962 245.538 486.983 245.473 487.02 245.416C487.057 245.36 487.107 245.314 487.167 245.282C487.299 245.214 487.447 245.182 487.596 245.189C487.744 245.196 487.888 245.243 488.012 245.324C488.069 245.361 488.116 245.412 488.147 245.472C488.178 245.532 488.193 245.599 488.19 245.666V245.692L490.668 245.815C490.771 245.827 490.866 245.879 490.933 245.958C491 246.038 491.035 246.14 491.03 246.244C491.025 246.348 490.981 246.446 490.907 246.519C490.832 246.592 490.733 246.635 490.629 246.637L488.458 246.531C488.416 246.523 488.373 246.524 488.332 246.536C488.291 246.547 488.254 246.568 488.222 246.596C488.191 246.625 488.167 246.66 488.151 246.7C488.136 246.74 488.131 246.782 488.135 246.825V246.902L489.858 246.986C489.969 246.985 490.079 247.008 490.181 247.053C490.283 247.098 490.375 247.164 490.45 247.246C490.524 247.329 490.581 247.426 490.616 247.532C490.651 247.637 490.663 247.749 490.651 247.86L490.593 249.044C490.595 249.125 490.58 249.206 490.548 249.281C490.517 249.356 490.471 249.423 490.413 249.48C490.286 249.584 490.124 249.634 489.961 249.618H489.922C490.136 249.79 490.334 249.981 490.513 250.189C490.57 250.249 490.613 250.321 490.638 250.4C490.663 250.479 490.67 250.562 490.658 250.644C490.642 250.73 490.608 250.811 490.558 250.882C490.508 250.954 490.443 251.013 490.368 251.057L490.235 251.141L490.58 251.157C490.637 251.156 490.694 251.166 490.747 251.187C490.799 251.208 490.847 251.24 490.887 251.281C490.927 251.321 490.958 251.37 490.978 251.423C490.998 251.476 491.007 251.533 491.004 251.589C491.002 251.646 490.987 251.702 490.962 251.753C490.937 251.804 490.902 251.849 490.858 251.886C490.815 251.922 490.764 251.95 490.71 251.966C490.655 251.982 490.598 251.987 490.542 251.98L489.616 251.935C489.574 251.927 489.532 251.929 489.491 251.941C489.45 251.952 489.413 251.973 489.382 252.002C489.351 252.03 489.326 252.065 489.311 252.105C489.296 252.144 489.29 252.186 489.293 252.228L489.267 252.741C489.274 252.923 489.234 253.103 489.151 253.264C489.06 253.381 488.927 253.457 488.78 253.477C488.419 253.543 488.05 253.561 487.683 253.532V253.516ZM485.49 247.77L486.864 247.838L486.883 247.463L486.19 247.431L485.803 247.412C485.762 247.402 485.719 247.402 485.679 247.411C485.638 247.421 485.6 247.441 485.568 247.468C485.537 247.496 485.512 247.53 485.497 247.57C485.481 247.609 485.476 247.651 485.48 247.692L485.49 247.77ZM485.583 248.754L486.816 248.812L486.835 248.441L486.141 248.405L485.654 248.383C485.628 248.378 485.601 248.379 485.575 248.386C485.55 248.393 485.526 248.406 485.506 248.424C485.487 248.442 485.471 248.464 485.462 248.489C485.452 248.513 485.448 248.54 485.451 248.567V248.605C485.448 248.624 485.449 248.643 485.455 248.662C485.46 248.68 485.47 248.696 485.482 248.711C485.495 248.725 485.51 248.736 485.528 248.744C485.545 248.751 485.564 248.754 485.583 248.754ZM488.096 247.896L488.764 247.928L489.432 247.963V247.731C489.436 247.712 489.435 247.692 489.429 247.673C489.424 247.655 489.414 247.637 489.401 247.623C489.388 247.609 489.372 247.598 489.354 247.591C489.335 247.584 489.316 247.581 489.296 247.583L488.103 247.525L488.096 247.896ZM488.051 248.863L488.719 248.896L489.193 248.918C489.219 248.923 489.246 248.922 489.272 248.915C489.298 248.908 489.321 248.895 489.341 248.877C489.361 248.859 489.376 248.837 489.386 248.812C489.395 248.788 489.399 248.761 489.397 248.734V248.699C489.401 248.68 489.4 248.66 489.395 248.641C489.39 248.622 489.381 248.604 489.367 248.589C489.354 248.575 489.338 248.564 489.319 248.557C489.3 248.55 489.281 248.548 489.261 248.551L488.067 248.492L488.051 248.863ZM488 249.918L489.013 249.967L488.916 249.883C488.89 249.857 488.89 249.835 488.916 249.818L489.326 249.57L488.68 249.538L488.035 249.505L488 249.918Z" fill="#FF8A7F"/>
<path d="M495.098 255.409C494.899 255.399 494.712 255.311 494.578 255.163C494.444 255.015 494.374 254.82 494.384 254.62C494.394 254.421 494.482 254.234 494.63 254.1C494.778 253.966 494.973 253.896 495.173 253.906L499.27 254.106L499.389 251.628L496.486 251.486C496.389 251.481 496.293 251.457 496.206 251.416C496.118 251.374 496.039 251.316 495.974 251.244C495.909 251.172 495.859 251.087 495.826 250.996C495.793 250.904 495.779 250.807 495.784 250.71C495.789 250.613 495.813 250.518 495.854 250.431C495.896 250.343 495.954 250.264 496.026 250.199C496.172 250.067 496.364 249.999 496.56 250.009L499.463 250.151L499.57 247.928L496.021 247.754C495.923 247.749 495.827 247.725 495.739 247.683C495.65 247.641 495.571 247.582 495.505 247.509C495.439 247.436 495.388 247.352 495.355 247.259C495.322 247.167 495.308 247.069 495.313 246.971C495.318 246.873 495.342 246.777 495.384 246.689C495.426 246.6 495.485 246.521 495.557 246.455C495.63 246.389 495.715 246.339 495.807 246.306C495.899 246.273 495.997 246.258 496.095 246.263L500.438 246.476C500.075 246.096 499.693 245.735 499.292 245.395C498.836 245.008 498.875 244.648 499.408 244.315C499.546 244.213 499.713 244.161 499.883 244.167C500.054 244.173 500.217 244.236 500.347 244.347C500.84 244.715 501.31 245.112 501.757 245.534C501.822 245.6 501.871 245.68 501.899 245.768C501.927 245.856 501.934 245.949 501.918 246.041C501.898 246.139 501.856 246.232 501.795 246.313C501.734 246.393 501.656 246.459 501.567 246.505L501.541 246.531L504.828 246.689C504.926 246.694 505.022 246.718 505.111 246.759C505.199 246.801 505.279 246.86 505.345 246.932C505.411 247.005 505.462 247.09 505.495 247.182C505.528 247.274 505.543 247.372 505.538 247.47C505.533 247.568 505.51 247.664 505.468 247.752C505.426 247.841 505.367 247.92 505.295 247.986C505.222 248.052 505.137 248.103 505.045 248.136C504.953 248.169 504.855 248.184 504.757 248.179L501.238 248.009L501.128 250.231L504.031 250.373C504.227 250.383 504.412 250.47 504.543 250.615C504.675 250.76 504.744 250.952 504.735 251.148C504.725 251.343 504.638 251.528 504.493 251.66C504.348 251.791 504.156 251.86 503.96 251.851L501.057 251.709L500.934 254.187L505.086 254.39C505.189 254.378 505.293 254.39 505.389 254.426C505.486 254.462 505.572 254.521 505.642 254.598C505.711 254.674 505.761 254.766 505.787 254.866C505.813 254.965 505.815 255.07 505.793 255.171C505.804 255.273 505.79 255.377 505.754 255.474C505.718 255.57 505.659 255.657 505.583 255.727C505.508 255.797 505.417 255.849 505.317 255.878C505.218 255.906 505.114 255.912 505.012 255.893L500.054 255.651L495.098 255.409Z" fill="#FF8A7F"/>
</g>
<path d="M813.803 294.849C812.827 294.846 811.865 294.612 810.997 294.164C810.13 293.716 809.381 293.068 808.814 292.274C808.247 291.479 807.877 290.561 807.735 289.595C807.593 288.63 807.684 287.644 807.999 286.72L809.885 281.236L809.175 280.697C808.5 280.211 807.934 279.59 807.513 278.873C807.091 278.157 806.823 277.36 806.725 276.535L806.064 271.344C805.956 270.546 806.009 269.734 806.219 268.956C806.429 268.178 806.793 267.45 807.289 266.815L807.607 266.398L805.158 248.158C805.048 247.363 805.099 246.555 805.31 245.78C805.52 245.006 805.885 244.283 806.383 243.653C806.862 242.994 807.469 242.438 808.167 242.017C808.866 241.597 809.641 241.32 810.448 241.205L821.444 239.785L820.906 235.598C820.801 234.803 820.855 233.996 821.066 233.223C821.276 232.449 821.638 231.725 822.13 231.093C822.613 230.437 823.22 229.883 823.918 229.462C824.616 229.042 825.39 228.764 826.196 228.645L837.511 227.2C837.771 227.176 838.034 227.176 838.294 227.2C839.77 227.196 841.197 227.726 842.311 228.693L842.727 229.061L857.593 227.127H858.377C859.864 227.131 861.298 227.675 862.415 228.656C863.532 229.638 864.255 230.99 864.451 232.464L865.136 237.826C865.346 239.397 864.933 240.987 863.985 242.257L863.691 242.674L865.749 258.637L866.189 258.955C866.86 259.451 867.424 260.077 867.845 260.797C868.266 261.517 868.536 262.315 868.639 263.142L869.3 268.333C869.503 269.884 869.1 271.454 868.173 272.715L867.683 273.425L871.088 278.322C871.68 279.189 872.043 280.191 872.141 281.236C872.24 282.281 872.071 283.334 871.651 284.296C871.215 285.266 870.535 286.105 869.676 286.732C868.817 287.359 867.809 287.751 866.753 287.871L855.144 289.364C854.883 289.388 854.621 289.388 854.36 289.364C853.197 289.372 852.056 289.04 851.079 288.409L850.221 287.871L849.511 288.63C848.538 289.673 847.229 290.34 845.813 290.515L834.914 291.935H834.106C833.012 291.931 831.938 291.635 830.996 291.078L830.188 290.588L829.502 291.274C828.536 292.238 827.279 292.857 825.926 293.037L814.342 294.53L813.803 294.849Z" fill="white"/>
<path d="M858.382 228.449C859.581 228.439 860.743 228.87 861.646 229.66C862.548 230.45 863.13 231.543 863.28 232.733L863.966 238.095C864.128 239.343 863.803 240.606 863.059 241.621L862.472 242.429V243.408L864.406 258.368V259.421L865.288 260.033C865.838 260.427 866.301 260.93 866.646 261.512C866.992 262.093 867.213 262.74 867.296 263.411L867.958 268.602C868.121 269.839 867.805 271.091 867.076 272.103L866.047 273.499L867.051 274.919L869.966 279.179C870.437 279.87 870.724 280.67 870.798 281.503C870.873 282.335 870.733 283.174 870.392 283.937C870.05 284.7 869.519 285.364 868.849 285.864C868.178 286.364 867.391 286.684 866.562 286.793L854.953 288.311H854.341C853.412 288.32 852.501 288.056 851.72 287.552L849.981 286.451L848.61 287.944C847.833 288.79 846.784 289.336 845.646 289.487L834.723 290.882H834.087C833.224 290.873 832.379 290.637 831.638 290.197L829.997 289.217L828.65 290.588C827.87 291.354 826.866 291.852 825.784 292.008L814.175 293.502H813.539C812.815 293.497 812.102 293.332 811.45 293.019C810.798 292.706 810.223 292.252 809.767 291.69C809.234 291.045 808.876 290.274 808.726 289.451C808.576 288.628 808.639 287.781 808.91 286.989L810.526 282.362L811.114 280.648L809.645 279.595C809.105 279.204 808.65 278.707 808.309 278.135C807.968 277.562 807.747 276.926 807.661 276.265L807 271.075C806.917 270.431 806.963 269.776 807.135 269.15C807.307 268.524 807.603 267.938 808.004 267.427L808.616 266.619L808.494 265.615L806.191 247.889C806.037 246.6 806.388 245.301 807.171 244.265C807.565 243.756 808.056 243.33 808.614 243.011C809.173 242.691 809.79 242.485 810.428 242.404L820.225 241.131L822.674 240.813L822.355 238.365L821.988 235.402C821.928 234.751 821.999 234.094 822.196 233.471C822.394 232.847 822.715 232.27 823.139 231.772C823.564 231.275 824.084 230.867 824.668 230.574C825.253 230.281 825.891 230.108 826.543 230.065L837.858 228.596H838.495C839.674 228.596 840.813 229.022 841.703 229.795L842.536 230.505L843.638 230.358L857.941 228.522H858.578M858.578 226.074H857.622L843.32 227.91C841.96 226.736 840.218 226.1 838.422 226.123C838.104 226.098 837.784 226.098 837.466 226.123L826.176 227.592C824.244 227.842 822.49 228.849 821.3 230.392C820.111 231.934 819.583 233.886 819.833 235.818L820.2 238.781L810.404 240.054C808.472 240.304 806.718 241.311 805.528 242.854C804.339 244.397 803.811 246.349 804.061 248.28L806.363 266.007C805.765 266.773 805.325 267.65 805.069 268.587C804.812 269.524 804.744 270.503 804.869 271.467L805.53 276.633C805.671 277.606 806.006 278.54 806.515 279.381C807.024 280.223 807.697 280.953 808.494 281.529L806.902 286.181C806.495 287.362 806.397 288.627 806.615 289.857C806.834 291.086 807.362 292.24 808.151 293.208C808.837 294.054 809.703 294.737 810.686 295.207C811.668 295.677 812.743 295.922 813.833 295.926C814.151 295.95 814.47 295.95 814.788 295.926L826.396 294.432C828.023 294.22 829.532 293.471 830.682 292.302C831.806 292.978 833.094 293.333 834.405 293.331H835.36L846.136 291.935C847.843 291.721 849.42 290.915 850.594 289.658C851.774 290.4 853.142 290.791 854.537 290.784H855.467L867.076 289.291C868.325 289.128 869.511 288.647 870.52 287.894C871.529 287.141 872.328 286.141 872.839 284.991C873.351 283.84 873.558 282.577 873.44 281.324C873.323 280.07 872.886 278.868 872.17 277.832L869.256 273.572C870.401 272.026 870.893 270.091 870.627 268.186L869.941 262.995C869.813 261.993 869.48 261.027 868.961 260.159C868.443 259.291 867.751 258.54 866.929 257.952L865.962 250.472L864.994 242.992C866.129 241.468 866.63 239.564 866.39 237.679L865.729 232.415C865.501 230.632 864.628 228.995 863.274 227.813C861.92 226.631 860.179 225.986 858.382 226L858.578 226.074Z" fill="#EA8965"/>
<path d="M825.395 287.21L813.811 288.703L817.974 276.461L829.534 274.968L825.395 287.21ZM843.69 271.76L845.355 284.639L834.456 286.059L832.718 273.083L812.782 275.653L812.096 270.634L832.056 268.186L831.689 265.395L813.909 267.696L811.312 247.57L828.456 245.367L827.134 235.108L838.448 233.664L838.767 236.112L858.531 233.664L859.217 239.026L839.453 241.474L839.771 243.922L857.502 241.621L860.098 261.722L842.661 263.975L843.028 266.79L862.792 264.219L863.454 269.41L843.69 271.76ZM847.437 247.938L822.872 251.047L823.166 253.496L847.657 250.337L847.437 247.938ZM848.367 255.283L823.876 258.441L824.195 260.89L848.686 257.731L848.367 255.283ZM854.686 283.439L847.339 272.789L858.996 271.295L866.344 281.946L854.686 283.439Z" fill="#EA8965"/>
<path d="M908.96 265.178C907.998 265.181 907.049 264.955 906.192 264.517L905.653 264.346L905.09 264.615C904.233 265.053 903.285 265.279 902.323 265.276H891.449C890.383 265.277 889.336 265 888.41 264.472C887.484 263.945 886.712 263.184 886.17 262.267C885.629 261.349 885.336 260.307 885.321 259.241C885.306 258.176 885.569 257.125 886.085 256.193L890.322 248.578V247.012L889.71 246.669C888.773 246.134 887.994 245.36 887.452 244.427C886.91 243.494 886.624 242.435 886.624 241.356V235.798C886.617 234.865 886.826 233.943 887.236 233.105L888.265 231.024L887.702 230.412C886.659 229.286 886.082 227.808 886.085 226.274V220.618C886.08 219.776 886.252 218.942 886.59 218.17C886.927 217.398 887.423 216.706 888.045 216.137L888.632 215.599L886.306 209.429C885.965 208.505 885.854 207.512 885.981 206.536C886.109 205.559 886.471 204.628 887.036 203.822C887.602 203.016 888.354 202.359 889.229 201.907C890.105 201.455 891.076 201.222 892.061 201.227H902.69C903.718 201.231 904.728 201.492 905.629 201.986L906.217 202.304L906.805 201.986C907.706 201.492 908.716 201.231 909.744 201.227H920.152C921.225 201.233 922.278 201.511 923.214 202.035L923.826 202.402L924.438 202.035C925.374 201.511 926.427 201.233 927.499 201.227H937.296C938.234 201.208 939.165 201.405 940.014 201.805C940.864 202.204 941.61 202.794 942.194 203.528C942.443 203.83 942.656 204.158 942.831 204.508L943.174 205.169H944.447C945.251 205.169 946.047 205.327 946.79 205.635C947.533 205.942 948.208 206.393 948.777 206.962C949.345 207.53 949.796 208.205 950.104 208.947C950.412 209.69 950.57 210.486 950.57 211.29V216.872C950.578 218.043 950.247 219.191 949.615 220.177L949.321 220.643V221.157C949.448 221.653 949.514 222.163 949.517 222.675V227.571C949.518 228.281 949.394 228.986 949.149 229.653L948.929 230.265L949.321 230.803C950.139 231.861 950.579 233.163 950.57 234.5V240.156C950.573 241.279 950.266 242.38 949.682 243.339C949.099 244.298 948.262 245.078 947.264 245.591L945.01 246.742L947.313 247.795C948.472 248.297 949.441 249.154 950.08 250.243C950.616 251.166 950.898 252.213 950.898 253.279C950.898 254.346 950.616 255.393 950.08 256.315L946.921 261.971C946.385 262.914 945.608 263.699 944.67 264.245C943.733 264.791 942.667 265.08 941.582 265.081L908.96 265.178Z" fill="white"/>
<path d="M937.339 202.451C938.077 202.448 938.806 202.611 939.472 202.929C940.138 203.247 940.723 203.712 941.184 204.287C941.378 204.533 941.55 204.795 941.699 205.071L942.385 206.393H944.393C945.692 206.393 946.938 206.909 947.856 207.827C948.775 208.746 949.291 209.991 949.291 211.29V216.872C949.289 217.807 949.026 218.723 948.532 219.516L947.944 220.422L948.213 221.45C948.31 221.851 948.36 222.262 948.36 222.675V227.571C948.36 228.139 948.26 228.703 948.066 229.236L947.626 230.485L948.434 231.538C949.075 232.392 949.419 233.432 949.413 234.5V240.156C949.411 241.051 949.163 241.928 948.697 242.692C948.23 243.456 947.563 244.078 946.768 244.49L942.287 246.938L946.891 249.019C947.816 249.443 948.587 250.145 949.095 251.027C949.525 251.771 949.751 252.616 949.751 253.475C949.751 254.335 949.525 255.179 949.095 255.924L945.911 261.555C945.48 262.302 944.858 262.922 944.11 263.352C943.362 263.782 942.513 264.007 941.65 264.003H908.954C908.19 264.006 907.435 263.83 906.75 263.489L905.624 262.926L904.522 263.489C903.837 263.83 903.082 264.006 902.317 264.003H891.443C890.58 264.011 889.73 263.79 888.979 263.364C888.228 262.937 887.603 262.32 887.168 261.574C886.733 260.828 886.503 259.981 886.501 259.118C886.499 258.254 886.726 257.406 887.157 256.658L891.223 249.313L891.541 248.75V246.204L890.292 245.518C889.545 245.087 888.925 244.465 888.495 243.717C888.064 242.969 887.84 242.121 887.843 241.258V235.798C887.84 235.052 888.008 234.315 888.333 233.643L888.994 232.297L889.705 230.803L888.578 229.579C887.756 228.675 887.301 227.496 887.304 226.274V220.618C887.307 219.947 887.447 219.283 887.716 218.668C887.986 218.053 888.379 217.5 888.872 217.043L890.047 215.942L889.509 214.424L887.549 209.013C887.28 208.274 887.193 207.481 887.295 206.701C887.398 205.921 887.686 205.177 888.137 204.532C888.59 203.888 889.191 203.363 889.891 203C890.59 202.638 891.366 202.45 892.154 202.451H902.783C903.64 202.427 904.487 202.639 905.232 203.063L906.407 203.7L907.583 203.063C908.328 202.639 909.175 202.427 910.032 202.451H920.441C921.301 202.453 922.146 202.681 922.89 203.112L924.114 203.822L925.339 203.112C926.083 202.681 926.928 202.453 927.788 202.451H937.584M937.584 200.003H927.788C926.499 200.001 925.232 200.339 924.114 200.982C922.997 200.339 921.73 200.001 920.441 200.003H910.032C908.799 200.004 907.586 200.316 906.505 200.909C905.427 200.31 904.212 199.998 902.979 200.003H892.35C891.134 199.97 889.93 200.239 888.844 200.786C887.758 201.333 886.825 202.141 886.129 203.137C885.455 204.102 885.023 205.216 884.869 206.383C884.716 207.551 884.845 208.738 885.247 209.845L887.206 215.256C886.45 215.932 885.842 216.758 885.42 217.681C884.999 218.604 884.773 219.604 884.757 220.618V226.274C884.775 228.089 885.464 229.833 886.692 231.171L886.031 232.517C885.543 233.524 885.292 234.63 885.296 235.749V241.209C885.298 242.501 885.641 243.771 886.29 244.888C886.939 246.006 887.872 246.933 888.994 247.575V248.113L884.929 255.458C884.306 256.576 883.986 257.837 884 259.117C884.015 260.397 884.364 261.65 885.012 262.753C885.661 263.857 886.586 264.772 887.697 265.407C888.808 266.043 890.065 266.378 891.345 266.378H902.219C903.376 266.383 904.517 266.114 905.55 265.595C906.576 266.111 907.708 266.379 908.856 266.378H941.601C942.903 266.376 944.181 266.028 945.304 265.37C946.427 264.711 947.355 263.767 947.993 262.632L951.177 257.001C951.679 256.112 951.99 255.129 952.09 254.113C952.191 253.097 952.078 252.072 951.76 251.102C951.442 250.132 950.926 249.239 950.243 248.48C949.561 247.721 948.728 247.112 947.797 246.693C948.991 246.075 949.993 245.14 950.692 243.992C951.392 242.844 951.763 241.525 951.765 240.181V234.549C951.763 232.949 951.238 231.393 950.271 230.118C950.556 229.333 950.705 228.505 950.711 227.669V222.724C950.712 222.105 950.638 221.488 950.491 220.887C951.246 219.702 951.646 218.326 951.642 216.921V211.29C951.642 209.342 950.868 207.473 949.49 206.096C948.112 204.718 946.243 203.945 944.295 203.945H943.756C943.535 203.525 943.281 203.124 942.997 202.745C942.305 201.885 941.429 201.192 940.432 200.717C939.436 200.242 938.345 199.998 937.241 200.003H937.584Z" fill="#EA8965"/>
<path d="M941.693 259.058H908.949L904.295 255.605L902.311 259.058H891.438L896.336 250.072V241.258H892.638V235.798L897.266 226.274H892.099V220.618H906.793V228.257L903.34 235.602H906.793V250.513L907.259 250.929L908.851 245.126V217.827H907.087V212.22H910.981L909.855 207.323H920.263L921.39 212.22H925.676V215.158L927.611 207.348H937.407L936.525 211.29H944.46V216.872H935.178L934.125 221.034H924.329L924.99 217.827H917.643V223.63H925.162V251.419H918.353L916.884 247.599L915.659 251.419H907.944L910.638 253.426H944.754L941.693 259.058ZM896.262 218.684L892.148 207.348H902.777L907.014 218.684H896.262ZM919.896 229.089H917.765V245.665H919.896V229.089ZM940.468 240.205V251.419H928.223L925.774 245.836H930.672V240.205H926.484V234.549H930.672V232.37L933.244 228.33H926.435V222.724H943.358V227.62L940.37 232.786V234.549H944.411V240.205H940.468Z" fill="#EA8965"/>
<path d="M1022.76 299.881C1022.52 299.905 1022.28 299.905 1022.05 299.881L1013.28 298.852C1012.64 298.779 1012.02 298.606 1011.44 298.338L1011.07 298.191H1010.71C1010.31 298.228 1009.91 298.228 1009.51 298.191H1008.8L999.981 297.138C999.707 297.113 999.437 297.064 999.172 296.992H998.829H998.046L989.523 295.963C988.354 295.832 987.247 295.364 986.339 294.617L985.727 294.102L984.992 294.445C984.155 294.863 983.233 295.081 982.298 295.082H981.588L971.375 293.882C970.2 293.748 969.089 293.277 968.177 292.525C967.264 291.773 966.589 290.774 966.232 289.646L964.42 283.868C964.115 282.895 964.059 281.861 964.256 280.861C964.452 279.86 964.896 278.925 965.546 278.139C965.69 277.95 965.855 277.778 966.036 277.625L966.673 276.988L966.281 276.18C965.736 275.117 965.523 273.914 965.669 272.728L966.428 266.264C966.545 265.299 966.887 264.375 967.428 263.567C967.968 262.759 968.691 262.09 969.538 261.613L970.102 261.319L970.91 254.292L970.42 253.876C969.648 253.223 969.049 252.39 968.677 251.45C968.305 250.51 968.172 249.493 968.289 248.489L968.926 242.956C969.045 241.951 969.412 240.99 969.993 240.161C970.574 239.333 971.352 238.661 972.257 238.206L972.845 237.888L973.114 235.635C973.288 234.146 974.002 232.773 975.122 231.776C976.241 230.778 977.688 230.226 979.188 230.224H979.898L989.082 231.302C990.034 231.421 990.946 231.759 991.745 232.29C992.544 232.821 993.208 233.53 993.686 234.362L993.98 234.901L995.719 235.121L996.135 234.656C996.708 234.039 997.401 233.547 998.172 233.21C998.943 232.873 999.776 232.698 1000.62 232.697H1001.33L1010.85 233.823C1011.38 233.882 1011.89 234.014 1012.37 234.215H1012.69H1013.01C1013.29 234.19 1013.58 234.19 1013.87 234.215H1014.58L1022.88 235.195C1024.32 235.357 1025.65 236.028 1026.64 237.088C1027.63 238.148 1028.21 239.525 1028.27 240.973V241.781L1029.03 242.074C1030.11 242.494 1031.06 243.206 1031.77 244.131C1032.26 244.803 1032.62 245.568 1032.81 246.38C1033 247.193 1033.02 248.035 1032.87 248.856L1029.66 267.048C1029.54 267.835 1029.26 268.589 1028.84 269.266C1028.42 269.943 1027.87 270.529 1027.21 270.99L1026.77 271.479L1028.98 293.099C1029.06 293.998 1028.94 294.905 1028.63 295.752C1028.31 296.599 1027.81 297.365 1027.17 297.995C1026.6 298.596 1025.92 299.073 1025.16 299.397C1024.4 299.722 1023.58 299.886 1022.76 299.881Z" fill="white"/>
<path d="M979.183 231.449H979.771L988.93 232.526C989.692 232.618 990.421 232.887 991.059 233.313C991.697 233.738 992.226 234.307 992.604 234.974L993.216 236.051L994.465 236.198H994.955L996.18 236.345L997.037 235.439C997.494 234.947 998.047 234.554 998.662 234.284C999.277 234.015 999.941 233.875 1000.61 233.872H1001.18L1010.7 234.999C1011.12 235.047 1011.53 235.146 1011.93 235.292L1012.54 235.537H1013.18H1013.86H1014.52L1022.8 236.517C1023.96 236.65 1025.03 237.191 1025.83 238.044C1026.62 238.896 1027.09 240.004 1027.14 241.169V242.76L1028.63 243.348C1029.68 243.76 1030.56 244.525 1031.12 245.511C1031.67 246.497 1031.86 247.645 1031.67 248.759L1028.46 266.974C1028.23 268.239 1027.52 269.364 1026.48 270.108L1025.3 270.941L1025.45 272.361L1027.58 293.27C1027.65 293.953 1027.57 294.643 1027.35 295.295C1027.14 295.946 1026.79 296.546 1026.33 297.054C1025.87 297.562 1025.3 297.967 1024.67 298.243C1024.05 298.519 1023.37 298.66 1022.68 298.656H1022.12L1013.35 297.628C1012.84 297.565 1012.34 297.424 1011.88 297.212L1011.17 296.869L1010.38 297.041C1010.07 297.065 1009.75 297.065 1009.43 297.041H1008.84L1000.02 296.012L999.388 295.89H998.996H998.114L989.592 294.886C988.689 294.754 987.84 294.372 987.143 293.784L985.918 292.78L984.473 293.466C983.807 293.808 983.067 293.985 982.318 293.98H981.755L971.517 292.78C970.58 292.667 969.695 292.286 968.97 291.682C968.244 291.079 967.708 290.278 967.427 289.377L965.542 283.501C965.295 282.719 965.249 281.888 965.407 281.084C965.566 280.28 965.923 279.528 966.448 278.898L966.815 278.506L968.138 277.258L967.329 275.642C966.888 274.791 966.717 273.826 966.84 272.875L967.599 266.411C967.684 265.642 967.95 264.903 968.375 264.256C968.801 263.609 969.374 263.072 970.048 262.69L971.125 262.078L971.272 260.829L971.958 255.1L972.105 253.802L971.101 252.945C970.486 252.422 970.009 251.755 969.715 251.003C969.42 250.251 969.315 249.438 969.411 248.636L970.048 243.078C970.161 242.257 970.481 241.478 970.978 240.814C971.475 240.151 972.133 239.624 972.889 239.283L974.064 238.696L974.211 237.398L974.407 235.758C974.552 234.563 975.131 233.464 976.034 232.669C976.938 231.874 978.102 231.44 979.305 231.449M979.305 229C977.497 228.988 975.747 229.643 974.391 230.84C973.035 232.037 972.169 233.692 971.958 235.488L971.787 237.104C970.701 237.651 969.768 238.458 969.072 239.454C968.375 240.449 967.936 241.602 967.795 242.809L967.133 248.342C966.994 249.548 967.156 250.77 967.605 251.898C968.054 253.026 968.775 254.025 969.705 254.806L969.019 260.56C968.003 261.125 967.136 261.924 966.488 262.89C965.841 263.857 965.433 264.963 965.297 266.118L964.537 272.606C964.366 274.025 964.613 275.463 965.248 276.743C965.041 276.93 964.853 277.135 964.684 277.356C963.904 278.299 963.372 279.423 963.137 280.625C962.902 281.826 962.971 283.067 963.337 284.236L965.125 290.014C965.551 291.368 966.361 292.57 967.457 293.474C968.552 294.378 969.886 294.945 971.297 295.106L981.51 296.306H982.367C983.496 296.307 984.611 296.047 985.624 295.547C986.709 296.458 988.038 297.028 989.445 297.187L997.968 298.191H998.849C999.17 298.29 999.497 298.363 999.829 298.412L1008.65 299.44C1008.93 299.464 1009.22 299.464 1009.5 299.44C1009.97 299.489 1010.45 299.489 1010.92 299.44C1011.62 299.758 1012.37 299.964 1013.13 300.052L1021.9 301.08H1022.75C1024.68 301.079 1026.52 300.323 1027.9 298.975C1028.68 298.204 1029.28 297.267 1029.65 296.233C1030.03 295.199 1030.16 294.094 1030.05 293.001L1027.94 272.092C1029.52 270.972 1030.6 269.273 1030.93 267.366L1034.12 249.199C1034.29 248.215 1034.26 247.205 1034.03 246.232C1033.79 245.26 1033.37 244.345 1032.77 243.544C1031.92 242.429 1030.78 241.58 1029.46 241.095C1029.38 239.359 1028.69 237.707 1027.5 236.434C1026.32 235.161 1024.72 234.348 1023 234.142L1014.69 233.162H1013.84C1013.5 233.137 1013.15 233.137 1012.81 233.162C1012.22 232.933 1011.6 232.777 1010.97 232.697L1001.45 231.595C1001.16 231.571 1000.87 231.571 1000.59 231.595C999.573 231.611 998.573 231.837 997.65 232.258C996.727 232.68 995.901 233.288 995.225 234.044H994.71C994.141 233.04 993.343 232.185 992.382 231.546C991.42 230.908 990.322 230.506 989.175 230.371L980.016 229.294C979.73 229.27 979.444 229.27 979.158 229.294L979.305 229Z" fill="#EA8965"/>
<path d="M984.849 267.293L982.4 289.01L972.187 287.81L970.375 282.032L973.877 282.448L975.126 271.871L971.844 273.463L972.628 266.974L975.885 265.408L977.747 249.591L974.465 249.199L975.126 243.666L978.384 244.033L979.29 236.345L988.449 237.423L987.592 245.11L989.919 245.404L989.257 250.938L986.931 250.668L985.755 260.707L988.327 259.458L987.543 266.069L984.849 267.293ZM988.817 284.431L985.143 283.991L989.209 259.85L992.784 260.266L988.817 284.431ZM1006.6 247.877L1003.85 247.559L1003.19 253.264L1006.7 253.68L1006.03 259.238L1002.53 258.821L998.76 291.066L990.237 290.063L994.009 258.013L988.694 257.401L989.355 251.795L994.67 252.407L995.331 246.702L990.605 246.139L991.217 240.899L999.397 241.854L1000.62 238.965L1010.15 240.091L1006.6 247.877ZM1013.94 292.707L1013.23 284.627L1009.63 292.193L1000.82 291.164L1003.27 286.268L1001.16 286.023L1003.02 261.539L1006.3 261.931L1005.01 282.595L1010.3 271.675L1013.97 240.459L1022.27 241.438L1018.67 271.969L1020.65 272.19L1022.86 293.809L1013.94 292.707ZM1006.89 264.134L1008.58 245.772L1011.84 246.139L1010.1 264.526L1006.89 264.134ZM1023.69 266.118L1020.02 265.677L1023.18 247.485L1026.9 247.926L1023.69 266.118Z" fill="#EA8965"/>
<path d="M1059.19 284.028C1057.71 284.019 1056.29 283.479 1055.18 282.508C1054.07 281.538 1053.34 280.2 1053.14 278.739L1046.18 228.033C1046.07 227.236 1046.12 226.424 1046.32 225.645C1046.53 224.866 1046.88 224.135 1047.37 223.494C1047.86 222.853 1048.47 222.314 1049.16 221.908C1049.86 221.502 1050.63 221.237 1051.42 221.129L1101.09 214.322H1101.92C1103.4 214.331 1104.83 214.869 1105.94 215.84C1107.06 216.81 1107.79 218.148 1108 219.611L1114.93 270.317C1115.15 271.924 1114.73 273.554 1113.75 274.848C1112.77 276.143 1111.32 276.996 1109.71 277.221L1060.02 284.028H1059.19Z" fill="white"/>
<path d="M1101.91 215.473C1103.11 215.462 1104.26 215.886 1105.16 216.666C1106.06 217.446 1106.65 218.528 1106.81 219.709L1113.65 270.39C1113.82 271.676 1113.48 272.978 1112.69 274.011C1111.91 275.044 1110.74 275.723 1109.46 275.899L1059.76 282.706H1059.08C1057.89 282.716 1056.73 282.292 1055.83 281.512C1054.93 280.733 1054.34 279.651 1054.18 278.47L1047.37 227.715C1047.2 226.428 1047.54 225.125 1048.33 224.091C1049.11 223.06 1050.28 222.382 1051.56 222.206L1101.25 215.473C1101.47 215.449 1101.69 215.449 1101.91 215.473ZM1101.91 213.025H1100.91L1051.24 219.88C1049.33 220.171 1047.61 221.202 1046.46 222.751C1045.3 224.3 1044.8 226.242 1045.07 228.156L1052.03 278.862C1052.27 280.631 1053.15 282.251 1054.5 283.418C1055.86 284.585 1057.59 285.22 1059.37 285.203C1059.71 285.227 1060.04 285.227 1060.38 285.203L1110.04 278.396C1111.95 278.078 1113.65 277.023 1114.78 275.461C1115.91 273.899 1116.38 271.954 1116.09 270.047L1109.14 219.342C1108.89 217.572 1108.01 215.953 1106.66 214.785C1105.31 213.618 1103.58 212.984 1101.79 213L1101.91 213.025Z" fill="#EA8965"/>
<path d="M1059.18 277.858L1052.23 227.152L1101.92 220.37L1108.87 271.076L1059.18 277.858ZM1092.95 226.785L1082.47 228.229L1082.72 229.968L1091.98 228.694L1092.54 232.955L1083.28 234.228L1083.5 235.672L1092.39 234.448L1094.06 247.302L1092.95 247.449L1096.14 253.839L1093.47 254.206L1093.59 255.137L1095.58 254.868L1096.11 258.76L1094.13 259.03L1095.18 266.669L1083.77 268.236L1082.82 267.281L1074.71 268.407L1069.81 263.314L1080 261.919L1081.91 264.024L1085 263.608L1084.53 260.327L1068.07 262.604L1067.53 258.687L1084.02 256.434L1083.8 254.868L1089.8 254.035L1089.31 253.105L1067.26 256.777L1066.73 252.933L1075.66 251.464L1075.44 249.848L1066.82 251.024L1065.06 238.145L1073.68 236.97L1073.48 235.525L1064.45 236.75L1064.08 232.612L1073.09 231.388L1072.85 229.649L1062.61 231.045L1068.15 271.516L1098.49 267.354L1092.95 226.785ZM1074.46 240.496L1071.77 240.863L1072.02 242.405L1074.71 242.038L1074.46 240.496ZM1075.03 244.682L1072.36 245.05L1072.58 246.739L1075.27 246.372L1075.03 244.682ZM1086.73 238.806L1084.06 239.173L1084.29 240.814L1086.98 240.447L1086.73 238.806ZM1087.32 242.993L1084.65 243.36L1084.87 245.05L1087.54 244.682L1087.32 242.993ZM1086.93 248.33L1085.36 248.551L1085.53 249.873L1087.57 249.481L1086.93 248.33Z" fill="#EA8965"/>
<path d="M916.828 143.478H873.172C869.763 143.478 867 146.181 867 149.515V154.485C867 157.819 869.763 160.522 873.172 160.522H916.828C920.237 160.522 923 157.819 923 154.485V149.515C923 146.181 920.237 143.478 916.828 143.478Z" fill="#EA8965" stroke="white" stroke-width="2.43478"/>
<path d="M873.082 154.435V149.565H916.908V154.435H873.082Z" fill="white"/>
<path d="M949.418 180C948.273 180.002 947.149 179.687 946.172 179.091C945.189 179.691 944.058 180.006 942.906 180H937.263C936.407 179.987 935.562 179.796 934.783 179.441C934.004 179.085 933.307 178.572 932.736 177.934C932.153 177.315 931.704 176.583 931.416 175.783C931.128 174.983 931.007 174.132 931.062 173.284L932.385 153.798C931.489 152.693 931 151.314 931 149.892V145.388C931.005 143.973 931.493 142.602 932.385 141.503C932.261 141.024 932.198 140.531 932.199 140.036V135.407C932.191 133.865 932.759 132.375 933.791 131.229C934.823 130.082 936.245 129.362 937.78 129.208C938.017 127.744 938.771 126.414 939.905 125.459C941.039 124.504 942.478 123.986 943.961 124H952.642C953.502 124.011 954.35 124.2 955.133 124.555C955.916 124.911 956.617 125.426 957.19 126.067C958.078 125.587 959.074 125.338 960.084 125.343H980.527C982.172 125.343 983.749 125.997 984.912 127.159C986.075 128.322 986.728 129.899 986.728 131.543V152.765C986.708 154.299 986.119 155.772 985.075 156.897C985.975 157.388 986.736 158.099 987.286 158.964C987.842 159.859 988.16 160.881 988.21 161.933C988.261 162.985 988.042 164.033 987.576 164.977L987.121 165.907C987.673 166.808 987.986 167.836 988.03 168.892C988.073 169.948 987.846 170.997 987.369 171.941L985.095 176.549C984.583 177.585 983.79 178.458 982.808 179.067C981.825 179.677 980.691 180 979.535 180H949.418Z" fill="#EA8965" stroke="white" stroke-width="2.43478"/>
<path d="M979.586 173.913H949.363L943.118 169.925L942.806 173.913H937.124L938.518 153.142H944.263L943.472 164.566L945.408 165.812V149.985H937.082V145.353H943.868V139.974H938.268V135.321H943.868V130.087H952.61V135.321H957.855V139.974H952.548V145.353H958.959V149.985H954.005V156.216H958.75V160.911H954.005V169.385H981.876L979.586 173.913ZM979.836 167.079H960.041V131.395H980.627V152.769H968.492V162.448H982.126L979.836 167.079ZM972.03 136.069H968.492V148.033H972.03V136.069Z" fill="white"/>
<path d="M1037.57 180C1036.05 179.997 1034.59 179.433 1033.46 178.419C1032.34 179.433 1030.88 179.997 1029.36 180H1020.16C1018.76 180.001 1017.4 179.523 1016.31 178.645C1015.21 179.527 1013.84 180.006 1012.43 180H1002.39C1001.35 180.002 1000.33 179.742 999.418 179.242C998.507 178.743 997.737 178.021 997.179 177.144C996.622 176.266 996.296 175.262 996.231 174.225C996.166 173.188 996.364 172.151 996.807 171.211L1000.79 162.75C999.232 162.276 997.926 161.203 997.157 159.768C996.387 158.333 996.217 156.651 996.684 155.091L999.886 144.638C998.871 144.122 998.02 143.334 997.425 142.362C996.831 141.391 996.518 140.274 996.52 139.135V134.268C996.52 132.634 997.169 131.067 998.323 129.911C999.478 128.756 1001.04 128.107 1002.68 128.107H1014.27C1014.7 126.909 1015.48 125.871 1016.52 125.135C1017.55 124.4 1018.79 124.004 1020.06 124H1029.24C1030.5 124.008 1031.74 124.406 1032.77 125.141C1033.8 125.876 1034.58 126.912 1035 128.107H1046.41C1048.05 128.107 1049.61 128.756 1050.77 129.911C1051.92 131.067 1052.57 132.634 1052.57 134.268V139.135C1052.57 140.23 1052.28 141.305 1051.73 142.251C1051.18 143.197 1050.39 143.978 1049.43 144.515L1052.74 155.029C1053.03 155.953 1053.1 156.933 1052.94 157.889C1052.79 158.845 1052.41 159.751 1051.83 160.532C1051.05 161.588 1049.95 162.37 1048.69 162.771L1052.8 171.108C1053.26 172.046 1053.48 173.086 1053.43 174.132C1053.38 175.177 1053.06 176.192 1052.51 177.082C1051.96 177.971 1051.2 178.706 1050.28 179.217C1049.37 179.727 1048.34 179.997 1047.3 180H1037.57Z" fill="#EA8965" stroke="white" stroke-width="2.43478"/>
<path d="M1012.35 173.913H1002.3L1009.35 158.892H1019.43L1012.35 173.913ZM1039.2 156.914L1037.83 152.443L1036.35 156.914H1029.29V173.913H1020.1V156.914H1013.75L1012.27 152.505L1010.94 156.914H1002.59L1007.48 140.884H1015.81L1014.43 145.602H1017.6L1020.1 153.082V139.091H1002.69V134.208H1020.1V130.087H1029.29V134.208H1046.5V139.091H1029.29V153.514L1033.24 140.863H1041.46L1039.88 145.437H1043.29L1046.89 156.914H1039.2ZM1037.54 173.913L1030.08 158.892H1039.88L1047.34 173.913H1037.54Z" fill="white"/>
<defs>
<clipPath id="clip0_5529_27974">
<rect width="47.0857" height="45" fill="white" transform="translate(1130 269)"/>
</clipPath>
<clipPath id="clip1_5529_27974">
<rect width="161.442" height="161" fill="white" transform="translate(442 99)"/>
</clipPath>
</defs>
</svg>
