<svg width="1920" height="509" viewBox="0 0 1920 509" fill="none" xmlns="http://www.w3.org/2000/svg">
<ellipse cx="911.5" cy="134" rx="1176.5" ry="375" fill="#FFE6BD"/>
<path d="M339.849 249L165 317.839L201.151 409.662L376 340.823L339.849 249Z" fill="#4BC58C"/>
<path d="M312.33 322.577C317.525 322.577 321.737 319.505 321.737 315.716C321.737 311.927 317.525 308.855 312.33 308.855C307.134 308.855 302.922 311.927 302.922 315.716C302.922 319.505 307.134 322.577 312.33 322.577Z" fill="#FF8356"/>
<path d="M286.601 318.606C291.399 318.606 295.289 314.716 295.289 309.919C295.289 305.121 291.399 301.231 286.601 301.231C281.803 301.231 277.914 305.121 277.914 309.919C277.914 314.716 281.803 318.606 286.601 318.606Z" fill="#FFD44A"/>
<path d="M338.936 317.335C343.617 317.335 347.412 313.54 347.412 308.859C347.412 304.178 343.617 300.384 338.936 300.384C334.255 300.384 330.461 304.178 330.461 308.859C330.461 313.54 334.255 317.335 338.936 317.335Z" fill="#FFD44A"/>
<path d="M303.089 304.96C304.821 304.96 306.225 303.557 306.225 301.825C306.225 300.093 304.821 298.689 303.089 298.689C301.357 298.689 299.953 300.093 299.953 301.825C299.953 303.557 301.357 304.96 303.089 304.96Z" fill="#272725"/>
<path d="M321.511 304.96C323.243 304.96 324.647 303.557 324.647 301.825C324.647 300.093 323.243 298.689 321.511 298.689C319.779 298.689 318.375 300.093 318.375 301.825C318.375 303.557 319.779 304.96 321.511 304.96Z" fill="#272725"/>
<path d="M301.142 323.182C301.142 323.182 300.637 325.221 299.722 326.094C298.807 326.967 296.984 327.365 296.984 327.365" stroke="#272725" stroke-width="2.54261" stroke-linecap="round"/>
<path d="M300.281 326.45C300.281 326.45 302.536 327.912 304.167 328.34C305.799 328.768 308.481 328.59 308.481 328.59" stroke="#272725" stroke-width="2.54261" stroke-linecap="round"/>
<path d="M1583.99 315.596C1592.24 315.01 1600.42 317.437 1607.01 322.427C1613.6 327.417 1618.16 334.63 1619.83 342.727C1620.84 347.713 1620.71 352.864 1619.45 357.793C1618.19 362.723 1615.84 367.303 1612.56 371.193L1674.38 421.15C1684.25 409.102 1691.53 395.144 1695.76 380.15C1699.99 365.156 1701.07 349.45 1698.94 334.018C1690.55 272.912 1634.17 229.43 1572.94 236.818C1543.43 240.357 1516.51 255.37 1498 278.609L1559.79 328.566C1562.69 324.834 1566.35 321.752 1570.51 319.518C1574.68 317.284 1579.27 315.948 1583.99 315.596Z" fill="#B8E38D"/>
<path d="M1568.56 269.016C1570.33 269.016 1571.76 267.582 1571.76 265.812C1571.76 264.043 1570.33 262.608 1568.56 262.608C1566.79 262.608 1565.35 264.043 1565.35 265.812C1565.35 267.582 1566.79 269.016 1568.56 269.016Z" fill="#272725"/>
<path d="M1581.98 269.016C1583.75 269.016 1585.19 267.582 1585.19 265.812C1585.19 264.043 1583.75 262.608 1581.98 262.608C1580.21 262.608 1578.78 264.043 1578.78 265.812C1578.78 267.582 1580.21 269.016 1581.98 269.016Z" fill="#272725"/>
<path d="M1587.35 293.365C1586.8 290.776 1570.78 294.475 1571.9 297.434C1573.01 300.393 1577.86 303.904 1581.77 302.608C1585.68 301.311 1587.91 295.955 1587.35 293.365Z" fill="#272725" stroke="#272725" stroke-width="0.845427" stroke-linecap="round"/>
<path d="M1570.2 288.317C1575.51 288.317 1579.82 285.179 1579.82 281.309C1579.82 277.438 1575.51 274.3 1570.2 274.3C1564.89 274.3 1560.59 277.438 1560.59 281.309C1560.59 285.179 1564.89 288.317 1570.2 288.317Z" fill="#FF8356"/>
<path d="M1379 240C1408.82 240 1433 215.823 1433 186C1433 156.177 1408.82 132 1379 132C1349.18 132 1325 156.177 1325 186C1325 215.823 1349.18 240 1379 240Z" fill="#FE5B50" stroke="#FE5B50" stroke-width="4.74874" stroke-linecap="round"/>
<path d="M1379 186.003C1383.16 186.003 1386.53 183.545 1386.53 180.512C1386.53 177.479 1383.16 175.02 1379 175.02C1374.84 175.02 1371.47 177.479 1371.47 180.512C1371.47 183.545 1374.84 186.003 1379 186.003Z" fill="#FF8356"/>
<path d="M1368.85 175.115C1370.37 175.115 1371.61 173.879 1371.61 172.354C1371.61 170.829 1370.37 169.593 1368.85 169.593C1367.32 169.593 1366.09 170.829 1366.09 172.354C1366.09 173.879 1367.32 175.115 1368.85 175.115Z" fill="#272725"/>
<path d="M1388.17 175.115C1389.69 175.115 1390.93 173.879 1390.93 172.354C1390.93 170.829 1389.69 169.593 1388.17 169.593C1386.64 169.593 1385.41 170.829 1385.41 172.354C1385.41 173.879 1386.64 175.115 1388.17 175.115Z" fill="#272725"/>
<path d="M1401.15 190.932C1405.55 190.932 1409.12 187.363 1409.12 182.961C1409.12 178.559 1405.55 174.99 1401.15 174.99C1396.75 174.99 1393.18 178.559 1393.18 182.961C1393.18 187.363 1396.75 190.932 1401.15 190.932Z" fill="#FFCD00"/>
<path d="M1357.39 193.306C1361.98 193.306 1365.7 189.586 1365.7 184.996C1365.7 180.406 1361.98 176.686 1357.39 176.686C1352.8 176.686 1349.08 180.406 1349.08 184.996C1349.08 189.586 1352.8 193.306 1357.39 193.306Z" fill="#FFCD00"/>
<path d="M1378.93 194.015V197.746" stroke="#272725" stroke-width="7.80151" stroke-linecap="round"/>
<path d="M377 287.5C377 279.492 383.492 273 391.5 273C399.508 273 406 279.492 406 287.5C406 295.508 399.508 302 391.5 302C383.492 302 377 295.508 377 287.5Z" fill="white"/>
<path d="M390.497 289.003H387.837V291.838H386.269V289.003H383.623V287.596H386.269V284.768H387.837V287.596H390.497V289.003ZM398.415 291.579V293H392.717V291.579H394.733V286.021C394.733 285.9 394.735 285.776 394.74 285.65C394.745 285.524 394.752 285.396 394.761 285.265L393.431 286.371C393.338 286.441 393.247 286.485 393.158 286.504C393.069 286.523 392.985 286.525 392.906 286.511C392.827 286.492 392.757 286.464 392.696 286.427C392.635 286.385 392.589 286.343 392.556 286.301L391.947 285.482L395.069 282.836H396.658V291.579H398.415Z" fill="#272725"/>
<path d="M1455 153.5C1455 145.492 1461.49 139 1469.5 139C1477.51 139 1484 145.492 1484 153.5C1484 161.508 1477.51 168 1469.5 168C1461.49 168 1455 161.508 1455 153.5Z" fill="white"/>
<path d="M1468.5 155.003H1465.84V157.838H1464.27V155.003H1461.62V153.596H1464.27V150.768H1465.84V153.596H1468.5V155.003ZM1476.42 157.579V159H1470.72V157.579H1472.73V152.021C1472.73 151.9 1472.74 151.776 1472.74 151.65C1472.74 151.524 1472.75 151.396 1472.76 151.265L1471.43 152.371C1471.34 152.441 1471.25 152.485 1471.16 152.504C1471.07 152.523 1470.99 152.525 1470.91 152.511C1470.83 152.492 1470.76 152.464 1470.7 152.427C1470.64 152.385 1470.59 152.343 1470.56 152.301L1469.95 151.482L1473.07 148.836H1474.66V157.579H1476.42Z" fill="#272725"/>
<path d="M1470 322.5C1470 314.492 1476.49 308 1484.5 308C1492.51 308 1499 314.492 1499 322.5C1499 330.508 1492.51 337 1484.5 337C1476.49 337 1470 330.508 1470 322.5Z" fill="white"/>
<path d="M1483.5 324.003H1480.84V326.838H1479.27V324.003H1476.62V322.596H1479.27V319.768H1480.84V322.596H1483.5V324.003ZM1491.42 326.579V328H1485.72V326.579H1487.73V321.021C1487.73 320.9 1487.74 320.776 1487.74 320.65C1487.74 320.524 1487.75 320.396 1487.76 320.265L1486.43 321.371C1486.34 321.441 1486.25 321.485 1486.16 321.504C1486.07 321.523 1485.99 321.525 1485.91 321.511C1485.83 321.492 1485.76 321.464 1485.7 321.427C1485.64 321.385 1485.59 321.343 1485.56 321.301L1484.95 320.482L1488.07 317.836H1489.66V326.579H1491.42Z" fill="#272725"/>
<g clip-path="url(#clip0_5529_27970)">
<path d="M599.644 255.574L446.016 248.089L529.311 118.786L599.644 255.574Z" fill="#FFACC5" stroke="#FFACC5" stroke-width="4.51658" stroke-linecap="round"/>
<path d="M531.866 205.03C536.157 205.03 539.635 202.494 539.635 199.365C539.635 196.236 536.157 193.7 531.866 193.7C527.576 193.7 524.098 196.236 524.098 199.365C524.098 202.494 527.576 205.03 531.866 205.03Z" fill="#FF8356"/>
<path d="M524.235 192.58C525.666 192.58 526.826 191.421 526.826 189.99C526.826 188.559 525.666 187.399 524.235 187.399C522.804 187.399 521.645 188.559 521.645 189.99C521.645 191.421 522.804 192.58 524.235 192.58Z" fill="#272725"/>
<path d="M537.54 191.88C538.971 191.88 540.13 190.72 540.13 189.29C540.13 187.859 538.971 186.699 537.54 186.699C536.109 186.699 534.949 187.859 534.949 189.29C534.949 190.72 536.109 191.88 537.54 191.88Z" fill="#272725"/>
<path d="M539.635 206.998C539.635 209.058 538.816 211.034 537.359 212.491C535.902 213.948 533.927 214.766 531.866 214.766C529.806 214.766 527.83 213.948 526.373 212.491C524.916 211.034 524.098 209.058 524.098 206.998" stroke="#272725" stroke-width="2.5809" stroke-linecap="round"/>
<path d="M529.784 106.704L503.266 148.179H550.399L529.784 106.704Z" fill="#FFD44A"/>
<mask id="mask0_5529_27970" style="mask-type:luminance" maskUnits="userSpaceOnUse" x="503" y="106" width="48" height="43">
<path d="M529.777 106.704L503.258 148.179H550.392L529.777 106.704Z" fill="white"/>
</mask>
<g mask="url(#mask0_5529_27970)">
<path d="M497.417 123.499L493.375 128.328L533.531 161.939L537.573 157.11L497.417 123.499Z" fill="#FF5FAB"/>
<path d="M509.472 118.55L505.43 123.379L545.586 156.99L549.628 152.161L509.472 118.55Z" fill="#FF5FAB"/>
<path d="M517.597 108.229L513.555 113.058L553.711 146.669L557.753 141.84L517.597 108.229Z" fill="#FF5FAB"/>
</g>
<path d="M529.673 110.104C532.74 110.104 535.225 107.619 535.225 104.552C535.225 101.486 532.74 99 529.673 99C526.607 99 524.121 101.486 524.121 104.552C524.121 107.619 526.607 110.104 529.673 110.104Z" fill="#FF9C6A"/>
<path d="M537.801 254.812L540.317 254.977" stroke="#B26138" stroke-width="0.645226" stroke-miterlimit="10"/>
<path d="M511.152 240.865L477.93 239.246L476.997 258.384L510.219 260.003L511.152 240.865Z" fill="white"/>
<path d="M482.699 254.587C482.588 254.587 482.477 254.564 482.375 254.519C482.273 254.475 482.181 254.409 482.106 254.327C482.031 254.244 481.974 254.147 481.939 254.041C481.904 253.935 481.891 253.823 481.902 253.712L482.357 244.424C482.355 244.313 482.378 244.202 482.422 244.099C482.467 243.997 482.532 243.905 482.615 243.83C482.698 243.755 482.796 243.698 482.902 243.664C483.008 243.63 483.12 243.618 483.231 243.631L487.729 243.847L492.245 244.069C492.356 244.07 492.466 244.093 492.567 244.137C492.669 244.181 492.76 244.246 492.836 244.328C492.909 244.411 492.966 244.509 493.001 244.615C493.035 244.721 493.048 244.833 493.039 244.944L492.584 254.232C492.583 254.343 492.56 254.452 492.516 254.554C492.471 254.655 492.407 254.746 492.326 254.822C492.242 254.895 492.144 254.951 492.038 254.985C491.932 255.02 491.821 255.032 491.71 255.022L482.699 254.587ZM483.589 253.47L490.848 253.825C490.89 253.833 490.933 253.831 490.973 253.819C491.014 253.808 491.051 253.787 491.082 253.758C491.113 253.73 491.138 253.695 491.153 253.655C491.168 253.616 491.175 253.574 491.171 253.532L491.561 245.502C491.569 245.46 491.567 245.418 491.555 245.377C491.544 245.336 491.523 245.299 491.494 245.268C491.466 245.237 491.431 245.212 491.391 245.197C491.352 245.182 491.31 245.176 491.268 245.179L487.632 245.002L484.009 244.821C483.968 244.813 483.925 244.814 483.884 244.826C483.844 244.837 483.806 244.857 483.775 244.885C483.744 244.914 483.719 244.949 483.704 244.988C483.688 245.027 483.682 245.069 483.686 245.111L483.293 253.148C483.284 253.19 483.286 253.233 483.297 253.274C483.309 253.315 483.33 253.353 483.359 253.385C483.388 253.416 483.424 253.44 483.464 253.455C483.504 253.47 483.547 253.475 483.589 253.47ZM487.683 253.516C487.383 253.516 487.2 253.393 487.132 253.193C487.009 252.87 487.167 252.728 487.603 252.767C487.645 252.767 487.706 252.767 487.783 252.767H487.861C487.971 252.767 488.029 252.719 488.035 252.622L488.058 252.161C488.066 252.119 488.064 252.076 488.053 252.035C488.042 251.994 488.021 251.957 487.992 251.925C487.964 251.894 487.928 251.869 487.889 251.854C487.849 251.839 487.806 251.834 487.764 251.838L485.828 251.741C486.06 251.986 486.275 252.246 486.474 252.519C486.496 252.559 486.51 252.604 486.514 252.65C486.518 252.696 486.512 252.743 486.496 252.786C486.479 252.832 486.453 252.874 486.418 252.908C486.384 252.943 486.342 252.969 486.296 252.986H486.254C486.085 253.086 485.884 253.115 485.694 253.068C485.504 253.02 485.34 252.899 485.238 252.732C484.933 252.286 485.048 251.953 485.583 251.731H485.609L484.054 251.654C484 251.651 483.947 251.638 483.899 251.615C483.85 251.592 483.807 251.559 483.77 251.519C483.734 251.479 483.706 251.433 483.688 251.382C483.67 251.331 483.663 251.277 483.665 251.223C483.668 251.17 483.681 251.117 483.705 251.068C483.728 251.02 483.76 250.976 483.8 250.94C483.84 250.904 483.887 250.876 483.938 250.858C483.988 250.84 484.042 250.832 484.096 250.835L485.906 250.922L488.129 251.031V251.002C488.129 250.902 488.216 250.818 488.374 250.757C488.502 250.705 488.639 250.681 488.777 250.686C488.914 250.696 489.048 250.733 489.171 250.796C489.313 250.873 489.38 250.96 489.377 251.064V251.089L489.764 251.109C489.968 251.109 490.016 251.048 489.903 250.896C489.813 250.799 489.748 250.722 489.706 250.67C488.351 250.653 486.541 250.621 484.277 250.573C484.064 250.573 483.954 250.428 483.954 250.17C483.943 250.058 483.968 249.945 484.025 249.847C484.062 249.811 484.106 249.783 484.156 249.768C484.205 249.752 484.258 249.748 484.309 249.757L486.787 249.88L486.809 249.454L485.125 249.373C485.014 249.372 484.904 249.348 484.802 249.303C484.7 249.258 484.608 249.193 484.532 249.112C484.458 249.029 484.403 248.931 484.368 248.826C484.334 248.721 484.321 248.609 484.331 248.499L484.377 247.547C484.378 247.436 484.402 247.326 484.447 247.224C484.492 247.122 484.557 247.03 484.638 246.954C484.801 246.813 485.013 246.742 485.228 246.757L486.912 246.837V246.605C486.916 246.584 486.915 246.563 486.909 246.543C486.903 246.522 486.892 246.504 486.878 246.488C486.863 246.473 486.846 246.461 486.826 246.453C486.806 246.445 486.785 246.442 486.764 246.444L484.451 246.331C484.342 246.325 484.24 246.277 484.167 246.196C484.094 246.115 484.057 246.009 484.062 245.9C484.068 245.792 484.116 245.69 484.197 245.617C484.278 245.544 484.384 245.506 484.493 245.512L486.958 245.631V245.605C486.962 245.538 486.983 245.473 487.02 245.416C487.057 245.36 487.107 245.314 487.167 245.282C487.299 245.214 487.447 245.182 487.596 245.189C487.744 245.196 487.888 245.243 488.012 245.324C488.069 245.361 488.116 245.412 488.147 245.472C488.178 245.532 488.193 245.599 488.19 245.666V245.692L490.668 245.815C490.771 245.827 490.866 245.879 490.933 245.958C491 246.038 491.035 246.14 491.03 246.244C491.025 246.348 490.981 246.446 490.907 246.519C490.832 246.592 490.733 246.635 490.629 246.637L488.458 246.531C488.416 246.523 488.373 246.524 488.332 246.536C488.291 246.547 488.254 246.568 488.222 246.596C488.191 246.625 488.167 246.66 488.151 246.7C488.136 246.74 488.131 246.782 488.135 246.825V246.902L489.858 246.986C489.969 246.985 490.079 247.008 490.181 247.053C490.283 247.098 490.375 247.164 490.45 247.246C490.524 247.329 490.581 247.426 490.616 247.532C490.651 247.637 490.663 247.749 490.651 247.86L490.593 249.044C490.595 249.125 490.58 249.206 490.548 249.281C490.517 249.356 490.471 249.423 490.413 249.48C490.286 249.584 490.124 249.634 489.961 249.618H489.922C490.136 249.79 490.334 249.981 490.513 250.189C490.57 250.249 490.613 250.321 490.638 250.4C490.663 250.479 490.67 250.562 490.658 250.644C490.642 250.73 490.608 250.811 490.558 250.882C490.508 250.954 490.443 251.013 490.368 251.057L490.235 251.141L490.58 251.157C490.637 251.156 490.694 251.166 490.747 251.187C490.799 251.208 490.847 251.24 490.887 251.281C490.927 251.321 490.958 251.37 490.978 251.423C490.998 251.476 491.007 251.533 491.004 251.589C491.002 251.646 490.987 251.702 490.962 251.753C490.937 251.804 490.902 251.849 490.858 251.886C490.815 251.922 490.764 251.95 490.71 251.966C490.655 251.982 490.598 251.987 490.542 251.98L489.616 251.935C489.574 251.927 489.532 251.929 489.491 251.941C489.45 251.952 489.413 251.973 489.382 252.002C489.351 252.03 489.326 252.065 489.311 252.105C489.296 252.144 489.29 252.186 489.293 252.228L489.267 252.741C489.274 252.923 489.234 253.103 489.151 253.264C489.06 253.381 488.927 253.457 488.78 253.477C488.419 253.543 488.05 253.561 487.683 253.532V253.516ZM485.49 247.77L486.864 247.838L486.883 247.463L486.19 247.431L485.803 247.412C485.762 247.402 485.719 247.402 485.679 247.411C485.638 247.421 485.6 247.441 485.568 247.468C485.537 247.496 485.512 247.53 485.497 247.57C485.481 247.609 485.476 247.651 485.48 247.692L485.49 247.77ZM485.583 248.754L486.816 248.812L486.835 248.441L486.141 248.405L485.654 248.383C485.628 248.378 485.601 248.379 485.575 248.386C485.55 248.393 485.526 248.406 485.506 248.424C485.487 248.442 485.471 248.464 485.462 248.489C485.452 248.513 485.448 248.54 485.451 248.567V248.605C485.448 248.624 485.449 248.643 485.455 248.662C485.46 248.68 485.47 248.696 485.482 248.711C485.495 248.725 485.51 248.736 485.528 248.744C485.545 248.751 485.564 248.754 485.583 248.754ZM488.096 247.896L488.764 247.928L489.432 247.963V247.731C489.436 247.712 489.435 247.692 489.429 247.673C489.424 247.655 489.414 247.637 489.401 247.623C489.388 247.609 489.372 247.598 489.354 247.591C489.335 247.584 489.316 247.581 489.296 247.583L488.103 247.525L488.096 247.896ZM488.051 248.863L488.719 248.896L489.193 248.918C489.219 248.923 489.246 248.922 489.272 248.915C489.298 248.908 489.321 248.895 489.341 248.877C489.361 248.859 489.376 248.837 489.386 248.812C489.395 248.788 489.399 248.761 489.397 248.734V248.699C489.401 248.68 489.4 248.66 489.395 248.641C489.39 248.622 489.381 248.604 489.367 248.589C489.354 248.575 489.338 248.564 489.319 248.557C489.3 248.55 489.281 248.548 489.261 248.551L488.067 248.492L488.051 248.863ZM488 249.918L489.013 249.967L488.916 249.883C488.89 249.857 488.89 249.835 488.916 249.818L489.326 249.57L488.68 249.538L488.035 249.505L488 249.918Z" fill="#FF8A7F"/>
<path d="M495.098 255.409C494.899 255.399 494.712 255.311 494.578 255.163C494.444 255.015 494.374 254.82 494.384 254.62C494.394 254.421 494.482 254.234 494.63 254.1C494.778 253.966 494.973 253.896 495.173 253.906L499.27 254.106L499.389 251.628L496.486 251.486C496.389 251.481 496.293 251.457 496.206 251.416C496.118 251.374 496.039 251.316 495.974 251.244C495.909 251.172 495.859 251.087 495.826 250.996C495.793 250.904 495.779 250.807 495.784 250.71C495.789 250.613 495.813 250.518 495.854 250.431C495.896 250.343 495.954 250.264 496.026 250.199C496.172 250.067 496.364 249.999 496.56 250.009L499.463 250.151L499.57 247.928L496.021 247.754C495.923 247.749 495.827 247.725 495.739 247.683C495.65 247.641 495.571 247.582 495.505 247.509C495.439 247.436 495.388 247.352 495.355 247.259C495.322 247.167 495.308 247.069 495.313 246.971C495.318 246.873 495.342 246.777 495.384 246.689C495.426 246.6 495.485 246.521 495.557 246.455C495.63 246.389 495.715 246.339 495.807 246.306C495.899 246.273 495.997 246.258 496.095 246.263L500.438 246.476C500.075 246.096 499.693 245.735 499.292 245.395C498.836 245.008 498.875 244.648 499.408 244.315C499.546 244.213 499.713 244.161 499.883 244.167C500.054 244.173 500.217 244.236 500.347 244.347C500.84 244.715 501.31 245.112 501.757 245.534C501.822 245.6 501.871 245.68 501.899 245.768C501.927 245.856 501.934 245.949 501.918 246.041C501.898 246.139 501.856 246.232 501.795 246.313C501.734 246.393 501.656 246.459 501.567 246.505L501.541 246.531L504.828 246.689C504.926 246.694 505.022 246.718 505.111 246.759C505.199 246.801 505.279 246.86 505.345 246.932C505.411 247.005 505.462 247.09 505.495 247.182C505.528 247.274 505.543 247.372 505.538 247.47C505.533 247.568 505.51 247.664 505.468 247.752C505.426 247.841 505.367 247.92 505.295 247.986C505.222 248.052 505.137 248.103 505.045 248.136C504.953 248.169 504.855 248.184 504.757 248.179L501.238 248.009L501.128 250.231L504.031 250.373C504.227 250.383 504.412 250.47 504.543 250.615C504.675 250.76 504.744 250.952 504.735 251.148C504.725 251.343 504.638 251.528 504.493 251.66C504.348 251.791 504.156 251.86 503.96 251.851L501.057 251.709L500.934 254.187L505.086 254.39C505.189 254.378 505.293 254.39 505.389 254.426C505.486 254.462 505.572 254.521 505.642 254.598C505.711 254.674 505.761 254.766 505.787 254.866C505.813 254.965 505.815 255.07 505.793 255.171C505.804 255.273 505.79 255.377 505.754 255.474C505.718 255.57 505.659 255.657 505.583 255.727C505.508 255.797 505.417 255.849 505.317 255.878C505.218 255.906 505.114 255.912 505.012 255.893L500.054 255.651L495.098 255.409Z" fill="#FF8A7F"/>
</g>
<defs>
<clipPath id="clip0_5529_27970">
<rect width="161.442" height="161" fill="white" transform="translate(442 99)"/>
</clipPath>
</defs>
</svg>
