<svg width="15" height="16" viewBox="0 0 15 16" fill="none" xmlns="http://www.w3.org/2000/svg">
<path id="&#226;&#128;&#157;" d="M4.944 0C5.712 1.264 6.232 2.584 6.504 3.96C6.776 5.32 6.8 6.672 6.576 8.016C6.352 9.344 5.88 10.624 5.16 11.856C4.456 13.072 3.504 14.168 2.304 15.144L0.432 14.016C0.272 13.92 0.16 13.808 0.096 13.68C0.032 13.536 0 13.4 0 13.272C0.0159999 13.128 0.0479999 12.992 0.096 12.864C0.16 12.736 0.24 12.624 0.336 12.528C0.672 12.128 0.992 11.6 1.296 10.944C1.6 10.288 1.808 9.552 1.92 8.736C2.048 7.92 2.032 7.048 1.872 6.12C1.728 5.192 1.368 4.264 0.792 3.336C0.52 2.872 0.44 2.472 0.552 2.136C0.68 1.784 0.944 1.536 1.344 1.392L4.944 0ZM12.912 0C13.68 1.264 14.2 2.584 14.472 3.96C14.744 5.32 14.768 6.672 14.544 8.016C14.32 9.344 13.848 10.624 13.128 11.856C12.424 13.072 11.472 14.168 10.272 15.144L8.4 14.016C8.24 13.92 8.128 13.808 8.064 13.68C8 13.536 7.968 13.4 7.968 13.272C7.984 13.128 8.016 12.992 8.064 12.864C8.128 12.736 8.208 12.624 8.304 12.528C8.64 12.128 8.96 11.6 9.264 10.944C9.568 10.288 9.776 9.552 9.888 8.736C10.016 7.92 10 7.048 9.84 6.12C9.696 5.192 9.336 4.264 8.76 3.336C8.488 2.872 8.408 2.472 8.52 2.136C8.648 1.784 8.912 1.536 9.312 1.392L12.912 0Z" fill="#D1D1D0"/>
</svg>
