<svg width="15" height="16" viewBox="0 0 15 16" fill="none" xmlns="http://www.w3.org/2000/svg">
<path id="&#226;&#128;&#156;" d="M1.78374 15.144C1.01574 13.88 0.495742 12.56 0.223742 11.184C-0.0482581 9.808 -0.0722581 8.456 0.151742 7.128C0.375742 5.8 0.839742 4.528 1.54374 3.312C2.26374 2.08 3.22374 0.976 4.42374 0L6.27174 1.128C6.59174 1.336 6.73574 1.592 6.70374 1.896C6.67174 2.2 6.56774 2.44 6.39174 2.616C6.05574 3.016 5.73574 3.544 5.43174 4.2C5.12774 4.856 4.91174 5.592 4.78374 6.408C4.67174 7.224 4.68774 8.096 4.83174 9.024C4.97574 9.952 5.33574 10.88 5.91174 11.808C6.19974 12.272 6.27974 12.68 6.15174 13.032C6.02374 13.368 5.75974 13.608 5.35974 13.752L1.78374 15.144ZM9.75174 15.144C8.98374 13.88 8.46374 12.56 8.19174 11.184C7.91974 9.808 7.89574 8.456 8.11974 7.128C8.34374 5.8 8.80774 4.528 9.51174 3.312C10.2317 2.08 11.1917 0.976 12.3917 0L14.2397 1.128C14.5597 1.336 14.7037 1.592 14.6717 1.896C14.6397 2.2 14.5357 2.44 14.3597 2.616C14.0237 3.016 13.7037 3.544 13.3997 4.2C13.0957 4.856 12.8797 5.592 12.7517 6.408C12.6397 7.224 12.6557 8.096 12.7997 9.024C12.9437 9.952 13.3037 10.88 13.8797 11.808C14.1677 12.272 14.2477 12.68 14.1197 13.032C13.9917 13.368 13.7277 13.608 13.3277 13.752L9.75174 15.144Z" fill="#D1D1D0"/>
</svg>
