<svg width="414" height="150" viewBox="0 0 414 150" fill="none" xmlns="http://www.w3.org/2000/svg">
<path d="M200.784 72.5952H208.32L208.776 71.5872C206.544 71.6832 204.144 71.7552 201.6 71.7552L200.928 69.7152C207.672 69.7152 213.384 69.2592 218.064 68.3712L219.216 70.3392C216.912 70.8192 214.248 71.1792 211.2 71.4192C211.056 71.8272 210.912 72.2112 210.768 72.5952H219.312V74.7072H209.784C209.592 75.0432 209.4 75.4032 209.208 75.7392H220.704V77.9472H207.72C207.432 78.3072 207.168 78.6432 206.904 78.9552H218.472V90.6912H216.096V89.8032H205.896V90.6912H203.52V82.3632C202.464 83.2512 201.36 84.0912 200.208 84.9072L198.864 82.7472C201.12 81.2112 203.04 79.6272 204.624 77.9472H199.488V75.7392H206.424C206.664 75.4032 206.904 75.0432 207.144 74.7072H200.784V72.5952ZM205.896 83.8512V84.8352H216.096V83.8512H205.896ZM216.096 81.9792V80.9712H205.896V81.9792H216.096ZM205.896 86.7072V87.7872H216.096V86.7072H205.896ZM224.784 72.5952H232.32L232.776 71.5872C230.544 71.6832 228.144 71.7552 225.6 71.7552L224.928 69.7152C231.672 69.7152 237.384 69.2592 242.064 68.3712L243.216 70.3392C240.912 70.8192 238.248 71.1792 235.2 71.4192C235.056 71.8272 234.912 72.2112 234.768 72.5952H243.312V74.7072H233.784C233.592 75.0432 233.4 75.4032 233.208 75.7392H244.704V77.9472H231.72C231.432 78.3072 231.168 78.6432 230.904 78.9552H242.472V90.6912H240.096V89.8032H229.896V90.6912H227.52V82.3632C226.464 83.2512 225.36 84.0912 224.208 84.9072L222.864 82.7472C225.12 81.2112 227.04 79.6272 228.624 77.9472H223.488V75.7392H230.424C230.664 75.4032 230.904 75.0432 231.144 74.7072H224.784V72.5952ZM229.896 83.8512V84.8352H240.096V83.8512H229.896ZM240.096 81.9792V80.9712H229.896V81.9792H240.096ZM229.896 86.7072V87.7872H240.096V86.7072H229.896ZM247.368 74.4672H256.464C256.608 73.2192 256.704 71.9472 256.728 70.6032V68.4432H259.272V70.0272C259.272 71.5872 259.176 73.0752 259.008 74.4672H268.632V76.9152H259.584C261.312 81.9312 264.504 85.7952 269.184 88.5312L267.6 90.5952C263.088 87.8112 259.896 83.9472 258.072 79.0032C256.44 84.3552 253.224 88.2912 248.424 90.8112L246.816 88.6992C251.664 86.3472 254.736 82.4112 256.032 76.9152H247.368V74.4672ZM282.648 68.2752C282.888 68.8752 283.128 69.5472 283.368 70.2912H292.344V74.8512H289.872V72.5952H274.128V74.8512H271.656V70.2912H280.824C280.584 69.7152 280.344 69.1872 280.08 68.7072L282.648 68.2752ZM274.896 74.2512H289.104V76.5552H283.848C283.32 76.9152 282.816 77.2512 282.288 77.5632C283.08 78.4272 283.704 79.3632 284.184 80.3712C286.056 79.6272 287.856 78.4992 289.536 76.9872L291.264 78.6912C289.656 80.0832 287.88 81.1872 285.912 81.9792C287.736 83.9712 290.136 85.6512 293.112 87.0432L291.792 89.2992C289.104 87.8352 286.896 86.1072 285.216 84.0912C285.264 84.4752 285.288 84.8832 285.288 85.2912C285.288 87.2592 285 88.5792 284.472 89.2992C283.824 90.1632 282.384 90.6192 280.176 90.6192H279.432L278.592 88.4112H279.84C281.136 88.4112 281.952 88.2192 282.288 87.8832C282.672 87.4272 282.888 86.5632 282.888 85.2912C282.888 85.0992 282.864 84.9312 282.864 84.7872C280.272 86.7072 276.936 88.2912 272.832 89.5392L271.584 87.4032C276.264 86.0832 279.888 84.4272 282.456 82.4112C282.312 81.9792 282.168 81.5712 282 81.1872C279.744 82.8192 276.792 84.1632 273.144 85.2192L271.896 83.0832C275.736 82.1232 278.76 80.8752 280.968 79.3632C280.776 79.0992 280.56 78.8352 280.368 78.5952C280.32 78.5952 280.272 78.6192 280.272 78.6432C278.736 79.3872 276.504 80.2032 273.624 81.0672L272.352 78.9792C274.536 78.5472 276.6 77.9232 278.544 77.1312C279 76.9392 279.456 76.7472 279.888 76.5552H274.896V74.2512ZM308.184 69.2592H316.464V71.1312C315.744 73.5792 314.952 75.8352 314.088 77.8992C315.84 80.2512 316.728 82.1952 316.752 83.6832C316.752 85.1712 316.44 86.2032 315.816 86.7552C315.144 87.3312 313.824 87.6432 311.808 87.6432L311.088 85.1232C311.976 85.2192 312.72 85.2912 313.344 85.2912C313.776 85.2672 314.04 85.1472 314.16 84.9552C314.256 84.7632 314.328 84.3552 314.352 83.6832C314.328 82.1952 313.392 80.2752 311.52 77.8992C312.288 76.1232 313.032 74.0112 313.8 71.5632H310.608V90.6192H308.184V69.2592ZM296.544 70.9872H299.712V68.4912H302.16V70.9872H304.44V72.8112C305.016 71.8512 305.496 70.8192 305.904 69.7632L308.016 70.6992C307.32 72.5232 306.456 74.1552 305.448 75.6192H307.44V77.8752H303.624C303.072 78.4512 302.496 79.0032 301.872 79.5312H306.48V90.6432H304.104V89.8272H300V90.6672H297.6V82.3632C297.072 82.6272 296.544 82.8912 296.016 83.1312L294.696 81.2112C296.784 80.3232 298.632 79.2192 300.216 77.8752H295.44V75.6192H299.712V73.2192H296.544V70.9872ZM302.472 75.6192C303.096 74.8512 303.672 74.0592 304.2 73.2192H302.16V75.6192H302.472ZM300 85.6752V87.6192H304.104V85.6752H300ZM304.104 83.5632V81.6432H300V83.5632H304.104ZM319.008 71.2272H322.032C321.72 70.4832 321.36 69.7392 320.976 69.0192L323.352 68.3712C323.832 69.4272 324.192 70.3632 324.432 71.2272H326.904V73.4832H319.008V71.2272ZM319.848 74.8512H326.184C328.032 73.2672 329.4 71.2272 330.288 68.7312L332.52 69.6192C331.8 71.4192 330.96 72.9552 329.976 74.2512H337.848C336.792 72.5232 335.688 70.9632 334.536 69.5472L336.624 68.6112C338.4 70.6752 339.96 72.9552 341.304 75.4272L339.168 76.5312C338.952 76.1472 338.76 75.7872 338.568 75.4512V81.9552H336.672V87.4752C336.672 87.8592 336.888 88.0512 337.368 88.0512H337.92C338.208 88.0512 338.4 87.9072 338.52 87.6432C338.664 87.3552 338.76 86.5152 338.808 85.1232L340.968 85.8432C340.8 88.0032 340.512 89.2752 340.104 89.7072C339.72 90.0912 339.12 90.2832 338.352 90.2832H336.648C335.112 90.2832 334.344 89.5152 334.344 87.9792V81.9552H332.736C332.424 85.9392 330.816 88.8672 327.936 90.6912L326.616 88.5792C328.848 87.2832 330.096 85.0752 330.384 81.9552H328.56V75.8592L327.864 76.4832L326.184 75.0192V76.9632H319.848V74.8512ZM319.848 78.2352H326.184V80.3472H319.848V78.2352ZM326.448 81.7872V89.2032H321.936V90.2832H319.608V81.7872H326.448ZM321.936 87.0912H324.168V83.8512H321.936V87.0912ZM336.288 79.7472V76.4592H330.912V79.7472H336.288ZM353.112 76.3872C355.368 75.0912 357.528 73.6512 359.592 72.0192H344.448V69.5952H363.072V72.0192C360.864 73.9872 358.392 75.8832 355.632 77.6592V87.8112C355.632 89.5872 354.744 90.4752 353.016 90.4752C351.552 90.4752 350.28 90.4032 349.2 90.3072L348.528 87.8832C349.704 88.0272 350.976 88.1232 352.344 88.1232C352.848 88.1232 353.112 87.8592 353.112 87.3312V76.3872ZM369.816 77.8992C369.096 78.8112 368.304 79.6752 367.488 80.5392L366.672 77.9232C369.096 75.1872 370.896 71.9712 372.072 68.2752L374.424 69.3792C373.872 71.0352 373.176 72.6432 372.312 74.1792V90.6912H369.816V77.8992ZM379.848 68.4672H382.44V76.0512H388.968V78.5472H382.44V90.6432H379.848V78.5472H373.848V76.0512H379.848V68.4672ZM408.72 84.2352C410.304 86.1552 411.552 87.8112 412.416 89.2512L410.448 90.6432C410.112 90.0672 409.728 89.4672 409.344 88.8912C405.936 89.4672 401.544 89.9232 396.168 90.2592L395.52 88.1952C396.264 88.1232 396.936 87.9792 397.536 87.7872C398.88 87.2112 400.344 86.3712 401.928 85.2432C400.296 85.3152 398.568 85.3872 396.768 85.4352L396.312 83.4912C396.84 83.4192 397.344 83.2752 397.824 83.0592C398.736 82.6752 399.888 81.7152 401.328 80.1312L403.632 80.6832C402.648 81.7872 401.592 82.6992 400.488 83.4672C401.808 83.4192 403.128 83.3472 404.472 83.2752C405.24 82.6272 406.032 81.9312 406.848 81.2112L409.08 82.2912C406.128 84.7632 403.56 86.6352 401.352 87.9312C403.896 87.6912 406.128 87.4032 408.072 87.0672C407.664 86.5152 407.256 85.9632 406.824 85.4352L408.72 84.2352ZM403.128 68.2272C403.368 68.7072 403.608 69.2352 403.848 69.8352H412.392V71.9472H394.848V78.5952C394.776 83.5152 394.032 87.4512 392.64 90.4032L390.744 88.7232C391.848 86.2992 392.424 82.9152 392.472 78.5952V69.8352H401.4C401.16 69.3792 400.92 68.9712 400.68 68.6112L403.128 68.2272ZM396.24 76.2432H397.68C397.632 78.2592 397.128 79.7952 396.168 80.8272L394.992 79.7952C395.76 79.0272 396.192 77.8272 396.24 76.2432ZM401.136 76.2432H402.576V78.0672C402.576 78.3072 402.672 78.4272 402.888 78.4272H403.752V79.7952H402.336C401.52 79.7952 401.136 79.2672 401.136 78.2112V76.2432ZM404.712 76.2432H406.176C406.152 78.1632 405.816 79.6272 405.144 80.6112L403.968 79.5792C404.448 78.8592 404.688 77.7312 404.712 76.2432ZM409.728 76.2672H411.192V78.5232C411.192 78.7872 411.384 78.9312 411.768 78.9312H412.728V80.2752H411.216C410.208 80.2752 409.728 79.7232 409.728 78.6672V76.2672ZM403.896 73.6512H406.848V72.3792H409.008V73.6512H411.984V75.5232H408.792V80.3952H407.064V75.5232H403.896V73.6512ZM395.592 73.6512H398.304V72.3792H400.464V73.6512H403.056V75.5232H400.248V80.3952H398.52V75.5232H395.592V73.6512Z" fill="#272725"/>
<ellipse cx="43.0037" cy="3.91828" rx="43.0037" ry="3.91828" transform="matrix(-1 0 0 1 96.0469 142.164)" fill="#D9D9D9"/>
<path d="M74.4171 99.0625C74.4171 99.0625 75.5528 114.359 74.4172 124.264C73.5284 132.016 71.2923 143.905 71.2923 143.905" stroke="#272725" stroke-width="3.90851" stroke-linecap="round"/>
<path d="M75.8516 146.3L70.4218 143.905" stroke="#272725" stroke-width="3.90851" stroke-linecap="round"/>
<path d="M4.32426 95.4553L111.539 102.101L63.6741 5.71769L4.32426 95.4553Z" fill="#FFD44A" stroke="#FFD44A" stroke-width="4.73038" stroke-linecap="round"/>
<path d="M69.6304 65.5249C66.6342 65.5608 64.1842 63.8146 64.1581 61.6247C64.132 59.4349 66.5397 57.6306 69.5359 57.5947C72.5321 57.5589 74.9821 59.305 75.0082 61.4949C75.0343 63.6847 72.6265 65.4891 69.6304 65.5249Z" fill="#FF8356"/>
<path d="M74.8591 56.7484C73.86 56.7603 73.0403 55.9582 73.0284 54.9568C73.0165 53.9554 73.8168 53.1339 74.8159 53.122C75.815 53.11 76.6347 53.9121 76.6466 54.9135C76.6585 55.9149 75.8582 56.7364 74.8591 56.7484Z" fill="#272725"/>
<path d="M65.57 56.3685C64.5709 56.3805 63.7513 55.5784 63.7393 54.577C63.7274 53.5756 64.5277 52.7541 65.5268 52.7421C66.526 52.7302 67.3456 53.5323 67.3575 54.5337C67.3695 55.5351 66.5692 56.3565 65.57 56.3685Z" fill="#272725"/>
<path d="M64.2202 66.9682C64.2374 68.4103 64.8254 69.7865 65.855 70.794C66.8845 71.8015 68.2712 72.3578 69.71 72.3406C71.1488 72.3234 72.5219 71.734 73.5272 70.7022C74.5324 69.6703 75.0875 68.2804 75.0703 66.8384" stroke="#272725" stroke-width="2.70307" stroke-linecap="round"/>
<path d="M53.7081 100.315C53.7081 100.315 51.1761 114.059 50.967 122.812C50.7692 131.092 52.554 143.882 52.554 143.882" stroke="#272725" stroke-width="3.90851" stroke-linecap="round"/>
<path d="M53.3516 144.917L50.5427 145.816L48.0694 146.447" stroke="#272725" stroke-width="3.90851" stroke-linecap="round"/>
<path d="M124.103 94.5803L121.069 65.3591L98.1118 78.6433L92.2085 76.6241C91.7788 76.2478 91.223 76.0483 90.6527 76.0657C88.6755 76.2767 87.3991 79.6556 87.8054 83.602C88.2118 87.5483 90.1495 90.5964 92.1165 90.3047C92.7032 90.2151 93.2306 89.8962 93.5833 89.4177L98.9459 86.2338L124.103 94.5803Z" fill="white" stroke="#231815" stroke-width="2.75897" stroke-linejoin="round"/>
<path d="M130.147 79.1645C129.314 71.1104 125.335 64.895 121.284 65.3262C117.233 65.7574 114.625 72.6232 115.41 80.6898C116.194 88.7564 120.221 94.9593 124.272 94.5281C128.323 94.0969 131.058 87.2402 130.147 79.1645Z" fill="#231815" stroke="#231815" stroke-width="2.75897" stroke-miterlimit="10"/>
<path d="M137.929 55.74L251.039 19.043" stroke="#231815" stroke-width="1.83931" stroke-miterlimit="10" stroke-linecap="round"/>
<path d="M139.626 107.803L257.008 126.656" stroke="#231815" stroke-width="1.83931" stroke-miterlimit="10" stroke-linecap="round"/>
</svg>
