<svg width="294" height="90" viewBox="0 0 294 90" fill="none" xmlns="http://www.w3.org/2000/svg">
<path d="M116.324 42.1755H122.604L122.984 41.3355C121.124 41.4155 119.124 41.4755 117.004 41.4755L116.444 39.7755C122.064 39.7755 126.824 39.3955 130.724 38.6555L131.684 40.2955C129.764 40.6955 127.544 40.9955 125.004 41.1955C124.884 41.5355 124.764 41.8555 124.644 42.1755H131.764V43.9355H123.824C123.664 44.2155 123.504 44.5155 123.344 44.7955H132.924V46.6355H122.104C121.864 46.9355 121.644 47.2155 121.424 47.4755H131.064V57.2555H129.084V56.5155H120.584V57.2555H118.604V50.3155C117.724 51.0555 116.804 51.7555 115.844 52.4355L114.724 50.6355C116.604 49.3555 118.204 48.0355 119.524 46.6355H115.244V44.7955H121.024C121.224 44.5155 121.424 44.2155 121.624 43.9355H116.324V42.1755ZM120.584 51.5555V52.3755H129.084V51.5555H120.584ZM129.084 49.9955V49.1555H120.584V49.9955H129.084ZM120.584 53.9355V54.8355H129.084V53.9355H120.584ZM136.324 42.1755H142.604L142.984 41.3355C141.124 41.4155 139.124 41.4755 137.004 41.4755L136.444 39.7755C142.064 39.7755 146.824 39.3955 150.724 38.6555L151.684 40.2955C149.764 40.6955 147.544 40.9955 145.004 41.1955C144.884 41.5355 144.764 41.8555 144.644 42.1755H151.764V43.9355H143.824C143.664 44.2155 143.504 44.5155 143.344 44.7955H152.924V46.6355H142.104C141.864 46.9355 141.644 47.2155 141.424 47.4755H151.064V57.2555H149.084V56.5155H140.584V57.2555H138.604V50.3155C137.724 51.0555 136.804 51.7555 135.844 52.4355L134.724 50.6355C136.604 49.3555 138.204 48.0355 139.524 46.6355H135.244V44.7955H141.024C141.224 44.5155 141.424 44.2155 141.624 43.9355H136.324V42.1755ZM140.584 51.5555V52.3755H149.084V51.5555H140.584ZM149.084 49.9955V49.1555H140.584V49.9955H149.084ZM140.584 53.9355V54.8355H149.084V53.9355H140.584ZM155.144 43.7355H162.724C162.844 42.6955 162.924 41.6355 162.944 40.5155V38.7155H165.064V40.0355C165.064 41.3355 164.984 42.5755 164.844 43.7355H172.864V45.7755H165.324C166.764 49.9555 169.424 53.1755 173.324 55.4555L172.004 57.1755C168.244 54.8555 165.584 51.6355 164.064 47.5155C162.704 51.9755 160.024 55.2555 156.024 57.3555L154.684 55.5955C158.724 53.6355 161.284 50.3555 162.364 45.7755H155.144V43.7355ZM184.544 38.5755C184.744 39.0755 184.944 39.6355 185.144 40.2555H192.624V44.0555H190.564V42.1755H177.444V44.0555H175.384V40.2555H183.024C182.824 39.7755 182.624 39.3355 182.404 38.9355L184.544 38.5755ZM178.084 43.5555H189.924V45.4755H185.544C185.104 45.7755 184.684 46.0555 184.244 46.3155C184.904 47.0355 185.424 47.8155 185.824 48.6555C187.384 48.0355 188.884 47.0955 190.284 45.8355L191.724 47.2555C190.384 48.4155 188.904 49.3355 187.264 49.9955C188.784 51.6555 190.784 53.0555 193.264 54.2155L192.164 56.0955C189.924 54.8755 188.084 53.4355 186.684 51.7555C186.724 52.0755 186.744 52.4155 186.744 52.7555C186.744 54.3955 186.504 55.4955 186.064 56.0955C185.524 56.8155 184.324 57.1955 182.484 57.1955H181.864L181.164 55.3555H182.204C183.284 55.3555 183.964 55.1955 184.244 54.9155C184.564 54.5355 184.744 53.8155 184.744 52.7555C184.744 52.5955 184.724 52.4555 184.724 52.3355C182.564 53.9355 179.784 55.2555 176.364 56.2955L175.324 54.5155C179.224 53.4155 182.244 52.0355 184.384 50.3555C184.264 49.9955 184.144 49.6555 184.004 49.3355C182.124 50.6955 179.664 51.8155 176.624 52.6955L175.584 50.9155C178.784 50.1155 181.304 49.0755 183.144 47.8155C182.984 47.5955 182.804 47.3755 182.644 47.1755C182.604 47.1755 182.564 47.1955 182.564 47.2155C181.284 47.8355 179.424 48.5155 177.024 49.2355L175.964 47.4955C177.784 47.1355 179.504 46.6155 181.124 45.9555C181.504 45.7955 181.884 45.6355 182.244 45.4755H178.084V43.5555ZM205.824 39.3955H212.724V40.9555C212.124 42.9955 211.464 44.8755 210.744 46.5955C212.204 48.5555 212.944 50.1755 212.964 51.4155C212.964 52.6555 212.704 53.5155 212.184 53.9755C211.624 54.4555 210.524 54.7155 208.844 54.7155L208.244 52.6155C208.984 52.6955 209.604 52.7555 210.124 52.7555C210.484 52.7355 210.704 52.6355 210.804 52.4755C210.884 52.3155 210.944 51.9755 210.964 51.4155C210.944 50.1755 210.164 48.5755 208.604 46.5955C209.244 45.1155 209.864 43.3555 210.504 41.3155H207.844V57.1955H205.824V39.3955ZM196.124 40.8355H198.764V38.7555H200.804V40.8355H202.704V42.3555C203.184 41.5555 203.584 40.6955 203.924 39.8155L205.684 40.5955C205.104 42.1155 204.384 43.4755 203.544 44.6955H205.204V46.5755H202.024C201.564 47.0555 201.084 47.5155 200.564 47.9555H204.404V57.2155H202.424V56.5355H199.004V57.2355H197.004V50.3155C196.564 50.5355 196.124 50.7555 195.684 50.9555L194.584 49.3555C196.324 48.6155 197.864 47.6955 199.184 46.5755H195.204V44.6955H198.764V42.6955H196.124V40.8355ZM201.064 44.6955C201.584 44.0555 202.064 43.3955 202.504 42.6955H200.804V44.6955H201.064ZM199.004 53.0755V54.6955H202.424V53.0755H199.004ZM202.424 51.3155V49.7155H199.004V51.3155H202.424ZM214.844 41.0355H217.364C217.104 40.4155 216.804 39.7955 216.484 39.1955L218.464 38.6555C218.864 39.5355 219.164 40.3155 219.364 41.0355H221.424V42.9155H214.844V41.0355ZM215.544 44.0555H220.824C222.364 42.7355 223.504 41.0355 224.244 38.9555L226.104 39.6955C225.504 41.1955 224.804 42.4755 223.984 43.5555H230.544C229.664 42.1155 228.744 40.8155 227.784 39.6355L229.524 38.8555C231.004 40.5755 232.304 42.4755 233.424 44.5355L231.644 45.4555C231.464 45.1355 231.304 44.8355 231.144 44.5555V49.9755H229.564V54.5755C229.564 54.8955 229.744 55.0555 230.144 55.0555H230.604C230.844 55.0555 231.004 54.9355 231.104 54.7155C231.224 54.4755 231.304 53.7755 231.344 52.6155L233.144 53.2155C233.004 55.0155 232.764 56.0755 232.424 56.4355C232.104 56.7555 231.604 56.9155 230.964 56.9155H229.544C228.264 56.9155 227.624 56.2755 227.624 54.9955V49.9755H226.284C226.024 53.2955 224.684 55.7355 222.284 57.2555L221.184 55.4955C223.044 54.4155 224.084 52.5755 224.324 49.9755H222.804V44.8955L222.224 45.4155L220.824 44.1955V45.8155H215.544V44.0555ZM215.544 46.8755H220.824V48.6355H215.544V46.8755ZM221.044 49.8355V56.0155H217.284V56.9155H215.344V49.8355H221.044ZM217.284 54.2555H219.144V51.5555H217.284V54.2555ZM229.244 48.1355V45.3955H224.764V48.1355H229.244ZM243.264 45.3355C245.144 44.2555 246.944 43.0555 248.664 41.6955H236.044V39.6755H251.564V41.6955C249.724 43.3355 247.664 44.9155 245.364 46.3955V54.8555C245.364 56.3355 244.624 57.0755 243.184 57.0755C241.964 57.0755 240.904 57.0155 240.004 56.9355L239.444 54.9155C240.424 55.0355 241.484 55.1155 242.624 55.1155C243.044 55.1155 243.264 54.8955 243.264 54.4555V45.3355ZM257.184 46.5955C256.584 47.3555 255.924 48.0755 255.244 48.7955L254.564 46.6155C256.584 44.3355 258.084 41.6555 259.064 38.5755L261.024 39.4955C260.564 40.8755 259.984 42.2155 259.264 43.4955V57.2555H257.184V46.5955ZM265.544 38.7355H267.704V45.0555H273.144V47.1355H267.704V57.2155H265.544V47.1355H260.544V45.0555H265.544V38.7355ZM289.604 51.8755C290.924 53.4755 291.964 54.8555 292.684 56.0555L291.044 57.2155C290.764 56.7355 290.444 56.2355 290.124 55.7555C287.284 56.2355 283.624 56.6155 279.144 56.8955L278.604 55.1755C279.224 55.1155 279.784 54.9955 280.284 54.8355C281.404 54.3555 282.624 53.6555 283.944 52.7155C282.584 52.7755 281.144 52.8355 279.644 52.8755L279.264 51.2555C279.704 51.1955 280.124 51.0755 280.524 50.8955C281.284 50.5755 282.244 49.7755 283.444 48.4555L285.364 48.9155C284.544 49.8355 283.664 50.5955 282.744 51.2355C283.844 51.1955 284.944 51.1355 286.064 51.0755C286.704 50.5355 287.364 49.9555 288.044 49.3555L289.904 50.2555C287.444 52.3155 285.304 53.8755 283.464 54.9555C285.584 54.7555 287.444 54.5155 289.064 54.2355C288.724 53.7755 288.384 53.3155 288.024 52.8755L289.604 51.8755ZM284.944 38.5355C285.144 38.9355 285.344 39.3755 285.544 39.8755H292.664V41.6355H278.044V47.1755C277.984 51.2755 277.364 54.5555 276.204 57.0155L274.624 55.6155C275.544 53.5955 276.024 50.7755 276.064 47.1755V39.8755H283.504C283.304 39.4955 283.104 39.1555 282.904 38.8555L284.944 38.5355ZM279.204 45.2155H280.404C280.364 46.8955 279.944 48.1755 279.144 49.0355L278.164 48.1755C278.804 47.5355 279.164 46.5355 279.204 45.2155ZM283.284 45.2155H284.484V46.7355C284.484 46.9355 284.564 47.0355 284.744 47.0355H285.464V48.1755H284.284C283.604 48.1755 283.284 47.7355 283.284 46.8555V45.2155ZM286.264 45.2155H287.484C287.464 46.8155 287.184 48.0355 286.624 48.8555L285.644 47.9955C286.044 47.3955 286.244 46.4555 286.264 45.2155ZM290.444 45.2355H291.664V47.1155C291.664 47.3355 291.824 47.4555 292.144 47.4555H292.944V48.5755H291.684C290.844 48.5755 290.444 48.1155 290.444 47.2355V45.2355ZM285.584 43.0555H288.044V41.9955H289.844V43.0555H292.324V44.6155H289.664V48.6755H288.224V44.6155H285.584V43.0555ZM278.664 43.0555H280.924V41.9955H282.724V43.0555H284.884V44.6155H282.544V48.6755H281.104V44.6155H278.664V43.0555Z" fill="#272725"/>
<ellipse cx="25.6643" cy="2.35292" rx="25.6643" ry="2.35292" transform="matrix(-1 0 0 1 57.9414 85.2932)" fill="#D9D9D9"/>
<path d="M45.023 59.4109C45.023 59.4109 45.7008 68.5966 45.023 74.5444C44.4926 79.1992 43.1581 86.3388 43.1581 86.3388" stroke="#272725" stroke-width="2.21482" stroke-linecap="round"/>
<path d="M45.8867 87.7758L42.6463 86.3379" stroke="#272725" stroke-width="2.21482" stroke-linecap="round"/>
<path d="M3.18439 57.3205L67.1693 61.3112L38.604 3.43323L3.18439 57.3205Z" fill="#FFD44A" stroke="#FFD44A" stroke-width="2.68055" stroke-linecap="round"/>
<path d="M42.1625 39.345C40.3744 39.3665 38.9122 38.318 38.8967 37.003C38.8811 35.6879 40.318 34.6045 42.1061 34.5829C43.8942 34.5614 45.3564 35.61 45.3719 36.925C45.3875 38.24 43.9506 39.3235 42.1625 39.345Z" fill="#FF8356"/>
<path d="M45.2821 34.0761C44.6858 34.0833 44.1966 33.6017 44.1895 33.0003C44.1824 32.399 44.66 31.9057 45.2563 31.8985C45.8526 31.8913 46.3417 32.373 46.3488 32.9743C46.3559 33.5757 45.8783 34.069 45.2821 34.0761Z" fill="#272725"/>
<path d="M39.7352 33.8464C39.1389 33.8536 38.6498 33.3719 38.6426 32.7706C38.6355 32.1692 39.1131 31.6759 39.7094 31.6688C40.3057 31.6616 40.7948 32.1432 40.802 32.7446C40.8091 33.3459 40.3315 33.8392 39.7352 33.8464Z" fill="#272725"/>
<path d="M38.931 40.2142C38.9412 41.0802 39.2922 41.9065 39.9066 42.5116C40.521 43.1166 41.3486 43.4507 42.2073 43.4403C43.0659 43.43 43.8854 43.0761 44.4853 42.4564C45.0852 41.8368 45.4165 41.0022 45.4062 40.1362" stroke="#272725" stroke-width="1.53174" stroke-linecap="round"/>
<path d="M32.6663 60.1643C32.6663 60.1643 31.1553 68.4174 31.0305 73.6733C30.9125 78.6457 31.9776 86.326 31.9776 86.326" stroke="#272725" stroke-width="2.21482" stroke-linecap="round"/>
<path d="M32.457 86.9478L30.7807 87.4874L29.3047 87.8662" stroke="#272725" stroke-width="2.21482" stroke-linecap="round"/>
<path d="M74.6741 56.7204L72.8631 39.1731L59.1625 47.1502L55.6394 45.9377C55.383 45.7117 55.0513 45.5919 54.7109 45.6024C53.5309 45.7291 52.7692 47.7581 53.0117 50.1279C53.2542 52.4977 54.4106 54.3281 55.5845 54.1529C55.9347 54.0991 56.2494 53.9076 56.4599 53.6203L59.6603 51.7083L74.6741 56.7204Z" fill="white" stroke="#231815" stroke-width="1.56342" stroke-linejoin="round"/>
<path d="M78.2903 47.4634C77.7931 42.627 75.4186 38.8946 73.0011 39.1536C70.5836 39.4125 69.027 43.5354 69.4951 48.3794C69.9633 53.2234 72.3668 56.9482 74.7843 56.6892C77.2018 56.4303 78.8343 52.3129 78.2903 47.4634Z" fill="#231815" stroke="#231815" stroke-width="1.56342" stroke-miterlimit="10"/>
<path d="M82.9301 33.3961L150.434 11.3596" stroke="#231815" stroke-width="1.04228" stroke-miterlimit="10" stroke-linecap="round"/>
<path d="M83.9434 64.6605L153.996 75.9814" stroke="#231815" stroke-width="1.04228" stroke-miterlimit="10" stroke-linecap="round"/>
</svg>
