<svg width="356" height="356" viewBox="0 0 356 356" fill="none" xmlns="http://www.w3.org/2000/svg">
<g clip-path="url(#clip0_5488_29873)">
<rect width="356" height="356" fill="#FEFAF2"/>
<path d="M234.385 16.9883L-237.712 204.802L-139.076 452.715L333.022 264.901L234.385 16.9883Z" fill="#4BC58C"/>
<path d="M93.9188 191.236C106.88 191.236 117.387 180.729 117.387 167.769C117.387 154.808 106.88 144.302 93.9188 144.302C80.9577 144.302 70.4507 154.808 70.4507 167.769C70.4507 180.729 80.9577 191.236 93.9188 191.236Z" fill="#FFD44A"/>
<path d="M235.3 187.802C247.945 187.802 258.196 177.551 258.196 164.907C258.196 152.263 247.945 142.012 235.3 142.012C222.655 142.012 212.404 152.263 212.404 164.907C212.404 177.551 222.655 187.802 235.3 187.802Z" fill="#FFD44A"/>
<path d="M137.33 153.688C142.514 153.688 146.717 149.485 146.717 144.301C146.717 139.117 142.514 134.915 137.33 134.915C132.145 134.915 127.942 139.117 127.942 144.301C127.942 149.485 132.145 153.688 137.33 153.688Z" fill="#272725"/>
<path d="M192.473 153.688C197.658 153.688 201.86 149.485 201.86 144.301C201.86 139.117 197.658 134.915 192.473 134.915C187.289 134.915 183.086 139.117 183.086 144.301C183.086 149.485 187.289 153.688 192.473 153.688Z" fill="#272725"/>
<path d="M163.408 198.973C177.444 198.973 188.823 190.675 188.823 180.44C188.823 170.204 177.444 161.907 163.408 161.907C149.372 161.907 137.994 170.204 137.994 180.44C137.994 190.675 149.372 198.973 163.408 198.973Z" fill="#FF8356"/>
<path d="M201.425 205.419C199.765 205.545 205.432 208.475 200.738 212.104C194.27 217.129 183.509 199.993 171.752 202.156C170.074 202.463 168.473 203.098 167.04 204.025C165.608 204.952 164.373 206.153 163.407 207.559C162.441 206.153 161.206 204.952 159.774 204.025C158.341 203.098 156.74 202.463 155.061 202.156C143.305 199.993 132.544 217.129 126.076 212.104C121.382 208.475 127.049 205.545 125.389 205.419C118.932 204.892 113.666 218.434 126.705 225.703C131.031 228.19 135.914 229.544 140.903 229.642C145.892 229.74 150.824 228.579 155.245 226.264C157.534 224.959 160.579 223.173 163.407 221.628C166.235 223.173 169.28 224.959 171.569 226.264C175.99 228.579 180.922 229.74 185.911 229.642C190.9 229.544 195.783 228.19 200.109 225.703C213.148 218.434 207.882 204.892 201.425 205.419Z" fill="black"/>
</g>
<defs>
<clipPath id="clip0_5488_29873">
<rect width="356" height="356" fill="white"/>
</clipPath>
</defs>
</svg>
