<svg width="356" height="356" viewBox="0 0 356 356" fill="none" xmlns="http://www.w3.org/2000/svg">
<g clip-path="url(#clip0_5540_2934)">
<rect width="356" height="356" fill="#FEFAF2"/>
<g clip-path="url(#clip1_5540_2934)">
<path d="M231.247 259.294C251.706 257.839 271.997 263.857 288.352 276.23C304.706 288.604 316.012 306.491 320.168 326.569C322.676 338.931 322.356 351.701 319.23 363.922C316.105 376.143 310.255 387.5 302.119 397.142L455.443 520.996C479.943 491.124 498 456.512 508.483 419.332C518.965 382.151 521.645 343.207 516.355 304.942C495.519 153.494 355.693 45.6928 203.847 64.0328C130.684 72.8038 63.9194 110.021 18 167.63L171.228 291.401C178.438 282.16 187.503 274.529 197.84 269C208.176 263.47 219.556 260.164 231.247 259.294Z" fill="#B8E38D"/>
<path d="M167 137C171.971 137 176 132.971 176 128C176 123.029 171.971 119 167 119C162.029 119 158 123.029 158 128C158 132.971 162.029 137 167 137Z" fill="#272725"/>
<path d="M204 137C208.971 137 213 132.971 213 128C213 123.029 208.971 119 204 119C199.029 119 195 123.029 195 128C195 132.971 199.029 137 204 137Z" fill="#272725"/>
<path d="M218.767 203.44C217.23 196.219 173.08 206.535 176.153 214.788C179.226 223.042 192.579 232.836 203.361 229.232C214.144 225.628 220.303 210.662 218.767 203.44Z" fill="#272725" stroke="#272725" stroke-width="1.76" stroke-linecap="round"/>
<path d="M171.5 190C186.136 190 198 181.27 198 170.5C198 159.73 186.136 151 171.5 151C156.864 151 145 159.73 145 170.5C145 181.27 156.864 190 171.5 190Z" fill="#FF8356"/>
</g>
</g>
<defs>
<clipPath id="clip0_5540_2934">
<rect width="356" height="356" fill="white"/>
</clipPath>
<clipPath id="clip1_5540_2934">
<rect width="501" height="459" fill="white" transform="translate(11 61)"/>
</clipPath>
</defs>
</svg>
