<svg width="356" height="356" viewBox="0 0 356 356" fill="none" xmlns="http://www.w3.org/2000/svg">
<g clip-path="url(#clip0_5537_29039)">
<rect width="356" height="356" fill="#FEFAF2"/>
<path d="M313.838 327.726L-16.3672 311.585L162.666 32.7266L313.838 327.726Z" fill="#FFD44A" stroke="#FFD44A" stroke-width="14" stroke-linecap="round"/>
<path d="M173.192 221.726C187.126 221.726 198.421 213.461 198.421 203.266C198.421 193.071 187.126 184.806 173.192 184.806C159.258 184.806 147.962 193.071 147.962 203.266C147.962 213.461 159.258 221.726 173.192 221.726Z" fill="#FF8356"/>
<path d="M148.407 181.147C153.05 181.147 156.814 177.37 156.814 172.711C156.814 168.053 153.05 164.276 148.407 164.276C143.764 164.276 140 168.053 140 172.711C140 177.37 143.764 181.147 148.407 181.147Z" fill="#272725"/>
<path d="M191.606 178.871C196.249 178.871 200.013 175.094 200.013 170.435C200.013 165.777 196.249 162 191.606 162C186.963 162 183.199 165.777 183.199 170.435C183.199 175.094 186.963 178.871 191.606 178.871Z" fill="#272725"/>
<path d="M198.422 228.143C198.3 234.777 195.588 241.099 190.869 245.747C186.15 250.396 179.801 253 173.188 253C166.575 253 160.226 250.396 155.507 245.747C150.788 241.099 148.075 234.777 147.954 228.143" stroke="#272725" stroke-width="9.87705" stroke-linecap="round"/>
</g>
<defs>
<clipPath id="clip0_5537_29039">
<rect width="356" height="356" fill="white"/>
</clipPath>
</defs>
</svg>
