<svg width="356" height="356" viewBox="0 0 356 356" fill="none" xmlns="http://www.w3.org/2000/svg">
<rect width="356" height="356" fill="#FEFAF2"/>
<g clip-path="url(#clip0_5533_29020)">
<path d="M178.505 335.078C209.67 335.078 240.135 325.836 266.048 308.522C291.961 291.208 312.157 266.598 324.083 237.805C336.01 209.013 339.13 177.33 333.05 146.764C326.97 116.197 311.963 88.1206 289.926 66.0836C267.889 44.0466 239.812 29.0392 209.246 22.9592C178.68 16.8792 146.997 19.9997 118.204 31.926C89.4114 43.8523 64.8019 64.0489 47.4875 89.9617C30.1731 115.874 20.9316 146.34 20.9316 177.505C20.9316 219.296 37.533 259.375 67.0837 288.926C96.6344 318.476 136.714 335.078 178.505 335.078Z" fill="#FE5B50" stroke="#FE5B50" stroke-width="15.21" stroke-linecap="round"/>
<path d="M178.496 177.514C190.637 177.514 200.474 170.336 200.474 161.483C200.474 152.63 190.637 145.462 178.496 145.462C166.354 145.462 156.526 152.639 156.526 161.483C156.526 170.327 166.363 177.514 178.496 177.514Z" fill="#FF8356"/>
<path d="M243.137 191.896C247.737 191.89 252.232 190.521 256.054 187.962C259.875 185.403 262.853 181.768 264.609 177.516C266.366 173.265 266.823 168.589 265.922 164.078C265.021 159.567 262.804 155.425 259.549 152.174C256.295 148.924 252.15 146.711 247.638 145.816C243.126 144.92 238.45 145.382 234.201 147.144C229.952 148.905 226.321 151.887 223.766 155.712C221.211 159.537 219.847 164.033 219.847 168.633C219.847 171.69 220.45 174.718 221.621 177.542C222.791 180.366 224.507 182.931 226.67 185.092C228.833 187.252 231.401 188.965 234.226 190.133C237.052 191.3 240.08 191.899 243.137 191.896Z" fill="#FFCD00"/>
<path d="M115.439 198.809C120.235 198.809 124.922 197.387 128.91 194.723C132.897 192.058 136.005 188.272 137.84 183.841C139.675 179.411 140.155 174.536 139.219 169.832C138.284 165.129 135.975 160.809 132.584 157.418C129.193 154.027 124.873 151.718 120.169 150.782C115.466 149.847 110.591 150.327 106.16 152.162C101.73 153.997 97.9433 157.105 95.2791 161.092C92.6149 165.079 91.1929 169.767 91.1929 174.563C91.1929 177.747 91.82 180.9 93.0385 183.841C94.257 186.783 96.043 189.456 98.2944 191.707C100.546 193.959 103.219 195.745 106.16 196.963C109.102 198.182 112.255 198.809 115.439 198.809Z" fill="#FFCD00"/>
<path d="M202.341 198.617C202.341 190.711 153.311 191.395 154.696 200.731C156.08 210.067 167.985 223.365 180.199 222.062C192.413 220.76 202.332 206.523 202.341 198.617Z" fill="#272725" stroke="#272725" stroke-width="1.76" stroke-linecap="round"/>
<path d="M149.387 144.774C154.572 144.774 158.774 140.571 158.774 135.387C158.774 130.203 154.572 126 149.387 126C144.203 126 140 130.203 140 135.387C140 140.571 144.203 144.774 149.387 144.774Z" fill="#272725"/>
<path d="M204.531 144.774C209.715 144.774 213.918 140.571 213.918 135.387C213.918 130.203 209.715 126 204.531 126C199.346 126 195.144 130.203 195.144 135.387C195.144 140.571 199.346 144.774 204.531 144.774Z" fill="#272725"/>
</g>
<defs>
<clipPath id="clip0_5533_29020">
<rect width="329" height="329" fill="white" transform="translate(14 13)"/>
</clipPath>
</defs>
</svg>
