<svg width="24" height="25" viewBox="0 0 24 25" fill="none" xmlns="http://www.w3.org/2000/svg">
<path d="M12 6C12.9283 6 13.8185 6.36875 14.4749 7.02513C15.1313 7.6815 15.5 8.57174 15.5 9.5C15.5 10.4283 15.1313 11.3185 14.4749 11.9749C13.8185 12.6313 12.9283 13 12 13C11.0717 13 10.1815 12.6313 9.52513 11.9749C8.86875 11.3185 8.5 10.4283 8.5 9.5C8.5 8.57174 8.86875 7.6815 9.52513 7.02513C10.1815 6.36875 11.0717 6 12 6ZM5 8.5C5.56 8.5 6.08 8.65 6.53 8.92C6.38 10.35 6.8 11.77 7.66 12.88C7.16 13.84 6.16 14.5 5 14.5C4.20435 14.5 3.44129 14.1839 2.87868 13.6213C2.31607 13.0587 2 12.2956 2 11.5C2 10.7044 2.31607 9.94129 2.87868 9.37868C3.44129 8.81607 4.20435 8.5 5 8.5ZM19 8.5C19.7956 8.5 20.5587 8.81607 21.1213 9.37868C21.6839 9.94129 22 10.7044 22 11.5C22 12.2956 21.6839 13.0587 21.1213 13.6213C20.5587 14.1839 19.7956 14.5 19 14.5C17.84 14.5 16.84 13.84 16.34 12.88C17.2 11.77 17.62 10.35 17.47 8.92C17.92 8.65 18.44 8.5 19 8.5ZM5.5 18.75C5.5 16.68 8.41 15 12 15C15.59 15 18.5 16.68 18.5 18.75V20.5H5.5V18.75ZM0 20.5V19C0 17.61 1.89 16.44 4.45 16.1C3.86 16.78 3.5 17.72 3.5 18.75V20.5H0ZM24 20.5H20.5V18.75C20.5 17.72 20.14 16.78 19.55 16.1C22.11 16.44 24 17.61 24 19V20.5Z" fill="#5F5E5B"/>
</svg>
