<svg width="136" height="169" viewBox="0 0 136 169" fill="none" xmlns="http://www.w3.org/2000/svg">
<g id="Group 39970">
<g id="Group 39974">
<ellipse id="shadow" cx="76.1845" cy="163.789" rx="59.5595" ry="5.21145" fill="#D9D9D9"/>
<g id="Group 39950">
<path id="Vector" d="M124.505 13.4009L0.25 24.6434L11.4925 148.899L135.748 137.656L124.505 13.4009Z" fill="#FF9771"/>
<path id="Vector_2" d="M68.0012 90.289C71.389 89.6048 74.8041 92.3616 74.1353 89.0502C73.4666 85.7387 70.1781 83.6089 66.7903 84.2931C63.4026 84.9773 61.1984 88.2163 61.8671 91.5278C62.5359 94.8392 64.6135 90.9731 68.0012 90.289Z" fill="#272725"/>
<path id="Vector_3" d="M44.546 90.0837C49.2745 90.0837 53.1077 86.2505 53.1077 81.522C53.1077 76.7935 49.2745 72.9603 44.546 72.9603C39.8176 72.9603 35.9844 76.7935 35.9844 81.522C35.9844 86.2505 39.8176 90.0837 44.546 90.0837Z" fill="#FFD44A"/>
<path id="Vector_4" d="M90.7023 89.3392C95.4308 89.3392 99.264 85.506 99.264 80.7775C99.264 76.049 95.4308 72.2158 90.7023 72.2158C85.9738 72.2158 82.1406 76.049 82.1406 80.7775C82.1406 85.506 85.9738 89.3392 90.7023 89.3392Z" fill="#FFD44A"/>
<path id="Vector_5" d="M55.7151 67.0044C57.1542 67.0044 58.3208 65.8377 58.3208 64.3986C58.3208 62.9595 57.1542 61.7929 55.7151 61.7929C54.276 61.7929 53.1094 62.9595 53.1094 64.3986C53.1094 65.8377 54.276 67.0044 55.7151 67.0044Z" fill="#272725"/>
<path id="Vector_6" d="M79.5354 67.0044C80.9745 67.0044 82.1411 65.8377 82.1411 64.3986C82.1411 62.9595 80.9745 61.7929 79.5354 61.7929C78.0963 61.7929 76.9297 62.9595 76.9297 64.3986C76.9297 65.8377 78.0963 67.0044 79.5354 67.0044Z" fill="#272725"/>
<path id="Vector_7" d="M66.8852 81.1497C70.7913 81.1497 73.9579 77.9832 73.9579 74.077C73.9579 70.1709 70.7913 67.0043 66.8852 67.0043C62.979 67.0043 59.8125 70.1709 59.8125 74.077C59.8125 77.9832 62.979 81.1497 66.8852 81.1497Z" fill="#FF6730"/>
</g>
</g>
<path id="Vector_8" d="M94.5557 12.2282C93.3309 12.2603 92.4432 11.2685 91.7782 9.27511C91.4667 8.32623 91.2925 7.33767 91.261 6.33946C91.1545 5.48927 91.219 4.62637 91.4506 3.80145C91.6823 2.97652 92.0764 2.20619 92.6098 1.53567C92.8309 1.36697 93.0715 1.22563 93.3266 1.11476C93.5041 1.0897 93.6838 1.085 93.8624 1.10074C94.1303 1.09372 95.332 0.909076 97.4291 0.54779C98.0588 0.424342 98.6971 0.350013 99.3383 0.325475C102.476 0.259908 105.543 1.26737 108.031 3.18125C109.094 3.89423 109.997 4.81969 110.685 5.89927C111.372 6.97885 111.829 8.18915 112.025 9.45386C112.06 12.0188 111.095 14.4965 109.333 16.361C108.906 16.851 108.196 17.559 107.207 18.5233C105.806 19.9004 104.762 20.981 104.094 21.7837C103.608 22.4668 102.984 23.0407 102.263 23.4685C101.542 23.8964 100.74 24.1687 99.9074 24.2679C98.5295 24.304 97.7944 23.2891 97.707 21.4146C97.7185 18.8727 98.5167 16.3967 99.992 14.3266C100.741 13.2782 101.416 12.1791 102.012 11.0373C102.202 10.5463 102.299 10.0242 102.298 9.49775C102.286 9.11401 102.177 8.7395 101.981 8.40956C101.785 8.07962 101.508 7.80515 101.176 7.61205C100.676 7.33265 100.11 7.19517 99.5377 7.21445C98.5809 7.23949 97.775 7.9117 97.1191 9.1928C96.4632 10.4739 96.0783 11.1351 95.9327 11.4262C95.7574 11.7047 95.5213 11.9401 95.2422 12.1145C95.0188 12.1801 94.7883 12.2183 94.5557 12.2282ZM100.898 35.0429C98.1421 35.115 96.3403 34.3196 95.4537 32.6384C95.2011 32.1357 95.0625 31.5835 95.0475 31.0212C95.0297 30.2735 95.2051 29.5338 95.5569 28.8737C95.9087 28.2137 96.4248 27.6556 97.0555 27.2534C98.1028 26.522 99.3488 26.1286 100.626 26.1259C101.614 26.0113 102.615 26.1769 103.513 26.6037C104.411 27.0306 105.172 27.7016 105.707 28.5399C106.128 29.1933 106.366 29.9476 106.396 30.7242C106.435 31.5119 106.222 32.2916 105.788 32.9502C105.354 33.6089 104.722 34.1123 103.983 34.3877C103.007 34.7983 101.956 35.0019 100.896 34.9855L100.898 35.0429Z" fill="#272725"/>
</g>
</svg>
