<svg width="20" height="20" viewBox="0 0 20 20" fill="none" xmlns="http://www.w3.org/2000/svg">
<g id="Phone / icon / card-games">
<path id="Vector" d="M12.4148 1.6665H13.6648C14.5814 1.6665 15.3314 2.4165 15.3314 3.33317V8.6665L12.4148 1.6665ZM16.9148 2.99984L17.9981 3.49984C18.8314 3.83317 19.2481 4.83317 18.9148 5.6665L16.9148 10.5832V2.99984ZM15.1648 12.7498L10.9981 2.74984C10.7481 2.08317 10.1648 1.74984 9.4981 1.74984C9.2481 1.74984 9.08143 1.83317 8.83143 1.9165L2.66476 4.4165C1.83143 4.74984 1.41476 5.6665 1.83143 6.49984L5.9981 16.4998C6.2481 17.1665 6.83143 17.4998 7.4981 17.4998C7.7481 17.4998 7.91476 17.4998 8.16476 17.3332L14.3314 14.8332C14.9981 14.5832 15.3314 13.9998 15.3314 13.3332C15.2481 13.1665 15.2481 12.9165 15.1648 12.7498ZM9.66476 12.3332L6.9981 10.3332L7.33143 6.99984L9.9981 8.99984L9.66476 12.3332Z" fill="#504F4E"/>
</g>
</svg>
