<svg width="20" height="20" viewBox="0 0 20 20" fill="none" xmlns="http://www.w3.org/2000/svg">
<g id="Phone / icon / dollar">
<path id="Vector" d="M5.83203 12.5H7.4987C7.4987 13.4 8.64036 14.1667 9.9987 14.1667C11.357 14.1667 12.4987 13.4 12.4987 12.5C12.4987 11.5833 11.632 11.25 9.7987 10.8083C8.03203 10.3667 5.83203 9.81667 5.83203 7.5C5.83203 6.00833 7.05703 4.74167 8.7487 4.31667V2.5H11.2487V4.31667C12.9404 4.74167 14.1654 6.00833 14.1654 7.5H12.4987C12.4987 6.6 11.357 5.83333 9.9987 5.83333C8.64036 5.83333 7.4987 6.6 7.4987 7.5C7.4987 8.41667 8.36536 8.75 10.1987 9.19167C11.9654 9.63333 14.1654 10.1833 14.1654 12.5C14.1654 13.9917 12.9404 15.2583 11.2487 15.6833V17.5H8.7487V15.6833C7.05703 15.2583 5.83203 13.9917 5.83203 12.5Z" fill="#504F4E"/>
</g>
</svg>
