<svg width="20" height="20" viewBox="0 0 20 20" fill="none" xmlns="http://www.w3.org/2000/svg">
<path d="M13.3346 14.1669V15.8335H1.66797V14.1669C1.66797 14.1669 1.66797 10.8335 7.5013 10.8335C13.3346 10.8335 13.3346 14.1669 13.3346 14.1669ZM10.418 6.25021C10.418 5.67334 10.2469 5.10944 9.92642 4.62979C9.60593 4.15015 9.15041 3.77631 8.61746 3.55556C8.08451 3.3348 7.49807 3.27704 6.93229 3.38958C6.36651 3.50212 5.84681 3.77991 5.43891 4.18781C5.031 4.59572 4.75322 5.11542 4.64068 5.68119C4.52814 6.24697 4.5859 6.83342 4.80665 7.36637C5.02741 7.89932 5.40125 8.35484 5.88089 8.67533C6.36053 8.99581 6.92444 9.16687 7.5013 9.16687C8.27485 9.16687 9.01672 8.85958 9.5637 8.3126C10.1107 7.76562 10.418 7.02375 10.418 6.25021ZM13.2846 10.8335C13.7969 11.23 14.2161 11.7339 14.5127 12.3098C14.8093 12.8857 14.9761 13.5196 15.0013 14.1669V15.8335H18.3346V14.1669C18.3346 14.1669 18.3346 11.1419 13.2846 10.8335ZM12.5013 3.33354C11.9277 3.33035 11.3667 3.50184 10.893 3.82521C11.3992 4.53249 11.6713 5.38045 11.6713 6.25021C11.6713 7.11997 11.3992 7.96793 10.893 8.67521C11.3667 8.99858 11.9277 9.17007 12.5013 9.16687C13.2748 9.16687 14.0167 8.85958 14.5637 8.3126C15.1107 7.76562 15.418 7.02375 15.418 6.25021C15.418 5.47666 15.1107 4.73479 14.5637 4.18781C14.0167 3.64083 13.2748 3.33354 12.5013 3.33354Z" fill="#504F4E"/>
</svg>
