<svg width="16" height="17" viewBox="0 0 16 17" fill="none" xmlns="http://www.w3.org/2000/svg">
<g id="Desktop / icon /tag-text-outline">
<path id="Vector" d="M14.2654 8.2335L8.26536 2.2335C7.9987 1.96683 7.66536 1.8335 7.33203 1.8335H2.66536C1.93203 1.8335 1.33203 2.4335 1.33203 3.16683V7.8335C1.33203 8.16683 1.46536 8.50016 1.73203 8.76683L7.73203 14.7668C7.9987 15.0335 8.33203 15.1668 8.66536 15.1668C8.9987 15.1668 9.33203 15.0335 9.5987 14.7668L14.2654 10.1002C14.532 9.8335 14.6654 9.50016 14.6654 9.16683C14.6654 8.8335 14.532 8.50016 14.2654 8.2335ZM8.66536 13.8335L2.66536 7.8335V3.16683H7.33203L13.332 9.16683M4.33203 3.8335C4.86536 3.8335 5.33203 4.30016 5.33203 4.8335C5.33203 5.36683 4.86536 5.8335 4.33203 5.8335C3.7987 5.8335 3.33203 5.36683 3.33203 4.8335C3.33203 4.30016 3.7987 3.8335 4.33203 3.8335ZM6.73203 6.4335L7.66536 5.50016L11.332 9.16683L10.3987 10.1002L6.73203 6.4335ZM5.06536 8.10016L5.9987 7.16683L8.66536 9.8335L7.73203 10.7668L5.06536 8.10016Z" fill="#3D3D3C"/>
</g>
</svg>
