<svg width="20" height="20" viewBox="0 0 20 20" fill="none" xmlns="http://www.w3.org/2000/svg">
<g id="Phone / icon / calendar-month">
<path id="Vector" d="M7.5 8.3335V10.0002H5.83333V8.3335H7.5ZM10.8333 8.3335V10.0002H9.16667V8.3335H10.8333ZM14.1667 8.3335V10.0002H12.5V8.3335H14.1667ZM15.8333 2.50016C16.2754 2.50016 16.6993 2.67576 17.0118 2.98832C17.3244 3.30088 17.5 3.7248 17.5 4.16683V15.8335C17.5 16.2755 17.3244 16.6994 17.0118 17.012C16.6993 17.3246 16.2754 17.5002 15.8333 17.5002H4.16667C3.24167 17.5002 2.5 16.7502 2.5 15.8335V4.16683C2.5 3.7248 2.67559 3.30088 2.98816 2.98832C3.30072 2.67576 3.72464 2.50016 4.16667 2.50016H5V0.833496H6.66667V2.50016H13.3333V0.833496H15V2.50016H15.8333ZM15.8333 15.8335V6.66683H4.16667V15.8335H15.8333ZM7.5 11.6668V13.3335H5.83333V11.6668H7.5ZM10.8333 11.6668V13.3335H9.16667V11.6668H10.8333ZM14.1667 11.6668V13.3335H12.5V11.6668H14.1667Z" fill="#504F4E"/>
</g>
</svg>
