<svg width="16" height="17" viewBox="0 0 16 17" fill="none" xmlns="http://www.w3.org/2000/svg">
<g id="Desktop / icon / location">
<path id="Vector" d="M7.9987 8.16634C7.55667 8.16634 7.13275 7.99075 6.82019 7.67819C6.50763 7.36563 6.33203 6.9417 6.33203 6.49967C6.33203 6.05765 6.50763 5.63372 6.82019 5.32116C7.13275 5.0086 7.55667 4.83301 7.9987 4.83301C8.44073 4.83301 8.86465 5.0086 9.17721 5.32116C9.48977 5.63372 9.66536 6.05765 9.66536 6.49967C9.66536 6.71854 9.62226 6.93527 9.5385 7.13748C9.45474 7.33969 9.33197 7.52342 9.17721 7.67819C9.02245 7.83295 8.83871 7.95572 8.6365 8.03947C8.43429 8.12323 8.21757 8.16634 7.9987 8.16634ZM7.9987 1.83301C6.76102 1.83301 5.57404 2.32467 4.69887 3.19984C3.8237 4.07501 3.33203 5.262 3.33203 6.49967C3.33203 9.99967 7.9987 15.1663 7.9987 15.1663C7.9987 15.1663 12.6654 9.99967 12.6654 6.49967C12.6654 5.262 12.1737 4.07501 11.2985 3.19984C10.4234 2.32467 9.23637 1.83301 7.9987 1.83301Z" fill="#504F4E"/>
</g>
</svg>
