<svg width="16" height="16" viewBox="0 0 16 16" fill="none" xmlns="http://www.w3.org/2000/svg">
<g id="Phone / icon /account-multiple">
<path id="Vector" d="M10.6654 11.3337V12.667H1.33203V11.3337C1.33203 11.3337 1.33203 8.66703 5.9987 8.66703C10.6654 8.66703 10.6654 11.3337 10.6654 11.3337ZM8.33203 5.00036C8.33203 4.53887 8.19518 4.08774 7.93879 3.70403C7.6824 3.32032 7.31799 3.02125 6.89163 2.84464C6.46526 2.66804 5.99611 2.62183 5.54349 2.71186C5.09086 2.80189 4.6751 3.02412 4.34878 3.35044C4.02246 3.67677 3.80023 4.09253 3.7102 4.54515C3.62017 4.99777 3.66637 5.46693 3.84298 5.89329C4.01958 6.31965 4.31865 6.68407 4.70237 6.94046C5.08608 7.19685 5.53721 7.33369 5.9987 7.33369C6.61754 7.33369 7.21103 7.08786 7.64861 6.65028C8.0862 6.21269 8.33203 5.6192 8.33203 5.00036ZM10.6254 8.66703C11.0352 8.98419 11.3705 9.38732 11.6078 9.84803C11.8451 10.3087 11.9785 10.8159 11.9987 11.3337V12.667H14.6654V11.3337C14.6654 11.3337 14.6654 8.91369 10.6254 8.66703ZM9.9987 2.66703C9.53982 2.66447 9.09104 2.80166 8.71203 3.06036C9.11699 3.62618 9.33473 4.30455 9.33473 5.00036C9.33473 5.69617 9.11699 6.37454 8.71203 6.94036C9.09104 7.19906 9.53982 7.33625 9.9987 7.33369C10.6175 7.33369 11.211 7.08786 11.6486 6.65028C12.0862 6.21269 12.332 5.6192 12.332 5.00036C12.332 4.38152 12.0862 3.78803 11.6486 3.35044C11.211 2.91286 10.6175 2.66703 9.9987 2.66703Z" fill="#504F4E"/>
</g>
</svg>
