<svg xmlns="http://www.w3.org/2000/svg" viewBox="0 0 90 60"><defs><style>.cls-1{isolation:isolate;}.cls-2{fill:#ff8356;}.cls-3{fill:#247cbc;}.cls-4,.cls-5{fill:#ffcd00;}.cls-5,.cls-6{mix-blend-mode:multiply;}</style></defs><g class="cls-1"><g id="Logo_中文_英文_" data-name="Logo (中文+英文）"><polygon class="cls-2" points="40.33 11.06 36 11.06 35.99 11.07 35.83 21.48 29.14 15.43 30.65 20.01 26.65 20.12 26.68 15.41 31.75 15.35 27.6 9.91 16.8 15.54 21.36 15.54 21.44 20.26 15.92 20.39 15.95 21.82 21.48 21.65 21.54 24.48 21.57 25.52 17.89 31.9 21.71 31.9 21.87 38.95 26.55 38.86 26.59 31.9 30.52 31.9 26.64 25.18 26.65 24.45 26.65 21.52 31.11 21.39 32.79 26.49 35.81 22.92 35.73 28.37 30.99 39.05 38.44 31.94 45.12 39.1 48.9 34.37 39.37 29.27 40.33 11.06"/><polygon class="cls-2" points="81.83 14.9 81.76 13.41 74.28 13.62 76.67 9.93 71.26 8.76 70.54 19.34 73.23 15.18 81.83 14.9"/><polygon class="cls-2" points="70.13 27.62 73.28 27.55 73.42 32.27 71.63 34.42 78.01 34.01 77.9 27.47 81.75 27.36 81.71 25.84 77.9 25.95 77.89 25.38 77.89 23.25 81.75 20.48 78.42 17.8 71.9 17.95 71.9 19.33 77.3 19.19 76.07 22.52 73.11 22.52 73.11 26.07 70.09 26.13 70.13 27.66 70.13 27.62"/><polygon class="cls-2" points="57.75 18.22 57.75 18.23 59.72 18.2 59.41 28.52 58.99 34.68 62.6 34.56 63.82 22.52 64.75 22.45 64.31 33.03 63.42 34.45 68.61 34.32 68.76 21 63.98 21.2 64.28 18.07 68.62 17.96 68.55 16.51 65.72 16.58 65.7 10.72 61.05 10.84 61.2 16.67 57.71 16.77 57.75 18.22"/><polygon class="cls-2" points="59.86 35.94 55.81 33.69 56.49 21.17 48.33 21.57 48.33 22.16 48.47 23.62 50.98 23.48 51.38 33.41 49.32 39.07 54.08 35.65 59.04 38.83 84.35 38.8 84.52 35.3 59.86 35.94"/><polygon class="cls-2" points="14.07 25.35 14.07 24.83 14.12 19.41 17.08 19.24 17.08 17.81 14.12 17.95 14.19 10.49 9.45 10.66 9.51 18.18 6.22 18.33 6.22 19.89 9.54 19.69 9.61 26.23 9.61 26.55 5.48 27.65 9.64 30.05 9.64 30.5 9.71 36.36 6.72 38.86 13.97 38.66 14.04 29.81 17.08 24.55 14.07 25.35"/><line class="cls-2" x1="21.17" y1="15.57" x2="26.68" y2="15.41"/><rect class="cls-3" x="42.16" y="15.47" width="7.83" height="2.47" transform="translate(-2.61 11.05) rotate(-13.3)"/><rect class="cls-3" x="42.16" y="15.47" width="7.83" height="2.47" transform="translate(51.73 -31.97) rotate(76.7)"/><rect class="cls-3" x="49.08" y="13.84" width="7.83" height="2.47" transform="translate(55.47 -39.97) rotate(76.7)"/><path class="cls-4" d="M23.13,41.45a4.89,4.89,0,0,0-4.89,4.89,4.82,4.82,0,0,0,1,3l7.72-6A4.85,4.85,0,0,0,23.13,41.45Z"/><path class="cls-4" d="M19.24,49.3a4.89,4.89,0,1,0,7.72-6Z"/><rect class="cls-4" x="30.16" y="41.6" width="4.86" height="9.64"/><polygon class="cls-5" points="37.19 51.24 37.19 41.43 46.99 51.24 37.19 51.24"/><rect class="cls-5" x="42.09" y="41.44" width="4.87" height="9.79"/><polygon class="cls-5" points="42.2 51.24 42.2 46.44 46.99 51.24 42.2 51.24"/><path class="cls-5" d="M11.53,41.45v4.89l-4.89.11a4.9,4.9,0,1,0,4.89-5Z"/><rect class="cls-5" x="11.53" y="41.45" width="4.9" height="4.9"/><path class="cls-5" d="M11.53,41.45v4.89h4.9A4.92,4.92,0,0,0,11.53,41.45Z"/><path class="cls-4" d="M65.25,41.45a4.9,4.9,0,0,0-4.9,4.89,4.83,4.83,0,0,0,1,3l7.72-6A4.88,4.88,0,0,0,65.25,41.45Z"/><path class="cls-4" d="M61.36,49.3a4.89,4.89,0,1,0,7.72-6Z"/><path class="cls-5" d="M53.65,41.45v4.89l-4.9.11a4.9,4.9,0,1,0,4.9-5Z"/><rect class="cls-5" x="53.65" y="41.45" width="4.9" height="4.9"/><path class="cls-5" d="M53.65,41.45v4.89h4.89A4.92,4.92,0,0,0,53.65,41.45Z"/><rect class="cls-5" x="73.41" y="41.65" width="4.35" height="9.59"/><g class="cls-6"><polygon class="cls-4" points="70.81 41.65 70.81 41.65 75.59 51.24 75.59 51.24 80.37 41.65 70.81 41.65"/></g><polygon class="cls-5" points="73.41 41.65 73.41 46.87 75.59 51.24 77.77 46.87 77.77 41.65 73.41 41.65"/></g></g></svg>